<ttFont>
    <TTGlyph name=".notdef" xMin="74" yMin="4" xMax="1004" yMax="1554">
      <contour>
        <pt x="459" y="299" on="1"/>
        <pt x="445" y="311" on="0"/>
        <pt x="422" y="335" on="0"/>
        <pt x="401" y="363" on="0"/>
        <pt x="382" y="398" on="0"/>
        <pt x="373" y="422" on="1"/>
        <pt x="74" y="1188" on="1"/>
        <pt x="166" y="1448" on="1"/>
        <pt x="297" y="1501" on="1"/>
        <pt x="436" y="1554" on="1"/>
        <pt x="678" y="1432" on="1"/>
        <pt x="981" y="664" on="1"/>
        <pt x="995" y="628" on="0"/>
        <pt x="1004" y="580" on="0"/>
        <pt x="1004" y="558" on="1"/>
        <pt x="1004" y="537" on="0"/>
        <pt x="1001" y="512" on="1"/>
        <pt x="940" y="135" on="1"/>
        <pt x="931" y="73" on="0"/>
        <pt x="902" y="14" on="0"/>
        <pt x="881" y="6" on="1"/>
        <pt x="874" y="4" on="0"/>
        <pt x="855" y="7" on="0"/>
        <pt x="827" y="20" on="0"/>
        <pt x="788" y="46" on="0"/>
        <pt x="760" y="68" on="1"/>
      </contour>
      <contour>
        <pt x="522" y="1227" on="1"/>
        <pt x="584" y="1374" on="1"/>
        <pt x="430" y="1456" on="1"/>
        <pt x="334" y="1417" on="1"/>
        <pt x="231" y="1378" on="1"/>
        <pt x="174" y="1217" on="1"/>
        <pt x="326" y="1149" on="1"/>
      </contour>
      <contour>
        <pt x="268" y="1268" on="1"/>
        <pt x="263" y="1281" on="0"/>
        <pt x="271" y="1313" on="0"/>
        <pt x="295" y="1343" on="0"/>
        <pt x="331" y="1370" on="0"/>
        <pt x="354" y="1378" on="1"/>
        <pt x="388" y="1392" on="0"/>
        <pt x="418" y="1392" on="1"/>
        <pt x="444" y="1392" on="0"/>
        <pt x="482" y="1373" on="0"/>
        <pt x="489" y="1356" on="1"/>
        <pt x="495" y="1342" on="0"/>
        <pt x="488" y="1310" on="0"/>
        <pt x="466" y="1279" on="0"/>
        <pt x="430" y="1252" on="0"/>
        <pt x="408" y="1243" on="1"/>
        <pt x="374" y="1229" on="0"/>
        <pt x="343" y="1229" on="1"/>
        <pt x="316" y="1229" on="0"/>
        <pt x="276" y="1249" on="0"/>
      </contour>
      <contour>
        <pt x="852" y="551" on="1"/>
        <pt x="862" y="562" on="0"/>
        <pt x="880" y="583" on="0"/>
        <pt x="886" y="591" on="1"/>
        <pt x="893" y="601" on="0"/>
        <pt x="899" y="610" on="1"/>
        <pt x="641" y="1276" on="1"/>
        <pt x="598" y="1182" on="1"/>
      </contour>
      <contour>
        <pt x="643" y="438" on="1"/>
        <pt x="648" y="438" on="0"/>
        <pt x="675" y="445" on="0"/>
        <pt x="709" y="461" on="1"/>
        <pt x="723" y="466" on="0"/>
        <pt x="748" y="476" on="0"/>
        <pt x="757" y="481" on="1"/>
        <pt x="768" y="486" on="0"/>
        <pt x="776" y="492" on="1"/>
        <pt x="744" y="574" on="0"/>
        <pt x="681" y="732" on="0"/>
        <pt x="619" y="889" on="0"/>
        <pt x="556" y="1047" on="0"/>
        <pt x="524" y="1130" on="1"/>
        <pt x="453" y="1104" on="1"/>
        <pt x="387" y="1075" on="1"/>
        <pt x="451" y="912" on="0"/>
        <pt x="578" y="601" on="0"/>
      </contour>
      <contour>
        <pt x="459" y="440" on="1"/>
        <pt x="464" y="438" on="0"/>
        <pt x="475" y="436" on="1"/>
        <pt x="484" y="434" on="0"/>
        <pt x="517" y="432" on="0"/>
        <pt x="543" y="432" on="1"/>
        <pt x="295" y="1063" on="1"/>
        <pt x="203" y="1104" on="1"/>
        <pt x="269" y="936" on="0"/>
        <pt x="394" y="609" on="0"/>
      </contour>
      <contour>
        <pt x="748" y="197" on="1"/>
        <pt x="745" y="199" on="1"/>
        <pt x="765" y="186" on="0"/>
        <pt x="794" y="180" on="0"/>
        <pt x="813" y="186" on="1"/>
        <pt x="811" y="186" on="1"/>
        <pt x="836" y="196" on="0"/>
        <pt x="854" y="222" on="0"/>
        <pt x="860" y="244" on="1"/>
        <pt x="860" y="242" on="1"/>
        <pt x="862" y="249" on="0"/>
        <pt x="867" y="277" on="0"/>
        <pt x="873" y="311" on="0"/>
        <pt x="879" y="349" on="0"/>
        <pt x="882" y="368" on="1"/>
        <pt x="889" y="412" on="0"/>
        <pt x="897" y="463" on="1"/>
        <pt x="874" y="438" on="0"/>
        <pt x="799" y="387" on="0"/>
        <pt x="745" y="367" on="1"/>
        <pt x="694" y="347" on="0"/>
        <pt x="607" y="334" on="0"/>
        <pt x="573" y="334" on="1"/>
        <pt x="567" y="334" on="1"/>
      </contour>
    </TTGlyph>
    <TTGlyph name="A" xMin="14" yMin="0" xMax="1262" yMax="1427">
      <contour>
        <pt x="477" y="1427" on="1"/>
        <pt x="795" y="1427" on="1"/>
        <pt x="1262" y="0" on="1"/>
        <pt x="997" y="0" on="1"/>
        <pt x="877" y="387" on="1"/>
        <pt x="391" y="387" on="1"/>
        <pt x="276" y="0" on="1"/>
        <pt x="14" y="0" on="1"/>
      </contour>
      <contour>
        <pt x="811" y="602" on="1"/>
        <pt x="635" y="1206" on="1"/>
        <pt x="631" y="1206" on="1"/>
        <pt x="455" y="602" on="1"/>
      </contour>
    </TTGlyph>
    <TTGlyph name="AE" xMin="10" yMin="0" xMax="1643" yMax="1427">
      <contour>
        <pt x="473" y="1427" on="1"/>
        <pt x="1567" y="1427" on="1"/>
        <pt x="1567" y="1204" on="1"/>
        <pt x="862" y="1204" on="1"/>
        <pt x="985" y="829" on="1"/>
        <pt x="1583" y="829" on="1"/>
        <pt x="1583" y="610" on="1"/>
        <pt x="1057" y="610" on="1"/>
        <pt x="1184" y="223" on="1"/>
        <pt x="1643" y="223" on="1"/>
        <pt x="1643" y="0" on="1"/>
        <pt x="993" y="0" on="1"/>
        <pt x="873" y="387" on="1"/>
        <pt x="387" y="387" on="1"/>
        <pt x="272" y="0" on="1"/>
        <pt x="10" y="0" on="1"/>
      </contour>
      <contour>
        <pt x="807" y="602" on="1"/>
        <pt x="635" y="1204" on="1"/>
        <pt x="629" y="1204" on="1"/>
        <pt x="451" y="602" on="1"/>
      </contour>
    </TTGlyph>
    <TTGlyph name="AEacute" xMin="14" yMin="0" xMax="1647" yMax="1986">
      <component glyphName="AE" x="4" y="0" flags="0x1004"/>
      <component glyphName="acute.cap" x="635" y="-19" flags="0x1004"/>
    </TTGlyph>
    <TTGlyph name="Aacute" xMin="14" yMin="0" xMax="1262" yMax="1986">
      <component glyphName="A" x="0" y="0" flags="0x1204"/>
      <component glyphName="acute.cap" x="350" y="-19" flags="0x1004"/>
    </TTGlyph>
    <TTGlyph name="Abreve" xMin="14" yMin="0" xMax="1262" yMax="1882">
      <component glyphName="A" x="0" y="0" flags="0x1204"/>
      <component glyphName="breve" x="227" y="352" flags="0x1004"/>
    </TTGlyph>
    <TTGlyph name="Acircumflex" xMin="14" yMin="0" xMax="1262" yMax="1922">
      <component glyphName="A" x="0" y="0" flags="0x1204"/>
      <component glyphName="circumflex.cap" x="246" y="-40" flags="0x1004"/>
    </TTGlyph>
    <TTGlyph name="Adieresis" xMin="14" yMin="0" xMax="1262" yMax="1843">
      <component glyphName="A" x="0" y="0" flags="0x1204"/>
      <component glyphName="period" x="622" y="1552" flags="0x1004"/>
      <component glyphName="period" x="157" y="1552" flags="0x1004"/>
    </TTGlyph>
    <TTGlyph name="Agrave" xMin="14" yMin="0" xMax="1262" yMax="1985">
      <component glyphName="A" x="0" y="0" flags="0x1204"/>
      <component glyphName="grave.cap" x="242" y="0" flags="0x1004"/>
    </TTGlyph>
    <TTGlyph name="Amacron" xMin="14" yMin="0" xMax="1262" yMax="1753">
      <component glyphName="A" x="0" y="0" flags="0x1204"/>
      <component glyphName="macron" x="223" y="338" flags="0x1004"/>
    </TTGlyph>
    <TTGlyph name="Aogonek" xMin="14" yMin="-500" xMax="1262" yMax="1427">
      <contour>
        <pt x="477" y="1427" on="1"/>
        <pt x="795" y="1427" on="1"/>
        <pt x="1262" y="0" on="1"/>
        <pt x="1168" y="-56" on="0"/>
        <pt x="1085" y="-174" on="0"/>
        <pt x="1085" y="-225" on="1"/>
        <pt x="1085" y="-267" on="0"/>
        <pt x="1135" y="-317" on="0"/>
        <pt x="1186" y="-317" on="1"/>
        <pt x="1214" y="-317" on="0"/>
        <pt x="1234" y="-314" on="1"/>
        <pt x="1245" y="-313" on="0"/>
        <pt x="1255" y="-311" on="1"/>
        <pt x="1255" y="-479" on="1"/>
        <pt x="1236" y="-486" on="0"/>
        <pt x="1214" y="-490" on="1"/>
        <pt x="1195" y="-494" on="0"/>
        <pt x="1145" y="-500" on="0"/>
        <pt x="1116" y="-500" on="1"/>
        <pt x="1063" y="-500" on="0"/>
        <pt x="971" y="-472" on="0"/>
        <pt x="903" y="-417" on="0"/>
        <pt x="864" y="-334" on="0"/>
        <pt x="864" y="-279" on="1"/>
        <pt x="864" y="-235" on="0"/>
        <pt x="888" y="-154" on="0"/>
        <pt x="926" y="-84" on="0"/>
        <pt x="973" y="-24" on="0"/>
        <pt x="997" y="0" on="1"/>
        <pt x="877" y="387" on="1"/>
        <pt x="391" y="387" on="1"/>
        <pt x="276" y="0" on="1"/>
        <pt x="14" y="0" on="1"/>
      </contour>
      <contour>
        <pt x="811" y="602" on="1"/>
        <pt x="635" y="1206" on="1"/>
        <pt x="631" y="1206" on="1"/>
        <pt x="455" y="602" on="1"/>
      </contour>
    </TTGlyph>
    <TTGlyph name="Aring" xMin="14" yMin="0" xMax="1262" yMax="1962">
      <component glyphName="A" x="0" y="0" flags="0x1204"/>
      <component glyphName="ring.cap" x="324" y="311" flags="0x1004"/>
    </TTGlyph>
    <TTGlyph name="Atilde" xMin="14" yMin="0" xMax="1262" yMax="1836">
      <component glyphName="A" x="0" y="0" flags="0x1204"/>
      <component glyphName="tilde.cap" x="168" y="10" flags="0x1004"/>
    </TTGlyph>
    <TTGlyph name="B" xMin="182" yMin="0" xMax="1196" yMax="1427">
      <contour>
        <pt x="182" y="1427" on="1"/>
        <pt x="741" y="1427" on="1"/>
        <pt x="846" y="1427" on="0"/>
        <pt x="994" y="1380" on="0"/>
        <pt x="1089" y="1283" on="0"/>
        <pt x="1133" y="1136" on="0"/>
        <pt x="1133" y="1036" on="1"/>
        <pt x="1133" y="951" on="0"/>
        <pt x="1098" y="845" on="0"/>
        <pt x="1046" y="783" on="0"/>
        <pt x="982" y="756" on="0"/>
        <pt x="954" y="750" on="1"/>
        <pt x="954" y="748" on="1"/>
        <pt x="972" y="746" on="0"/>
        <pt x="1022" y="733" on="0"/>
        <pt x="1076" y="706" on="0"/>
        <pt x="1128" y="661" on="0"/>
        <pt x="1170" y="591" on="0"/>
        <pt x="1196" y="492" on="0"/>
        <pt x="1196" y="426" on="1"/>
        <pt x="1196" y="294" on="0"/>
        <pt x="1144" y="128" on="0"/>
        <pt x="1039" y="34" on="0"/>
        <pt x="878" y="0" on="0"/>
        <pt x="770" y="0" on="1"/>
        <pt x="182" y="0" on="1"/>
      </contour>
      <contour>
        <pt x="694" y="825" on="1"/>
        <pt x="748" y="825" on="0"/>
        <pt x="824" y="839" on="0"/>
        <pt x="873" y="882" on="0"/>
        <pt x="895" y="960" on="0"/>
        <pt x="895" y="1024" on="1"/>
        <pt x="895" y="1077" on="0"/>
        <pt x="869" y="1148" on="0"/>
        <pt x="819" y="1190" on="0"/>
        <pt x="746" y="1208" on="0"/>
        <pt x="700" y="1208" on="1"/>
        <pt x="422" y="1208" on="1"/>
        <pt x="422" y="825" on="1"/>
      </contour>
      <contour>
        <pt x="741" y="219" on="1"/>
        <pt x="787" y="219" on="0"/>
        <pt x="862" y="234" on="0"/>
        <pt x="915" y="278" on="0"/>
        <pt x="944" y="357" on="0"/>
        <pt x="944" y="422" on="1"/>
        <pt x="944" y="487" on="0"/>
        <pt x="919" y="566" on="0"/>
        <pt x="866" y="608" on="0"/>
        <pt x="785" y="621" on="0"/>
        <pt x="729" y="621" on="1"/>
        <pt x="422" y="621" on="1"/>
        <pt x="422" y="219" on="1"/>
      </contour>
    </TTGlyph>
    <TTGlyph name="C" xMin="115" yMin="-25" xMax="1079" yMax="1450">
      <contour>
        <pt x="672" y="-25" on="1"/>
        <pt x="603" y="-25" on="0"/>
        <pt x="466" y="1" on="0"/>
        <pt x="343" y="65" on="0"/>
        <pt x="237" y="174" on="0"/>
        <pt x="159" y="341" on="0"/>
        <pt x="115" y="571" on="0"/>
        <pt x="115" y="725" on="1"/>
        <pt x="115" y="873" on="0"/>
        <pt x="165" y="1096" on="0"/>
        <pt x="249" y="1258" on="0"/>
        <pt x="361" y="1363" on="0"/>
        <pt x="485" y="1425" on="0"/>
        <pt x="613" y="1450" on="0"/>
        <pt x="672" y="1450" on="1"/>
        <pt x="772" y="1450" on="0"/>
        <pt x="920" y="1430" on="0"/>
        <pt x="970" y="1418" on="1"/>
        <pt x="1028" y="1404" on="0"/>
        <pt x="1069" y="1386" on="1"/>
        <pt x="1069" y="1214" on="1"/>
        <pt x="1028" y="1217" on="0"/>
        <pt x="981" y="1220" on="1"/>
        <pt x="941" y="1222" on="0"/>
        <pt x="838" y="1227" on="0"/>
        <pt x="782" y="1227" on="1"/>
        <pt x="731" y="1227" on="0"/>
        <pt x="630" y="1219" on="0"/>
        <pt x="537" y="1186" on="0"/>
        <pt x="457" y="1122" on="0"/>
        <pt x="398" y="1011" on="0"/>
        <pt x="365" y="845" on="0"/>
        <pt x="365" y="727" on="1"/>
        <pt x="365" y="603" on="0"/>
        <pt x="399" y="427" on="0"/>
        <pt x="459" y="309" on="0"/>
        <pt x="539" y="241" on="0"/>
        <pt x="633" y="206" on="0"/>
        <pt x="735" y="197" on="0"/>
        <pt x="786" y="197" on="1"/>
        <pt x="852" y="197" on="0"/>
        <pt x="960" y="201" on="0"/>
        <pt x="998" y="203" on="1"/>
        <pt x="1043" y="206" on="0"/>
        <pt x="1079" y="209" on="1"/>
        <pt x="1079" y="37" on="1"/>
        <pt x="1035" y="19" on="0"/>
        <pt x="975" y="6" on="1"/>
        <pt x="923" y="-6" on="0"/>
        <pt x="772" y="-25" on="0"/>
      </contour>
    </TTGlyph>
    <TTGlyph name="Cacute" xMin="115" yMin="-25" xMax="1079" yMax="2005">
      <component glyphName="C" x="0" y="0" flags="0x1204"/>
      <component glyphName="acute.cap" x="358" y="0" flags="0x1004"/>
    </TTGlyph>
    <TTGlyph name="Ccaron" xMin="115" yMin="-25" xMax="1079" yMax="1962">
      <component glyphName="C" x="0" y="0" flags="0x1204"/>
      <component glyphName="caron.cap" x="279" y="0" flags="0x1004"/>
    </TTGlyph>
    <TTGlyph name="Ccedilla" xMin="115" yMin="-485" xMax="1079" yMax="1450">
      <component glyphName="C" x="0" y="0" flags="0x1204"/>
      <component glyphName="cedilla" x="380" y="0" flags="0x1004"/>
    </TTGlyph>
    <TTGlyph name="Ccircumflex" xMin="115" yMin="-25" xMax="1079" yMax="1945">
      <component glyphName="C" x="0" y="0" flags="0x1204"/>
      <component glyphName="circumflex.cap" x="299" y="-17" flags="0x1004"/>
    </TTGlyph>
    <TTGlyph name="Cdotaccent" xMin="115" yMin="-25" xMax="1079" yMax="1821">
      <component glyphName="C" x="0" y="0" flags="0x1204"/>
      <component glyphName="dotaccent" x="502" y="344" flags="0x1004"/>
    </TTGlyph>
    <TTGlyph name="D" xMin="182" yMin="0" xMax="1255" yMax="1427">
      <contour>
        <pt x="182" y="1427" on="1"/>
        <pt x="694" y="1427" on="1"/>
        <pt x="773" y="1427" on="0"/>
        <pt x="918" y="1405" on="0"/>
        <pt x="1042" y="1349" on="0"/>
        <pt x="1144" y="1249" on="0"/>
        <pt x="1216" y="1093" on="0"/>
        <pt x="1255" y="873" on="0"/>
        <pt x="1255" y="725" on="1"/>
        <pt x="1255" y="572" on="0"/>
        <pt x="1219" y="345" on="0"/>
        <pt x="1151" y="184" on="0"/>
        <pt x="1053" y="81" on="0"/>
        <pt x="928" y="22" on="0"/>
        <pt x="779" y="0" on="0"/>
        <pt x="694" y="0" on="1"/>
        <pt x="182" y="0" on="1"/>
      </contour>
      <contour>
        <pt x="629" y="223" on="1"/>
        <pt x="680" y="223" on="0"/>
        <pt x="776" y="228" on="0"/>
        <pt x="859" y="258" on="0"/>
        <pt x="928" y="319" on="0"/>
        <pt x="977" y="431" on="0"/>
        <pt x="1004" y="602" on="0"/>
        <pt x="1004" y="727" on="1"/>
        <pt x="1004" y="843" on="0"/>
        <pt x="978" y="1004" on="0"/>
        <pt x="930" y="1110" on="0"/>
        <pt x="863" y="1169" on="0"/>
        <pt x="779" y="1198" on="0"/>
        <pt x="682" y="1204" on="0"/>
        <pt x="629" y="1204" on="1"/>
        <pt x="422" y="1204" on="1"/>
        <pt x="422" y="223" on="1"/>
      </contour>
    </TTGlyph>
    <TTGlyph name="Dcaron" xMin="182" yMin="0" xMax="1255" yMax="1966">
      <component glyphName="D" x="0" y="0" flags="0x1204"/>
      <component glyphName="caron.cap" x="272" y="4" flags="0x1004"/>
    </TTGlyph>
    <TTGlyph name="Dcroat" xMin="60" yMin="0" xMax="1304" yMax="1427">
      <contour>
        <pt x="231" y="605" on="1"/>
        <pt x="60" y="605" on="1"/>
        <pt x="60" y="823" on="1"/>
        <pt x="231" y="823" on="1"/>
        <pt x="231" y="1427" on="1"/>
        <pt x="743" y="1427" on="1"/>
        <pt x="822" y="1427" on="0"/>
        <pt x="967" y="1405" on="0"/>
        <pt x="1091" y="1349" on="0"/>
        <pt x="1193" y="1249" on="0"/>
        <pt x="1265" y="1093" on="0"/>
        <pt x="1304" y="873" on="0"/>
        <pt x="1304" y="725" on="1"/>
        <pt x="1304" y="572" on="0"/>
        <pt x="1268" y="345" on="0"/>
        <pt x="1200" y="184" on="0"/>
        <pt x="1102" y="81" on="0"/>
        <pt x="977" y="22" on="0"/>
        <pt x="828" y="0" on="0"/>
        <pt x="743" y="0" on="1"/>
        <pt x="231" y="0" on="1"/>
      </contour>
      <contour>
        <pt x="678" y="223" on="1"/>
        <pt x="729" y="223" on="0"/>
        <pt x="825" y="228" on="0"/>
        <pt x="908" y="258" on="0"/>
        <pt x="977" y="319" on="0"/>
        <pt x="1026" y="431" on="0"/>
        <pt x="1053" y="602" on="0"/>
        <pt x="1053" y="727" on="1"/>
        <pt x="1053" y="843" on="0"/>
        <pt x="1027" y="1004" on="0"/>
        <pt x="979" y="1110" on="0"/>
        <pt x="912" y="1169" on="0"/>
        <pt x="828" y="1198" on="0"/>
        <pt x="731" y="1204" on="0"/>
        <pt x="678" y="1204" on="1"/>
        <pt x="471" y="1204" on="1"/>
        <pt x="471" y="823" on="1"/>
        <pt x="795" y="823" on="1"/>
        <pt x="795" y="605" on="1"/>
        <pt x="471" y="605" on="1"/>
        <pt x="471" y="223" on="1"/>
      </contour>
    </TTGlyph>
    <TTGlyph name="Delta" xMin="182" yMin="0" xMax="1333" yMax="1393">
      <contour>
        <pt x="182" y="151" on="1"/>
        <pt x="676" y="1393" on="1"/>
        <pt x="840" y="1393" on="1"/>
        <pt x="1333" y="151" on="1"/>
        <pt x="1333" y="0" on="1"/>
        <pt x="182" y="0" on="1"/>
      </contour>
      <contour>
        <pt x="1072" y="226" on="1"/>
        <pt x="766" y="984" on="1"/>
        <pt x="758" y="1014" on="1"/>
        <pt x="749" y="984" on="1"/>
        <pt x="443" y="226" on="1"/>
      </contour>
    </TTGlyph>
    <TTGlyph name="E" xMin="182" yMin="0" xMax="1057" yMax="1427">
      <contour>
        <pt x="182" y="1427" on="1"/>
        <pt x="1040" y="1427" on="1"/>
        <pt x="1040" y="1204" on="1"/>
        <pt x="422" y="1204" on="1"/>
        <pt x="422" y="829" on="1"/>
        <pt x="940" y="829" on="1"/>
        <pt x="940" y="610" on="1"/>
        <pt x="422" y="610" on="1"/>
        <pt x="422" y="223" on="1"/>
        <pt x="1057" y="223" on="1"/>
        <pt x="1057" y="0" on="1"/>
        <pt x="182" y="0" on="1"/>
      </contour>
    </TTGlyph>
    <TTGlyph name="Eacute" xMin="182" yMin="0" xMax="1057" yMax="1965">
      <component glyphName="E" x="0" y="0" flags="0x1204"/>
      <component glyphName="acute.cap" x="330" y="-40" flags="0x1004"/>
    </TTGlyph>
    <TTGlyph name="Ebreve" xMin="182" yMin="0" xMax="1057" yMax="1862">
      <component glyphName="E" x="0" y="0" flags="0x1204"/>
      <component glyphName="breve" x="236" y="332" flags="0x1004"/>
    </TTGlyph>
    <TTGlyph name="Ecaron" xMin="182" yMin="0" xMax="1057" yMax="1959">
      <component glyphName="E" x="0" y="0" flags="0x1204"/>
      <component glyphName="caron.cap" x="248" y="-3" flags="0x1004"/>
    </TTGlyph>
    <TTGlyph name="Ecircumflex" xMin="182" yMin="0" xMax="1057" yMax="1962">
      <component glyphName="E" x="0" y="0" flags="0x1204"/>
      <component glyphName="circumflex.cap" x="233" y="0" flags="0x1004"/>
    </TTGlyph>
    <TTGlyph name="Edieresis" xMin="182" yMin="0" xMax="1057" yMax="1843">
      <component glyphName="E" x="0" y="0" flags="0x1204"/>
      <component glyphName="period" x="599" y="1552" flags="0x1004"/>
      <component glyphName="period" x="134" y="1552" flags="0x1004"/>
    </TTGlyph>
    <TTGlyph name="Edotaccent" xMin="182" yMin="0" xMax="1057" yMax="1809">
      <component glyphName="E" x="0" y="0" flags="0x1204"/>
      <component glyphName="dotaccent" x="438" y="332" flags="0x1004"/>
    </TTGlyph>
    <TTGlyph name="Egrave" xMin="182" yMin="0" xMax="1057" yMax="1985">
      <component glyphName="E" x="0" y="0" flags="0x1204"/>
      <component glyphName="grave.cap" x="244" y="0" flags="0x1004"/>
    </TTGlyph>
    <TTGlyph name="Emacron" xMin="182" yMin="0" xMax="1057" yMax="1757">
      <component glyphName="E" x="0" y="0" flags="0x1204"/>
      <component glyphName="macron" x="215" y="342" flags="0x1004"/>
    </TTGlyph>
    <TTGlyph name="Eng" xMin="182" yMin="-500" xMax="1340" yMax="1427">
      <contour>
        <pt x="182" y="1427" on="1"/>
        <pt x="580" y="1427" on="1"/>
        <pt x="1100" y="223" on="1"/>
        <pt x="1105" y="223" on="1"/>
        <pt x="1104" y="259" on="0"/>
        <pt x="1103" y="296" on="1"/>
        <pt x="1102" y="328" on="0"/>
        <pt x="1102" y="402" on="0"/>
        <pt x="1102" y="436" on="1"/>
        <pt x="1102" y="1427" on="1"/>
        <pt x="1339" y="1427" on="1"/>
        <pt x="1339" y="77" on="1"/>
        <pt x="1340" y="-237" on="1"/>
        <pt x="1340" y="-313" on="0"/>
        <pt x="1305" y="-414" on="0"/>
        <pt x="1236" y="-475" on="0"/>
        <pt x="1134" y="-500" on="0"/>
        <pt x="1067" y="-500" on="1"/>
        <pt x="1019" y="-500" on="0"/>
        <pt x="933" y="-490" on="0"/>
        <pt x="900" y="-483" on="1"/>
        <pt x="861" y="-475" on="0"/>
        <pt x="828" y="-465" on="1"/>
        <pt x="828" y="-293" on="1"/>
        <pt x="851" y="-294" on="0"/>
        <pt x="876" y="-295" on="1"/>
        <pt x="897" y="-296" on="0"/>
        <pt x="945" y="-297" on="0"/>
        <pt x="967" y="-297" on="1"/>
        <pt x="1001" y="-297" on="0"/>
        <pt x="1050" y="-291" on="0"/>
        <pt x="1082" y="-265" on="0"/>
        <pt x="1098" y="-212" on="0"/>
        <pt x="1098" y="-164" on="1"/>
        <pt x="1098" y="0" on="1"/>
        <pt x="950" y="0" on="1"/>
        <pt x="510" y="1004" on="1"/>
        <pt x="492" y="1046" on="0"/>
        <pt x="460" y="1118" on="0"/>
        <pt x="449" y="1145" on="1"/>
        <pt x="435" y="1177" on="0"/>
        <pt x="424" y="1204" on="1"/>
        <pt x="420" y="1204" on="1"/>
        <pt x="420" y="0" on="1"/>
        <pt x="182" y="0" on="1"/>
      </contour>
    </TTGlyph>
    <TTGlyph name="Eogonek" xMin="182" yMin="-500" xMax="1057" yMax="1427">
      <contour>
        <pt x="182" y="1427" on="1"/>
        <pt x="1040" y="1427" on="1"/>
        <pt x="1040" y="1204" on="1"/>
        <pt x="422" y="1204" on="1"/>
        <pt x="422" y="829" on="1"/>
        <pt x="940" y="829" on="1"/>
        <pt x="940" y="610" on="1"/>
        <pt x="422" y="610" on="1"/>
        <pt x="422" y="223" on="1"/>
        <pt x="1057" y="223" on="1"/>
        <pt x="1057" y="0" on="1"/>
        <pt x="963" y="-60" on="0"/>
        <pt x="885" y="-174" on="0"/>
        <pt x="885" y="-225" on="1"/>
        <pt x="885" y="-267" on="0"/>
        <pt x="934" y="-317" on="0"/>
        <pt x="985" y="-317" on="1"/>
        <pt x="1014" y="-317" on="0"/>
        <pt x="1034" y="-314" on="1"/>
        <pt x="1045" y="-313" on="0"/>
        <pt x="1055" y="-311" on="1"/>
        <pt x="1055" y="-479" on="1"/>
        <pt x="1035" y="-486" on="0"/>
        <pt x="1013" y="-490" on="1"/>
        <pt x="993" y="-494" on="0"/>
        <pt x="944" y="-500" on="0"/>
        <pt x="915" y="-500" on="1"/>
        <pt x="862" y="-500" on="0"/>
        <pt x="770" y="-472" on="0"/>
        <pt x="702" y="-417" on="0"/>
        <pt x="663" y="-334" on="0"/>
        <pt x="663" y="-279" on="1"/>
        <pt x="663" y="-235" on="0"/>
        <pt x="687" y="-155" on="0"/>
        <pt x="725" y="-84" on="0"/>
        <pt x="772" y="-24" on="0"/>
        <pt x="795" y="0" on="1"/>
        <pt x="182" y="0" on="1"/>
      </contour>
    </TTGlyph>
    <TTGlyph name="Eth" xMin="60" yMin="0" xMax="1304" yMax="1427">
      <contour>
        <pt x="231" y="605" on="1"/>
        <pt x="60" y="605" on="1"/>
        <pt x="60" y="823" on="1"/>
        <pt x="231" y="823" on="1"/>
        <pt x="231" y="1427" on="1"/>
        <pt x="743" y="1427" on="1"/>
        <pt x="822" y="1427" on="0"/>
        <pt x="967" y="1405" on="0"/>
        <pt x="1091" y="1349" on="0"/>
        <pt x="1193" y="1249" on="0"/>
        <pt x="1265" y="1093" on="0"/>
        <pt x="1304" y="873" on="0"/>
        <pt x="1304" y="725" on="1"/>
        <pt x="1304" y="572" on="0"/>
        <pt x="1268" y="345" on="0"/>
        <pt x="1200" y="184" on="0"/>
        <pt x="1102" y="81" on="0"/>
        <pt x="977" y="22" on="0"/>
        <pt x="828" y="0" on="0"/>
        <pt x="743" y="0" on="1"/>
        <pt x="231" y="0" on="1"/>
      </contour>
      <contour>
        <pt x="678" y="223" on="1"/>
        <pt x="729" y="223" on="0"/>
        <pt x="825" y="228" on="0"/>
        <pt x="908" y="258" on="0"/>
        <pt x="977" y="319" on="0"/>
        <pt x="1026" y="431" on="0"/>
        <pt x="1053" y="602" on="0"/>
        <pt x="1053" y="727" on="1"/>
        <pt x="1053" y="843" on="0"/>
        <pt x="1027" y="1004" on="0"/>
        <pt x="979" y="1110" on="0"/>
        <pt x="912" y="1169" on="0"/>
        <pt x="828" y="1198" on="0"/>
        <pt x="731" y="1204" on="0"/>
        <pt x="678" y="1204" on="1"/>
        <pt x="471" y="1204" on="1"/>
        <pt x="471" y="823" on="1"/>
        <pt x="795" y="823" on="1"/>
        <pt x="795" y="605" on="1"/>
        <pt x="471" y="605" on="1"/>
        <pt x="471" y="223" on="1"/>
      </contour>
    </TTGlyph>
    <TTGlyph name="Euro" xMin="72" yMin="-31" xMax="1182" yMax="1456">
      <contour>
        <pt x="72" y="641" on="1"/>
        <pt x="215" y="641" on="1"/>
        <pt x="214" y="661" on="0"/>
        <pt x="213" y="703" on="0"/>
        <pt x="213" y="725" on="1"/>
        <pt x="213" y="777" on="0"/>
        <pt x="216" y="825" on="1"/>
        <pt x="72" y="825" on="1"/>
        <pt x="72" y="999" on="1"/>
        <pt x="240" y="999" on="1"/>
        <pt x="260" y="1090" on="0"/>
        <pt x="328" y="1228" on="0"/>
        <pt x="414" y="1330" on="0"/>
        <pt x="516" y="1398" on="0"/>
        <pt x="626" y="1439" on="0"/>
        <pt x="740" y="1456" on="0"/>
        <pt x="795" y="1456" on="1"/>
        <pt x="895" y="1456" on="0"/>
        <pt x="1037" y="1434" on="0"/>
        <pt x="1083" y="1421" on="1"/>
        <pt x="1137" y="1405" on="0"/>
        <pt x="1172" y="1386" on="1"/>
        <pt x="1172" y="1206" on="1"/>
        <pt x="1131" y="1213" on="0"/>
        <pt x="1084" y="1219" on="1"/>
        <pt x="1044" y="1224" on="0"/>
        <pt x="940" y="1233" on="0"/>
        <pt x="885" y="1233" on="1"/>
        <pt x="815" y="1233" on="0"/>
        <pt x="692" y="1220" on="0"/>
        <pt x="593" y="1173" on="0"/>
        <pt x="518" y="1080" on="0"/>
        <pt x="496" y="999" on="1"/>
        <pt x="1032" y="999" on="1"/>
        <pt x="1032" y="825" on="1"/>
        <pt x="470" y="825" on="1"/>
        <pt x="467" y="778" on="0"/>
        <pt x="467" y="727" on="1"/>
        <pt x="467" y="704" on="0"/>
        <pt x="467" y="661" on="0"/>
        <pt x="469" y="641" on="1"/>
        <pt x="1032" y="641" on="1"/>
        <pt x="1032" y="466" on="1"/>
        <pt x="490" y="466" on="1"/>
        <pt x="511" y="372" on="0"/>
        <pt x="587" y="263" on="0"/>
        <pt x="690" y="208" on="0"/>
        <pt x="817" y="193" on="0"/>
        <pt x="889" y="193" on="1"/>
        <pt x="955" y="193" on="0"/>
        <pt x="1062" y="201" on="0"/>
        <pt x="1101" y="206" on="1"/>
        <pt x="1146" y="211" on="0"/>
        <pt x="1182" y="219" on="1"/>
        <pt x="1182" y="37" on="1"/>
        <pt x="1139" y="18" on="0"/>
        <pt x="1078" y="3" on="1"/>
        <pt x="1026" y="-10" on="0"/>
        <pt x="874" y="-31" on="0"/>
        <pt x="774" y="-31" on="1"/>
        <pt x="685" y="-31" on="0"/>
        <pt x="513" y="13" on="0"/>
        <pt x="368" y="125" on="0"/>
        <pt x="259" y="317" on="0"/>
        <pt x="233" y="466" on="1"/>
        <pt x="72" y="466" on="1"/>
      </contour>
    </TTGlyph>
    <TTGlyph name="F" xMin="182" yMin="0" xMax="1040" yMax="1427">
      <contour>
        <pt x="182" y="1427" on="1"/>
        <pt x="1040" y="1427" on="1"/>
        <pt x="1040" y="1204" on="1"/>
        <pt x="422" y="1204" on="1"/>
        <pt x="422" y="774" on="1"/>
        <pt x="963" y="774" on="1"/>
        <pt x="963" y="551" on="1"/>
        <pt x="422" y="551" on="1"/>
        <pt x="422" y="0" on="1"/>
        <pt x="182" y="0" on="1"/>
      </contour>
    </TTGlyph>
    <TTGlyph name="G" xMin="115" yMin="-31" xMax="1217" yMax="1456">
      <contour>
        <pt x="115" y="727" on="1"/>
        <pt x="115" y="932" on="0"/>
        <pt x="204" y="1211" on="0"/>
        <pt x="369" y="1382" on="0"/>
        <pt x="601" y="1456" on="0"/>
        <pt x="745" y="1456" on="1"/>
        <pt x="842" y="1456" on="0"/>
        <pt x="995" y="1436" on="0"/>
        <pt x="1050" y="1424" on="1"/>
        <pt x="1113" y="1410" on="0"/>
        <pt x="1163" y="1393" on="1"/>
        <pt x="1163" y="1212" on="1"/>
        <pt x="1109" y="1218" on="0"/>
        <pt x="1047" y="1222" on="1"/>
        <pt x="994" y="1226" on="0"/>
        <pt x="858" y="1233" on="0"/>
        <pt x="786" y="1233" on="1"/>
        <pt x="661" y="1233" on="0"/>
        <pt x="497" y="1180" on="0"/>
        <pt x="401" y="1060" on="0"/>
        <pt x="362" y="867" on="0"/>
        <pt x="362" y="727" on="1"/>
        <pt x="362" y="584" on="0"/>
        <pt x="403" y="381" on="0"/>
        <pt x="497" y="251" on="0"/>
        <pt x="651" y="190" on="0"/>
        <pt x="764" y="190" on="1"/>
        <pt x="813" y="190" on="0"/>
        <pt x="893" y="196" on="0"/>
        <pt x="921" y="201" on="1"/>
        <pt x="954" y="206" on="0"/>
        <pt x="979" y="213" on="1"/>
        <pt x="979" y="580" on="1"/>
        <pt x="719" y="580" on="1"/>
        <pt x="719" y="799" on="1"/>
        <pt x="1217" y="799" on="1"/>
        <pt x="1217" y="68" on="1"/>
        <pt x="1158" y="40" on="0"/>
        <pt x="1088" y="18" on="1"/>
        <pt x="1028" y="-1" on="0"/>
        <pt x="865" y="-31" on="0"/>
        <pt x="770" y="-31" on="1"/>
        <pt x="615" y="-31" on="0"/>
        <pt x="372" y="39" on="0"/>
        <pt x="204" y="213" on="0"/>
        <pt x="115" y="505" on="0"/>
      </contour>
    </TTGlyph>
    <TTGlyph name="Gbreve" xMin="115" yMin="-31" xMax="1217" yMax="1882">
      <component glyphName="G" x="0" y="0" flags="0x1204"/>
      <component glyphName="breve" x="313" y="352" flags="0x1004"/>
    </TTGlyph>
    <TTGlyph name="Gcircumflex" xMin="115" yMin="-31" xMax="1217" yMax="1962">
      <component glyphName="G" x="0" y="0" flags="0x1204"/>
      <component glyphName="circumflex.cap" x="352" y="0" flags="0x1004"/>
    </TTGlyph>
    <TTGlyph name="Gcommaaccent" xMin="115" yMin="-500" xMax="1217" yMax="1456">
      <component glyphName="G" x="0" y="0" flags="0x1204"/>
      <component glyphName="commaaccent" x="519" y="0" flags="0x1004"/>
    </TTGlyph>
    <TTGlyph name="Gdotaccent" xMin="115" yMin="-31" xMax="1217" yMax="1842">
      <component glyphName="G" x="0" y="0" flags="0x1204"/>
      <component glyphName="dotaccent" x="545" y="365" flags="0x1004"/>
    </TTGlyph>
    <TTGlyph name="H" xMin="182" yMin="0" xMax="1274" yMax="1427">
      <contour>
        <pt x="182" y="1427" on="1"/>
        <pt x="422" y="1427" on="1"/>
        <pt x="422" y="836" on="1"/>
        <pt x="1034" y="836" on="1"/>
        <pt x="1034" y="1427" on="1"/>
        <pt x="1274" y="1427" on="1"/>
        <pt x="1274" y="0" on="1"/>
        <pt x="1034" y="0" on="1"/>
        <pt x="1034" y="612" on="1"/>
        <pt x="422" y="612" on="1"/>
        <pt x="422" y="0" on="1"/>
        <pt x="182" y="0" on="1"/>
      </contour>
    </TTGlyph>
    <TTGlyph name="Hbar" xMin="0" yMin="0" xMax="1491" yMax="1427">
      <contour>
        <pt x="215" y="1016" on="1"/>
        <pt x="0" y="1016" on="1"/>
        <pt x="0" y="1182" on="1"/>
        <pt x="215" y="1182" on="1"/>
        <pt x="215" y="1427" on="1"/>
        <pt x="455" y="1427" on="1"/>
        <pt x="455" y="1182" on="1"/>
        <pt x="1067" y="1182" on="1"/>
        <pt x="1067" y="1427" on="1"/>
        <pt x="1307" y="1427" on="1"/>
        <pt x="1307" y="1182" on="1"/>
        <pt x="1491" y="1182" on="1"/>
        <pt x="1491" y="1016" on="1"/>
        <pt x="1307" y="1016" on="1"/>
        <pt x="1307" y="0" on="1"/>
        <pt x="1067" y="0" on="1"/>
        <pt x="1067" y="612" on="1"/>
        <pt x="455" y="612" on="1"/>
        <pt x="455" y="0" on="1"/>
        <pt x="215" y="0" on="1"/>
      </contour>
      <contour>
        <pt x="1067" y="836" on="1"/>
        <pt x="1067" y="1016" on="1"/>
        <pt x="455" y="1016" on="1"/>
        <pt x="455" y="836" on="1"/>
      </contour>
    </TTGlyph>
    <TTGlyph name="Hcircumflex" xMin="182" yMin="0" xMax="1274" yMax="1962">
      <component glyphName="H" x="0" y="0" flags="0x1204"/>
      <component glyphName="circumflex.cap" x="336" y="0" flags="0x1004"/>
    </TTGlyph>
    <TTGlyph name="I" xMin="182" yMin="0" xMax="422" yMax="1427">
      <contour>
        <pt x="182" y="1427" on="1"/>
        <pt x="422" y="1427" on="1"/>
        <pt x="422" y="0" on="1"/>
        <pt x="182" y="0" on="1"/>
      </contour>
    </TTGlyph>
    <TTGlyph name="IJ" xMin="182" yMin="-25" xMax="1127" yMax="1427">
      <component glyphName="I" x="0" y="0" flags="0x1004"/>
      <component glyphName="J" x="601" y="0" flags="0x1004"/>
    </TTGlyph>
    <TTGlyph name="Iacute" xMin="70" yMin="0" xMax="627" yMax="1986">
      <component glyphName="I" x="15" y="0" flags="0x1004"/>
      <component glyphName="acute.cap" x="9" y="-19" flags="0x1004"/>
    </TTGlyph>
    <TTGlyph name="Ibreve" xMin="-41" yMin="0" xMax="646" yMax="1903">
      <component glyphName="I" x="0" y="0" flags="0x1004"/>
      <component glyphName="breve" x="-102" y="373" flags="0x1004"/>
    </TTGlyph>
    <TTGlyph name="Icircumflex" xMin="-24" yMin="0" xMax="636" yMax="1943">
      <component glyphName="I" x="2" y="0" flags="0x1004"/>
      <component glyphName="circumflex.cap" x="-85" y="-19" flags="0x1004"/>
    </TTGlyph>
    <TTGlyph name="Idieresis" xMin="-79" yMin="0" xMax="691" yMax="1843">
      <component glyphName="I" x="0" y="0" flags="0x1004"/>
      <component glyphName="period" x="282" y="1552" flags="0x1004"/>
      <component glyphName="period" x="-182" y="1552" flags="0x1004"/>
    </TTGlyph>
    <TTGlyph name="Idotaccent" xMin="182" yMin="0" xMax="455" yMax="1842">
      <component glyphName="I" x="17" y="0" flags="0x1004"/>
      <component glyphName="dotaccent" x="121" y="365" flags="0x1004"/>
    </TTGlyph>
    <TTGlyph name="Igrave" xMin="-13" yMin="0" xMax="543" yMax="1966">
      <component glyphName="I" x="10" y="0" flags="0x1004"/>
      <component glyphName="grave.cap" x="-75" y="-19" flags="0x1004"/>
    </TTGlyph>
    <TTGlyph name="Imacron" xMin="-44" yMin="0" xMax="661" yMax="1767">
      <component glyphName="I" x="5" y="0" flags="0x1004"/>
      <component glyphName="macron" x="-105" y="352" flags="0x1004"/>
    </TTGlyph>
    <TTGlyph name="Iogonek" xMin="65" yMin="-500" xMax="459" yMax="1427">
      <contour>
        <pt x="219" y="1427" on="1"/>
        <pt x="459" y="1427" on="1"/>
        <pt x="459" y="0" on="1"/>
        <pt x="365" y="-60" on="0"/>
        <pt x="287" y="-174" on="0"/>
        <pt x="287" y="-225" on="1"/>
        <pt x="287" y="-267" on="0"/>
        <pt x="336" y="-317" on="0"/>
        <pt x="387" y="-317" on="1"/>
        <pt x="416" y="-317" on="0"/>
        <pt x="436" y="-314" on="1"/>
        <pt x="447" y="-313" on="0"/>
        <pt x="457" y="-311" on="1"/>
        <pt x="457" y="-479" on="1"/>
        <pt x="437" y="-486" on="0"/>
        <pt x="415" y="-490" on="1"/>
        <pt x="395" y="-494" on="0"/>
        <pt x="346" y="-500" on="0"/>
        <pt x="317" y="-500" on="1"/>
        <pt x="264" y="-500" on="0"/>
        <pt x="172" y="-472" on="0"/>
        <pt x="104" y="-417" on="0"/>
        <pt x="65" y="-334" on="0"/>
        <pt x="65" y="-279" on="1"/>
        <pt x="65" y="-230" on="0"/>
        <pt x="94" y="-141" on="0"/>
        <pt x="139" y="-65" on="0"/>
        <pt x="194" y="-2" on="0"/>
        <pt x="219" y="21" on="1"/>
      </contour>
    </TTGlyph>
    <TTGlyph name="Itilde" xMin="-99" yMin="0" xMax="717" yMax="1826">
      <component glyphName="I" x="6" y="0" flags="0x1004"/>
      <component glyphName="tilde.cap" x="-160" y="0" flags="0x1004"/>
    </TTGlyph>
    <TTGlyph name="J" xMin="14" yMin="-25" xMax="526" yMax="1427">
      <contour>
        <pt x="14" y="182" on="1"/>
        <pt x="37" y="181" on="0"/>
        <pt x="62" y="180" on="1"/>
        <pt x="83" y="179" on="0"/>
        <pt x="131" y="178" on="0"/>
        <pt x="153" y="178" on="1"/>
        <pt x="187" y="178" on="0"/>
        <pt x="236" y="184" on="0"/>
        <pt x="268" y="210" on="0"/>
        <pt x="284" y="263" on="0"/>
        <pt x="284" y="311" on="1"/>
        <pt x="284" y="1427" on="1"/>
        <pt x="525" y="1427" on="1"/>
        <pt x="526" y="238" on="1"/>
        <pt x="526" y="162" on="0"/>
        <pt x="491" y="61" on="0"/>
        <pt x="422" y="0" on="0"/>
        <pt x="320" y="-25" on="0"/>
        <pt x="253" y="-25" on="1"/>
        <pt x="205" y="-25" on="0"/>
        <pt x="119" y="-15" on="0"/>
        <pt x="86" y="-8" on="1"/>
        <pt x="47" y="0" on="0"/>
        <pt x="14" y="10" on="1"/>
      </contour>
    </TTGlyph>
    <TTGlyph name="Jcircumflex" xMin="65" yMin="-25" xMax="761" yMax="1889">
      <component glyphName="J" x="51" y="0" flags="0x1004"/>
      <component glyphName="circumflex.cap" x="40" y="-73" flags="0x1004"/>
    </TTGlyph>
    <TTGlyph name="K" xMin="182" yMin="0" xMax="1275" yMax="1427">
      <contour>
        <pt x="182" y="1427" on="1"/>
        <pt x="422" y="1427" on="1"/>
        <pt x="422" y="844" on="1"/>
        <pt x="642" y="844" on="1"/>
        <pt x="975" y="1427" on="1"/>
        <pt x="1252" y="1427" on="1"/>
        <pt x="854" y="737" on="1"/>
        <pt x="1275" y="0" on="1"/>
        <pt x="994" y="0" on="1"/>
        <pt x="642" y="621" on="1"/>
        <pt x="422" y="621" on="1"/>
        <pt x="422" y="0" on="1"/>
        <pt x="182" y="0" on="1"/>
      </contour>
    </TTGlyph>
    <TTGlyph name="Kcommaaccent" xMin="182" yMin="-500" xMax="1275" yMax="1427">
      <component glyphName="K" x="0" y="0" flags="0x1204"/>
      <component glyphName="commaaccent" x="419" y="0" flags="0x1004"/>
    </TTGlyph>
    <TTGlyph name="L" xMin="182" yMin="0" xMax="1012" yMax="1427">
      <contour>
        <pt x="182" y="1427" on="1"/>
        <pt x="422" y="1427" on="1"/>
        <pt x="422" y="223" on="1"/>
        <pt x="1012" y="223" on="1"/>
        <pt x="1012" y="0" on="1"/>
        <pt x="182" y="0" on="1"/>
      </contour>
    </TTGlyph>
    <TTGlyph name="Lacute" xMin="182" yMin="0" xMax="1031" yMax="1965">
      <component glyphName="L" x="19" y="0" flags="0x1004"/>
      <component glyphName="acute.cap" x="121" y="-40" flags="0x1004"/>
    </TTGlyph>
    <TTGlyph name="Lcaron" xMin="182" yMin="0" xMax="1012" yMax="1481">
      <contour>
        <pt x="598" y="1481" on="1"/>
        <pt x="618" y="1479" on="0"/>
        <pt x="640" y="1476" on="1"/>
        <pt x="659" y="1473" on="0"/>
        <pt x="703" y="1465" on="0"/>
        <pt x="725" y="1458" on="1"/>
        <pt x="765" y="1444" on="0"/>
        <pt x="805" y="1412" on="0"/>
        <pt x="805" y="1382" on="1"/>
        <pt x="805" y="1343" on="0"/>
        <pt x="770" y="1270" on="1"/>
        <pt x="764" y="1255" on="0"/>
        <pt x="744" y="1213" on="0"/>
        <pt x="721" y="1164" on="0"/>
        <pt x="695" y="1110" on="0"/>
        <pt x="683" y="1085" on="1"/>
        <pt x="654" y="1025" on="0"/>
        <pt x="621" y="958" on="1"/>
        <pt x="473" y="1007" on="1"/>
      </contour>
      <contour>
        <pt x="182" y="1427" on="1"/>
        <pt x="422" y="1427" on="1"/>
        <pt x="422" y="223" on="1"/>
        <pt x="1012" y="223" on="1"/>
        <pt x="1012" y="0" on="1"/>
        <pt x="182" y="0" on="1"/>
      </contour>
    </TTGlyph>
    <TTGlyph name="Lcommaaccent" xMin="182" yMin="-500" xMax="1012" yMax="1427">
      <component glyphName="L" x="0" y="0" flags="0x1204"/>
      <component glyphName="commaaccent" x="374" y="0" flags="0x1004"/>
    </TTGlyph>
    <TTGlyph name="Ldot" xMin="182" yMin="0" xMax="1012" yMax="1427">
      <component glyphName="L" x="0" y="0" flags="0x1004"/>
      <component glyphName="period" x="535" y="662" flags="0x1004"/>
    </TTGlyph>
    <TTGlyph name="Lslash" xMin="123" yMin="0" xMax="1112" yMax="1427">
      <contour>
        <pt x="283" y="453" on="1"/>
        <pt x="123" y="352" on="1"/>
        <pt x="123" y="602" on="1"/>
        <pt x="283" y="702" on="1"/>
        <pt x="283" y="1427" on="1"/>
        <pt x="520" y="1427" on="1"/>
        <pt x="520" y="829" on="1"/>
        <pt x="850" y="1047" on="1"/>
        <pt x="850" y="793" on="1"/>
        <pt x="520" y="578" on="1"/>
        <pt x="520" y="229" on="1"/>
        <pt x="1112" y="229" on="1"/>
        <pt x="1112" y="0" on="1"/>
        <pt x="283" y="0" on="1"/>
      </contour>
    </TTGlyph>
    <TTGlyph name="M" xMin="182" yMin="0" xMax="1552" yMax="1427">
      <contour>
        <pt x="182" y="1427" on="1"/>
        <pt x="598" y="1427" on="1"/>
        <pt x="862" y="567" on="1"/>
        <pt x="870" y="567" on="1"/>
        <pt x="1143" y="1427" on="1"/>
        <pt x="1552" y="1427" on="1"/>
        <pt x="1552" y="0" on="1"/>
        <pt x="1313" y="0" on="1"/>
        <pt x="1313" y="1204" on="1"/>
        <pt x="1307" y="1204" on="1"/>
        <pt x="1280" y="1114" on="1"/>
        <pt x="1269" y="1076" on="0"/>
        <pt x="1243" y="993" on="0"/>
        <pt x="1233" y="963" on="1"/>
        <pt x="1049" y="387" on="1"/>
        <pt x="690" y="387" on="1"/>
        <pt x="502" y="967" on="1"/>
        <pt x="492" y="997" on="0"/>
        <pt x="466" y="1078" on="0"/>
        <pt x="455" y="1115" on="1"/>
        <pt x="442" y="1158" on="0"/>
        <pt x="428" y="1204" on="1"/>
        <pt x="422" y="1204" on="1"/>
        <pt x="422" y="0" on="1"/>
        <pt x="182" y="0" on="1"/>
      </contour>
    </TTGlyph>
    <TTGlyph name="N" xMin="182" yMin="0" xMax="1339" yMax="1427">
      <contour>
        <pt x="182" y="1427" on="1"/>
        <pt x="580" y="1427" on="1"/>
        <pt x="1100" y="223" on="1"/>
        <pt x="1105" y="223" on="1"/>
        <pt x="1104" y="259" on="0"/>
        <pt x="1103" y="296" on="1"/>
        <pt x="1102" y="328" on="0"/>
        <pt x="1102" y="402" on="0"/>
        <pt x="1102" y="436" on="1"/>
        <pt x="1102" y="1427" on="1"/>
        <pt x="1339" y="1427" on="1"/>
        <pt x="1339" y="0" on="1"/>
        <pt x="950" y="0" on="1"/>
        <pt x="510" y="1004" on="1"/>
        <pt x="492" y="1046" on="0"/>
        <pt x="460" y="1118" on="0"/>
        <pt x="449" y="1145" on="1"/>
        <pt x="435" y="1177" on="0"/>
        <pt x="424" y="1204" on="1"/>
        <pt x="420" y="1204" on="1"/>
        <pt x="420" y="0" on="1"/>
        <pt x="182" y="0" on="1"/>
      </contour>
    </TTGlyph>
    <TTGlyph name="Nacute" xMin="182" yMin="0" xMax="1339" yMax="2005">
      <component glyphName="N" x="0" y="0" flags="0x1204"/>
      <component glyphName="acute.cap" x="481" y="0" flags="0x1004"/>
    </TTGlyph>
    <TTGlyph name="Ncaron" xMin="182" yMin="0" xMax="1339" yMax="1932">
      <component glyphName="N" x="0" y="0" flags="0x1204"/>
      <component glyphName="caron.cap" x="430" y="-30" flags="0x1004"/>
    </TTGlyph>
    <TTGlyph name="Ncommaaccent" xMin="182" yMin="-500" xMax="1339" yMax="1427">
      <component glyphName="N" x="0" y="0" flags="0x1204"/>
      <component glyphName="commaaccent" x="536" y="0" flags="0x1004"/>
    </TTGlyph>
    <TTGlyph name="Ntilde" xMin="182" yMin="0" xMax="1339" yMax="1867">
      <component glyphName="N" x="0" y="0" flags="0x1204"/>
      <component glyphName="tilde.cap" x="311" y="41" flags="0x1004"/>
    </TTGlyph>
    <TTGlyph name="O" xMin="115" yMin="-31" xMax="1286" yMax="1456">
      <contour>
        <pt x="702" y="-31" on="1"/>
        <pt x="610" y="-31" on="0"/>
        <pt x="452" y="-5" on="0"/>
        <pt x="322" y="60" on="0"/>
        <pt x="221" y="168" on="0"/>
        <pt x="151" y="333" on="0"/>
        <pt x="115" y="559" on="0"/>
        <pt x="115" y="709" on="1"/>
        <pt x="115" y="934" on="0"/>
        <pt x="195" y="1224" on="0"/>
        <pt x="347" y="1391" on="0"/>
        <pt x="565" y="1456" on="0"/>
        <pt x="702" y="1456" on="1"/>
        <pt x="793" y="1456" on="0"/>
        <pt x="951" y="1428" on="0"/>
        <pt x="1081" y="1362" on="0"/>
        <pt x="1181" y="1251" on="0"/>
        <pt x="1250" y="1085" on="0"/>
        <pt x="1286" y="858" on="0"/>
        <pt x="1286" y="709" on="1"/>
        <pt x="1286" y="560" on="0"/>
        <pt x="1250" y="334" on="0"/>
        <pt x="1181" y="169" on="0"/>
        <pt x="1081" y="60" on="0"/>
        <pt x="951" y="-4" on="0"/>
        <pt x="793" y="-31" on="0"/>
      </contour>
      <contour>
        <pt x="702" y="190" on="1"/>
        <pt x="800" y="190" on="0"/>
        <pt x="929" y="236" on="0"/>
        <pt x="1005" y="353" on="0"/>
        <pt x="1036" y="554" on="0"/>
        <pt x="1036" y="709" on="1"/>
        <pt x="1036" y="865" on="0"/>
        <pt x="1005" y="1067" on="0"/>
        <pt x="929" y="1186" on="0"/>
        <pt x="800" y="1233" on="0"/>
        <pt x="702" y="1233" on="1"/>
        <pt x="604" y="1233" on="0"/>
        <pt x="474" y="1186" on="0"/>
        <pt x="398" y="1067" on="0"/>
        <pt x="367" y="865" on="0"/>
        <pt x="367" y="709" on="1"/>
        <pt x="367" y="554" on="0"/>
        <pt x="398" y="353" on="0"/>
        <pt x="474" y="236" on="0"/>
        <pt x="604" y="190" on="0"/>
      </contour>
    </TTGlyph>
    <TTGlyph name="OE" xMin="115" yMin="-16" xMax="1876" yMax="1446">
      <contour>
        <pt x="672" y="-16" on="1"/>
        <pt x="606" y="-16" on="0"/>
        <pt x="471" y="8" on="0"/>
        <pt x="347" y="71" on="0"/>
        <pt x="240" y="178" on="0"/>
        <pt x="161" y="342" on="0"/>
        <pt x="115" y="571" on="0"/>
        <pt x="115" y="725" on="1"/>
        <pt x="115" y="873" on="0"/>
        <pt x="163" y="1096" on="0"/>
        <pt x="246" y="1256" on="0"/>
        <pt x="355" y="1360" on="0"/>
        <pt x="479" y="1422" on="0"/>
        <pt x="610" y="1446" on="0"/>
        <pt x="672" y="1446" on="1"/>
        <pt x="726" y="1446" on="0"/>
        <pt x="844" y="1440" on="0"/>
        <pt x="894" y="1436" on="1"/>
        <pt x="952" y="1432" on="0"/>
        <pt x="1008" y="1427" on="1"/>
        <pt x="1860" y="1427" on="1"/>
        <pt x="1860" y="1204" on="1"/>
        <pt x="1241" y="1204" on="1"/>
        <pt x="1241" y="829" on="1"/>
        <pt x="1759" y="829" on="1"/>
        <pt x="1759" y="610" on="1"/>
        <pt x="1241" y="610" on="1"/>
        <pt x="1241" y="223" on="1"/>
        <pt x="1876" y="223" on="1"/>
        <pt x="1876" y="0" on="1"/>
        <pt x="1001" y="0" on="1"/>
        <pt x="947" y="-4" on="0"/>
        <pt x="891" y="-8" on="1"/>
        <pt x="843" y="-11" on="0"/>
        <pt x="726" y="-16" on="0"/>
      </contour>
      <contour>
        <pt x="1001" y="205" on="1"/>
        <pt x="1001" y="1217" on="1"/>
        <pt x="959" y="1220" on="0"/>
        <pt x="847" y="1221" on="0"/>
        <pt x="782" y="1221" on="1"/>
        <pt x="731" y="1221" on="0"/>
        <pt x="630" y="1214" on="0"/>
        <pt x="537" y="1183" on="0"/>
        <pt x="457" y="1120" on="0"/>
        <pt x="398" y="1010" on="0"/>
        <pt x="365" y="845" on="0"/>
        <pt x="365" y="727" on="1"/>
        <pt x="365" y="602" on="0"/>
        <pt x="399" y="428" on="0"/>
        <pt x="459" y="312" on="0"/>
        <pt x="539" y="246" on="0"/>
        <pt x="633" y="213" on="0"/>
        <pt x="735" y="205" on="0"/>
        <pt x="786" y="205" on="1"/>
      </contour>
    </TTGlyph>
    <TTGlyph name="Oacute" xMin="115" yMin="-31" xMax="1286" yMax="2005">
      <component glyphName="O" x="0" y="0" flags="0x1204"/>
      <component glyphName="acute.cap" x="356" y="0" flags="0x1004"/>
    </TTGlyph>
    <TTGlyph name="Obreve" xMin="115" yMin="-31" xMax="1286" yMax="1903">
      <component glyphName="O" x="0" y="0" flags="0x1204"/>
      <component glyphName="breve" x="295" y="373" flags="0x1004"/>
    </TTGlyph>
    <TTGlyph name="Ocircumflex" xMin="115" yMin="-31" xMax="1286" yMax="1962">
      <component glyphName="O" x="0" y="0" flags="0x1204"/>
      <component glyphName="circumflex.cap" x="309" y="0" flags="0x1004"/>
    </TTGlyph>
    <TTGlyph name="Odieresis" xMin="115" yMin="-31" xMax="1286" yMax="1843">
      <component glyphName="O" x="0" y="0" flags="0x1204"/>
      <component glyphName="period" x="685" y="1552" flags="0x1004"/>
      <component glyphName="period" x="220" y="1552" flags="0x1004"/>
    </TTGlyph>
    <TTGlyph name="Ograve" xMin="115" yMin="-31" xMax="1286" yMax="1985">
      <component glyphName="O" x="0" y="0" flags="0x1204"/>
      <component glyphName="grave.cap" x="369" y="0" flags="0x1004"/>
    </TTGlyph>
    <TTGlyph name="Ohungarumlaut" xMin="115" yMin="-31" xMax="1286" yMax="2056">
      <component glyphName="O" x="0" y="0" flags="0x1204"/>
      <component glyphName="hungarumlaut.cap" x="254" y="2" flags="0x1004"/>
    </TTGlyph>
    <TTGlyph name="Omacron" xMin="115" yMin="-31" xMax="1286" yMax="1771">
      <component glyphName="O" x="0" y="0" flags="0x1204"/>
      <component glyphName="macron" x="272" y="356" flags="0x1004"/>
    </TTGlyph>
    <TTGlyph name="Omega" xMin="160" yMin="-3" xMax="1522" yMax="1394">
      <contour>
        <pt x="160" y="224" on="1"/>
        <pt x="400" y="224" on="1"/>
        <pt x="355" y="272" on="0"/>
        <pt x="280" y="385" on="0"/>
        <pt x="225" y="512" on="0"/>
        <pt x="194" y="651" on="0"/>
        <pt x="194" y="726" on="1"/>
        <pt x="194" y="888" on="0"/>
        <pt x="276" y="1137" on="0"/>
        <pt x="437" y="1306" on="0"/>
        <pt x="676" y="1394" on="0"/>
        <pt x="834" y="1394" on="1"/>
        <pt x="992" y="1394" on="0"/>
        <pt x="1236" y="1306" on="0"/>
        <pt x="1403" y="1137" on="0"/>
        <pt x="1489" y="888" on="0"/>
        <pt x="1489" y="726" on="1"/>
        <pt x="1489" y="651" on="0"/>
        <pt x="1458" y="512" on="0"/>
        <pt x="1403" y="385" on="0"/>
        <pt x="1328" y="272" on="0"/>
        <pt x="1283" y="224" on="1"/>
        <pt x="1522" y="224" on="1"/>
        <pt x="1522" y="0" on="1"/>
        <pt x="943" y="0" on="1"/>
        <pt x="934" y="-3" on="1"/>
        <pt x="934" y="138" on="1"/>
        <pt x="1025" y="213" on="0"/>
        <pt x="1151" y="356" on="0"/>
        <pt x="1230" y="500" on="0"/>
        <pt x="1265" y="647" on="0"/>
        <pt x="1265" y="727" on="1"/>
        <pt x="1265" y="823" on="0"/>
        <pt x="1225" y="989" on="0"/>
        <pt x="1127" y="1112" on="0"/>
        <pt x="961" y="1182" on="0"/>
        <pt x="834" y="1182" on="1"/>
        <pt x="708" y="1182" on="0"/>
        <pt x="546" y="1112" on="0"/>
        <pt x="453" y="989" on="0"/>
        <pt x="417" y="823" on="0"/>
        <pt x="417" y="727" on="1"/>
        <pt x="417" y="647" on="0"/>
        <pt x="453" y="500" on="0"/>
        <pt x="532" y="356" on="0"/>
        <pt x="658" y="213" on="0"/>
        <pt x="749" y="138" on="1"/>
        <pt x="749" y="-3" on="1"/>
        <pt x="739" y="0" on="1"/>
        <pt x="160" y="0" on="1"/>
      </contour>
    </TTGlyph>
    <TTGlyph name="Oslash" xMin="140" yMin="-172" xMax="1311" yMax="1595">
      <contour>
        <pt x="326" y="85" on="1"/>
        <pt x="281" y="124" on="0"/>
        <pt x="212" y="237" on="0"/>
        <pt x="164" y="390" on="0"/>
        <pt x="140" y="586" on="0"/>
        <pt x="140" y="709" on="1"/>
        <pt x="140" y="934" on="0"/>
        <pt x="220" y="1224" on="0"/>
        <pt x="372" y="1391" on="0"/>
        <pt x="590" y="1456" on="0"/>
        <pt x="727" y="1456" on="1"/>
        <pt x="785" y="1456" on="0"/>
        <pt x="890" y="1445" on="0"/>
        <pt x="938" y="1433" on="1"/>
        <pt x="1012" y="1595" on="1"/>
        <pt x="1231" y="1595" on="1"/>
        <pt x="1117" y="1344" on="1"/>
        <pt x="1164" y="1304" on="0"/>
        <pt x="1236" y="1190" on="0"/>
        <pt x="1286" y="1035" on="0"/>
        <pt x="1311" y="835" on="0"/>
        <pt x="1311" y="709" on="1"/>
        <pt x="1311" y="560" on="0"/>
        <pt x="1275" y="334" on="0"/>
        <pt x="1206" y="169" on="0"/>
        <pt x="1106" y="60" on="0"/>
        <pt x="976" y="-4" on="0"/>
        <pt x="818" y="-31" on="0"/>
        <pt x="727" y="-31" on="1"/>
        <pt x="665" y="-31" on="0"/>
        <pt x="554" y="-20" on="0"/>
        <pt x="504" y="-6" on="1"/>
        <pt x="429" y="-172" on="1"/>
        <pt x="209" y="-172" on="1"/>
      </contour>
      <contour>
        <pt x="843" y="1223" on="1"/>
        <pt x="794" y="1233" on="0"/>
        <pt x="727" y="1233" on="1"/>
        <pt x="629" y="1233" on="0"/>
        <pt x="499" y="1186" on="0"/>
        <pt x="423" y="1067" on="0"/>
        <pt x="392" y="865" on="0"/>
        <pt x="392" y="709" on="1"/>
        <pt x="392" y="577" on="0"/>
        <pt x="413" y="395" on="0"/>
        <pt x="439" y="335" on="1"/>
      </contour>
      <contour>
        <pt x="599" y="202" on="1"/>
        <pt x="626" y="195" on="0"/>
        <pt x="690" y="190" on="0"/>
        <pt x="727" y="190" on="1"/>
        <pt x="825" y="190" on="0"/>
        <pt x="954" y="236" on="0"/>
        <pt x="1030" y="353" on="0"/>
        <pt x="1061" y="554" on="0"/>
        <pt x="1061" y="709" on="1"/>
        <pt x="1061" y="849" on="0"/>
        <pt x="1036" y="1039" on="0"/>
        <pt x="1006" y="1100" on="1"/>
      </contour>
    </TTGlyph>
    <TTGlyph name="Otilde" xMin="115" yMin="-31" xMax="1286" yMax="1836">
      <component glyphName="O" x="0" y="0" flags="0x1204"/>
      <component glyphName="tilde.cap" x="231" y="10" flags="0x1004"/>
    </TTGlyph>
    <TTGlyph name="P" xMin="182" yMin="0" xMax="1135" yMax="1427">
      <contour>
        <pt x="182" y="1427" on="1"/>
        <pt x="748" y="1427" on="1"/>
        <pt x="794" y="1427" on="0"/>
        <pt x="888" y="1413" on="0"/>
        <pt x="974" y="1374" on="0"/>
        <pt x="1048" y="1308" on="0"/>
        <pt x="1104" y="1205" on="0"/>
        <pt x="1135" y="1059" on="0"/>
        <pt x="1135" y="961" on="1"/>
        <pt x="1135" y="863" on="0"/>
        <pt x="1101" y="718" on="0"/>
        <pt x="1043" y="616" on="0"/>
        <pt x="965" y="552" on="0"/>
        <pt x="877" y="515" on="0"/>
        <pt x="784" y="502" on="0"/>
        <pt x="739" y="502" on="1"/>
        <pt x="422" y="502" on="1"/>
        <pt x="422" y="0" on="1"/>
        <pt x="182" y="0" on="1"/>
      </contour>
      <contour>
        <pt x="711" y="725" on="1"/>
        <pt x="765" y="725" on="0"/>
        <pt x="832" y="761" on="0"/>
        <pt x="871" y="825" on="0"/>
        <pt x="885" y="911" on="0"/>
        <pt x="885" y="961" on="1"/>
        <pt x="885" y="1010" on="0"/>
        <pt x="871" y="1098" on="0"/>
        <pt x="832" y="1165" on="0"/>
        <pt x="765" y="1204" on="0"/>
        <pt x="711" y="1204" on="1"/>
        <pt x="422" y="1204" on="1"/>
        <pt x="422" y="725" on="1"/>
      </contour>
    </TTGlyph>
    <TTGlyph name="Q" xMin="115" yMin="-115" xMax="1286" yMax="1456">
      <contour>
        <pt x="702" y="-31" on="1"/>
        <pt x="610" y="-31" on="0"/>
        <pt x="452" y="-5" on="0"/>
        <pt x="322" y="60" on="0"/>
        <pt x="221" y="168" on="0"/>
        <pt x="151" y="333" on="0"/>
        <pt x="115" y="559" on="0"/>
        <pt x="115" y="709" on="1"/>
        <pt x="115" y="934" on="0"/>
        <pt x="195" y="1224" on="0"/>
        <pt x="347" y="1391" on="0"/>
        <pt x="565" y="1456" on="0"/>
        <pt x="702" y="1456" on="1"/>
        <pt x="793" y="1456" on="0"/>
        <pt x="951" y="1428" on="0"/>
        <pt x="1081" y="1362" on="0"/>
        <pt x="1181" y="1251" on="0"/>
        <pt x="1250" y="1085" on="0"/>
        <pt x="1286" y="858" on="0"/>
        <pt x="1286" y="709" on="1"/>
        <pt x="1286" y="588" on="0"/>
        <pt x="1262" y="394" on="0"/>
        <pt x="1217" y="242" on="0"/>
        <pt x="1149" y="130" on="0"/>
        <pt x="1106" y="90" on="1"/>
        <pt x="1252" y="-115" on="1"/>
        <pt x="1034" y="-115" on="1"/>
        <pt x="951" y="2" on="1"/>
        <pt x="896" y="-15" on="0"/>
        <pt x="772" y="-31" on="0"/>
      </contour>
      <contour>
        <pt x="702" y="190" on="1"/>
        <pt x="732" y="190" on="0"/>
        <pt x="786" y="194" on="0"/>
        <pt x="809" y="198" on="1"/>
        <pt x="647" y="430" on="1"/>
        <pt x="862" y="430" on="1"/>
        <pt x="961" y="286" on="1"/>
        <pt x="1003" y="344" on="0"/>
        <pt x="1036" y="548" on="0"/>
        <pt x="1036" y="709" on="1"/>
        <pt x="1036" y="865" on="0"/>
        <pt x="1005" y="1067" on="0"/>
        <pt x="929" y="1186" on="0"/>
        <pt x="800" y="1233" on="0"/>
        <pt x="702" y="1233" on="1"/>
        <pt x="604" y="1233" on="0"/>
        <pt x="474" y="1186" on="0"/>
        <pt x="398" y="1067" on="0"/>
        <pt x="367" y="865" on="0"/>
        <pt x="367" y="709" on="1"/>
        <pt x="367" y="554" on="0"/>
        <pt x="398" y="353" on="0"/>
        <pt x="474" y="236" on="0"/>
        <pt x="604" y="190" on="0"/>
      </contour>
    </TTGlyph>
    <TTGlyph name="R" xMin="182" yMin="0" xMax="1200" yMax="1427">
      <contour>
        <pt x="182" y="1427" on="1"/>
        <pt x="713" y="1427" on="1"/>
        <pt x="770" y="1427" on="0"/>
        <pt x="879" y="1412" on="0"/>
        <pt x="976" y="1374" on="0"/>
        <pt x="1056" y="1309" on="0"/>
        <pt x="1115" y="1207" on="0"/>
        <pt x="1147" y="1065" on="0"/>
        <pt x="1147" y="969" on="1"/>
        <pt x="1147" y="905" on="0"/>
        <pt x="1126" y="804" on="0"/>
        <pt x="1091" y="726" on="0"/>
        <pt x="1046" y="668" on="0"/>
        <pt x="1023" y="647" on="1"/>
        <pt x="968" y="599" on="0"/>
        <pt x="899" y="580" on="1"/>
        <pt x="899" y="578" on="1"/>
        <pt x="1200" y="0" on="1"/>
        <pt x="926" y="0" on="1"/>
        <pt x="659" y="524" on="1"/>
        <pt x="422" y="524" on="1"/>
        <pt x="422" y="0" on="1"/>
        <pt x="182" y="0" on="1"/>
      </contour>
      <contour>
        <pt x="711" y="750" on="1"/>
        <pt x="899" y="750" on="0"/>
        <pt x="899" y="983" on="1"/>
        <pt x="899" y="1044" on="0"/>
        <pt x="872" y="1129" on="0"/>
        <pt x="821" y="1181" on="0"/>
        <pt x="749" y="1204" on="0"/>
        <pt x="705" y="1204" on="1"/>
        <pt x="422" y="1204" on="1"/>
        <pt x="422" y="750" on="1"/>
      </contour>
    </TTGlyph>
    <TTGlyph name="Racute" xMin="182" yMin="0" xMax="1200" yMax="1973">
      <component glyphName="R" x="0" y="0" flags="0x1204"/>
      <component glyphName="acute.cap" x="322" y="-32" flags="0x1004"/>
    </TTGlyph>
    <TTGlyph name="Rcaron" xMin="182" yMin="0" xMax="1200" yMax="1959">
      <component glyphName="R" x="0" y="0" flags="0x1204"/>
      <component glyphName="caron.cap" x="231" y="-3" flags="0x1004"/>
    </TTGlyph>
    <TTGlyph name="Rcommaaccent" xMin="182" yMin="-500" xMax="1200" yMax="1427">
      <component glyphName="R" x="0" y="0" flags="0x1204"/>
      <component glyphName="commaaccent" x="414" y="0" flags="0x1004"/>
    </TTGlyph>
    <TTGlyph name="S" xMin="108" yMin="-31" xMax="1010" yMax="1456">
      <contour>
        <pt x="120" y="213" on="1"/>
        <pt x="171" y="206" on="0"/>
        <pt x="230" y="201" on="1"/>
        <pt x="281" y="196" on="0"/>
        <pt x="412" y="190" on="0"/>
        <pt x="485" y="190" on="1"/>
        <pt x="582" y="190" on="0"/>
        <pt x="696" y="215" on="0"/>
        <pt x="756" y="264" on="0"/>
        <pt x="773" y="336" on="0"/>
        <pt x="773" y="383" on="1"/>
        <pt x="773" y="420" on="0"/>
        <pt x="766" y="481" on="0"/>
        <pt x="740" y="529" on="0"/>
        <pt x="692" y="564" on="0"/>
        <pt x="650" y="575" on="1"/>
        <pt x="359" y="651" on="1"/>
        <pt x="290" y="669" on="0"/>
        <pt x="194" y="730" on="0"/>
        <pt x="135" y="824" on="0"/>
        <pt x="108" y="957" on="0"/>
        <pt x="108" y="1047" on="1"/>
        <pt x="108" y="1153" on="0"/>
        <pt x="172" y="1308" on="0"/>
        <pt x="289" y="1408" on="0"/>
        <pt x="455" y="1456" on="0"/>
        <pt x="557" y="1456" on="1"/>
        <pt x="642" y="1456" on="0"/>
        <pt x="783" y="1437" on="0"/>
        <pt x="834" y="1426" on="1"/>
        <pt x="894" y="1413" on="0"/>
        <pt x="943" y="1397" on="1"/>
        <pt x="943" y="1212" on="1"/>
        <pt x="898" y="1218" on="0"/>
        <pt x="848" y="1223" on="1"/>
        <pt x="805" y="1228" on="0"/>
        <pt x="698" y="1235" on="0"/>
        <pt x="641" y="1235" on="1"/>
        <pt x="552" y="1235" on="0"/>
        <pt x="438" y="1223" on="0"/>
        <pt x="372" y="1185" on="0"/>
        <pt x="346" y="1115" on="0"/>
        <pt x="346" y="1057" on="1"/>
        <pt x="346" y="1025" on="0"/>
        <pt x="353" y="975" on="0"/>
        <pt x="378" y="937" on="0"/>
        <pt x="425" y="909" on="0"/>
        <pt x="465" y="897" on="1"/>
        <pt x="736" y="819" on="1"/>
        <pt x="788" y="804" on="0"/>
        <pt x="869" y="771" on="0"/>
        <pt x="929" y="726" on="0"/>
        <pt x="972" y="666" on="0"/>
        <pt x="998" y="583" on="0"/>
        <pt x="1010" y="471" on="0"/>
        <pt x="1010" y="398" on="1"/>
        <pt x="1010" y="284" on="0"/>
        <pt x="971" y="121" on="0"/>
        <pt x="863" y="18" on="0"/>
        <pt x="674" y="-31" on="0"/>
        <pt x="524" y="-31" on="1"/>
        <pt x="408" y="-31" on="0"/>
        <pt x="255" y="-10" on="0"/>
        <pt x="207" y="3" on="1"/>
        <pt x="152" y="18" on="0"/>
        <pt x="120" y="37" on="1"/>
      </contour>
    </TTGlyph>
    <TTGlyph name="Sacute" xMin="108" yMin="-31" xMax="1010" yMax="2005">
      <component glyphName="S" x="0" y="0" flags="0x1204"/>
      <component glyphName="acute.cap" x="242" y="0" flags="0x1004"/>
    </TTGlyph>
    <TTGlyph name="Scaron" xMin="108" yMin="-31" xMax="1010" yMax="1987">
      <component glyphName="S" x="0" y="0" flags="0x1204"/>
      <component glyphName="caron.cap" x="168" y="25" flags="0x1004"/>
    </TTGlyph>
    <TTGlyph name="Scedilla" xMin="108" yMin="-485" xMax="1010" yMax="1456">
      <component glyphName="S" x="0" y="0" flags="0x1204"/>
      <component glyphName="cedilla" x="338" y="0" flags="0x1004"/>
    </TTGlyph>
    <TTGlyph name="Scircumflex" xMin="108" yMin="-31" xMax="1010" yMax="1962">
      <component glyphName="S" x="0" y="0" flags="0x1204"/>
      <component glyphName="circumflex.cap" x="193" y="0" flags="0x1004"/>
    </TTGlyph>
    <TTGlyph name="Scommaaccent" xMin="108" yMin="-500" xMax="1010" yMax="1456">
      <component glyphName="S" x="0" y="0" flags="0x1204"/>
      <component glyphName="commaaccent" x="312" y="0" flags="0x1004"/>
    </TTGlyph>
    <TTGlyph name="T" xMin="12" yMin="0" xMax="1110" yMax="1427">
      <contour>
        <pt x="440" y="1206" on="1"/>
        <pt x="12" y="1206" on="1"/>
        <pt x="12" y="1427" on="1"/>
        <pt x="1110" y="1427" on="1"/>
        <pt x="1110" y="1206" on="1"/>
        <pt x="678" y="1206" on="1"/>
        <pt x="678" y="0" on="1"/>
        <pt x="440" y="0" on="1"/>
      </contour>
    </TTGlyph>
    <TTGlyph name="Tbar" xMin="41" yMin="0" xMax="1139" yMax="1427">
      <contour>
        <pt x="469" y="603" on="1"/>
        <pt x="185" y="603" on="1"/>
        <pt x="185" y="797" on="1"/>
        <pt x="469" y="797" on="1"/>
        <pt x="469" y="1206" on="1"/>
        <pt x="41" y="1206" on="1"/>
        <pt x="41" y="1427" on="1"/>
        <pt x="1139" y="1427" on="1"/>
        <pt x="1139" y="1206" on="1"/>
        <pt x="707" y="1206" on="1"/>
        <pt x="707" y="797" on="1"/>
        <pt x="996" y="797" on="1"/>
        <pt x="996" y="603" on="1"/>
        <pt x="707" y="603" on="1"/>
        <pt x="707" y="0" on="1"/>
        <pt x="469" y="0" on="1"/>
      </contour>
    </TTGlyph>
    <TTGlyph name="Tcaron" xMin="12" yMin="0" xMax="1110" yMax="1972">
      <component glyphName="T" x="0" y="0" flags="0x1204"/>
      <component glyphName="caron.cap" x="170" y="10" flags="0x1004"/>
    </TTGlyph>
    <TTGlyph name="Tcommaaccent" xMin="12" yMin="-500" xMax="1110" yMax="1427">
      <component glyphName="T" x="0" y="0" flags="0x1204"/>
      <component glyphName="commaaccent" x="321" y="0" flags="0x1004"/>
    </TTGlyph>
    <TTGlyph name="Thorn" xMin="182" yMin="0" xMax="1178" yMax="1427">
      <contour>
        <pt x="182" y="1427" on="1"/>
        <pt x="422" y="1427" on="1"/>
        <pt x="422" y="1154" on="1"/>
        <pt x="441" y="1160" on="0"/>
        <pt x="506" y="1177" on="0"/>
        <pt x="588" y="1194" on="0"/>
        <pt x="682" y="1205" on="0"/>
        <pt x="731" y="1205" on="1"/>
        <pt x="824" y="1205" on="0"/>
        <pt x="987" y="1162" on="0"/>
        <pt x="1108" y="1051" on="0"/>
        <pt x="1178" y="859" on="0"/>
        <pt x="1178" y="711" on="1"/>
        <pt x="1178" y="560" on="0"/>
        <pt x="1109" y="367" on="0"/>
        <pt x="987" y="256" on="0"/>
        <pt x="820" y="214" on="0"/>
        <pt x="723" y="214" on="1"/>
        <pt x="678" y="214" on="0"/>
        <pt x="589" y="225" on="0"/>
        <pt x="509" y="241" on="0"/>
        <pt x="443" y="259" on="0"/>
        <pt x="422" y="266" on="1"/>
        <pt x="422" y="0" on="1"/>
        <pt x="182" y="0" on="1"/>
      </contour>
      <contour>
        <pt x="422" y="442" on="1"/>
        <pt x="442" y="438" on="0"/>
        <pt x="556" y="425" on="0"/>
        <pt x="637" y="425" on="1"/>
        <pt x="707" y="425" on="0"/>
        <pt x="817" y="449" on="0"/>
        <pt x="894" y="512" on="0"/>
        <pt x="934" y="624" on="0"/>
        <pt x="934" y="713" on="1"/>
        <pt x="934" y="801" on="0"/>
        <pt x="901" y="912" on="0"/>
        <pt x="833" y="974" on="0"/>
        <pt x="729" y="996" on="0"/>
        <pt x="659" y="996" on="1"/>
        <pt x="617" y="996" on="0"/>
        <pt x="539" y="992" on="0"/>
        <pt x="475" y="988" on="0"/>
        <pt x="430" y="983" on="0"/>
        <pt x="422" y="982" on="1"/>
      </contour>
    </TTGlyph>
    <TTGlyph name="U" xMin="177" yMin="-31" xMax="1228" yMax="1427">
      <contour>
        <pt x="177" y="1427" on="1"/>
        <pt x="415" y="1427" on="1"/>
        <pt x="415" y="473" on="1"/>
        <pt x="415" y="388" on="0"/>
        <pt x="445" y="278" on="0"/>
        <pt x="514" y="215" on="0"/>
        <pt x="624" y="190" on="0"/>
        <pt x="704" y="190" on="1"/>
        <pt x="776" y="190" on="0"/>
        <pt x="883" y="215" on="0"/>
        <pt x="955" y="278" on="0"/>
        <pt x="990" y="388" on="0"/>
        <pt x="990" y="473" on="1"/>
        <pt x="990" y="1427" on="1"/>
        <pt x="1228" y="1427" on="1"/>
        <pt x="1228" y="459" on="1"/>
        <pt x="1228" y="334" on="0"/>
        <pt x="1171" y="150" on="0"/>
        <pt x="1045" y="29" on="0"/>
        <pt x="846" y="-31" on="0"/>
        <pt x="704" y="-31" on="1"/>
        <pt x="562" y="-31" on="0"/>
        <pt x="362" y="28" on="0"/>
        <pt x="235" y="148" on="0"/>
        <pt x="177" y="331" on="0"/>
        <pt x="177" y="455" on="1"/>
      </contour>
    </TTGlyph>
    <TTGlyph name="Uacute" xMin="177" yMin="-31" xMax="1228" yMax="2005">
      <component glyphName="U" x="0" y="0" flags="0x1204"/>
      <component glyphName="acute.cap" x="415" y="0" flags="0x1004"/>
    </TTGlyph>
    <TTGlyph name="Ubreve" xMin="177" yMin="-31" xMax="1228" yMax="1862">
      <component glyphName="U" x="0" y="0" flags="0x1204"/>
      <component glyphName="breve" x="296" y="332" flags="0x1004"/>
    </TTGlyph>
    <TTGlyph name="Ucircumflex" xMin="177" yMin="-31" xMax="1228" yMax="1943">
      <component glyphName="U" x="0" y="0" flags="0x1204"/>
      <component glyphName="circumflex.cap" x="310" y="-19" flags="0x1004"/>
    </TTGlyph>
    <TTGlyph name="Udieresis" xMin="177" yMin="-31" xMax="1228" yMax="1843">
      <component glyphName="U" x="0" y="0" flags="0x1204"/>
      <component glyphName="period" x="686" y="1552" flags="0x1004"/>
      <component glyphName="period" x="221" y="1552" flags="0x1004"/>
    </TTGlyph>
    <TTGlyph name="Ugrave" xMin="177" yMin="-31" xMax="1228" yMax="1985">
      <component glyphName="U" x="0" y="0" flags="0x1204"/>
      <component glyphName="grave.cap" x="351" y="0" flags="0x1004"/>
    </TTGlyph>
    <TTGlyph name="Uhungarumlaut" xMin="177" yMin="-31" xMax="1228" yMax="2060">
      <component glyphName="U" x="0" y="0" flags="0x1204"/>
      <component glyphName="hungarumlaut" x="230" y="352" flags="0x1004"/>
    </TTGlyph>
    <TTGlyph name="Umacron" xMin="177" yMin="-31" xMax="1228" yMax="1788">
      <component glyphName="U" x="0" y="0" flags="0x1204"/>
      <component glyphName="macron" x="288" y="373" flags="0x1004"/>
    </TTGlyph>
    <TTGlyph name="Uogonek" xMin="177" yMin="-500" xMax="1228" yMax="1427">
      <contour>
        <pt x="177" y="1427" on="1"/>
        <pt x="415" y="1427" on="1"/>
        <pt x="415" y="473" on="1"/>
        <pt x="415" y="388" on="0"/>
        <pt x="445" y="278" on="0"/>
        <pt x="514" y="215" on="0"/>
        <pt x="624" y="190" on="0"/>
        <pt x="704" y="190" on="1"/>
        <pt x="776" y="190" on="0"/>
        <pt x="883" y="215" on="0"/>
        <pt x="955" y="278" on="0"/>
        <pt x="990" y="388" on="0"/>
        <pt x="990" y="473" on="1"/>
        <pt x="990" y="1427" on="1"/>
        <pt x="1228" y="1427" on="1"/>
        <pt x="1228" y="459" on="1"/>
        <pt x="1228" y="273" on="0"/>
        <pt x="1096" y="45" on="0"/>
        <pt x="947" y="0" on="1"/>
        <pt x="854" y="-60" on="0"/>
        <pt x="776" y="-175" on="0"/>
        <pt x="776" y="-225" on="1"/>
        <pt x="776" y="-267" on="0"/>
        <pt x="825" y="-317" on="0"/>
        <pt x="876" y="-317" on="1"/>
        <pt x="905" y="-317" on="0"/>
        <pt x="925" y="-314" on="1"/>
        <pt x="936" y="-313" on="0"/>
        <pt x="946" y="-311" on="1"/>
        <pt x="946" y="-479" on="1"/>
        <pt x="926" y="-486" on="0"/>
        <pt x="904" y="-490" on="1"/>
        <pt x="884" y="-494" on="0"/>
        <pt x="835" y="-500" on="0"/>
        <pt x="806" y="-500" on="1"/>
        <pt x="753" y="-500" on="0"/>
        <pt x="661" y="-472" on="0"/>
        <pt x="593" y="-417" on="0"/>
        <pt x="554" y="-334" on="0"/>
        <pt x="554" y="-279" on="1"/>
        <pt x="554" y="-241" on="0"/>
        <pt x="572" y="-172" on="0"/>
        <pt x="601" y="-109" on="0"/>
        <pt x="639" y="-54" on="0"/>
        <pt x="659" y="-30" on="1"/>
        <pt x="529" y="-26" on="0"/>
        <pt x="346" y="38" on="0"/>
        <pt x="230" y="158" on="0"/>
        <pt x="177" y="336" on="0"/>
        <pt x="177" y="455" on="1"/>
      </contour>
    </TTGlyph>
    <TTGlyph name="Uring" xMin="177" yMin="-31" xMax="1228" yMax="1983">
      <component glyphName="U" x="0" y="0" flags="0x1204"/>
      <component glyphName="ring" x="388" y="332" flags="0x1004"/>
    </TTGlyph>
    <TTGlyph name="Utilde" xMin="177" yMin="-31" xMax="1228" yMax="1826">
      <component glyphName="U" x="0" y="0" flags="0x1204"/>
      <component glyphName="tilde.cap" x="232" y="0" flags="0x1004"/>
    </TTGlyph>
    <TTGlyph name="V" xMin="0" yMin="0" xMax="1343" yMax="1427">
      <contour>
        <pt x="483" y="0" on="1"/>
        <pt x="0" y="1427" on="1"/>
        <pt x="274" y="1427" on="1"/>
        <pt x="664" y="223" on="1"/>
        <pt x="680" y="223" on="1"/>
        <pt x="1069" y="1427" on="1"/>
        <pt x="1343" y="1427" on="1"/>
        <pt x="860" y="0" on="1"/>
      </contour>
    </TTGlyph>
    <TTGlyph name="W" xMin="35" yMin="0" xMax="1907" yMax="1427">
      <contour>
        <pt x="35" y="1427" on="1"/>
        <pt x="289" y="1427" on="1"/>
        <pt x="537" y="223" on="1"/>
        <pt x="541" y="223" on="1"/>
        <pt x="777" y="1427" on="1"/>
        <pt x="1176" y="1427" on="1"/>
        <pt x="1426" y="223" on="1"/>
        <pt x="1430" y="223" on="1"/>
        <pt x="1664" y="1427" on="1"/>
        <pt x="1907" y="1427" on="1"/>
        <pt x="1604" y="0" on="1"/>
        <pt x="1229" y="0" on="1"/>
        <pt x="976" y="1225" on="1"/>
        <pt x="973" y="1225" on="1"/>
        <pt x="736" y="0" on="1"/>
        <pt x="357" y="0" on="1"/>
      </contour>
    </TTGlyph>
    <TTGlyph name="Wacute" xMin="35" yMin="0" xMax="1907" yMax="2005">
      <component glyphName="W" x="0" y="0" flags="0x1204"/>
      <component glyphName="acute.cap" x="683" y="0" flags="0x1004"/>
    </TTGlyph>
    <TTGlyph name="Wcircumflex" xMin="35" yMin="0" xMax="1907" yMax="1962">
      <component glyphName="W" x="0" y="0" flags="0x1204"/>
      <component glyphName="circumflex.cap" x="580" y="0" flags="0x1004"/>
    </TTGlyph>
    <TTGlyph name="Wdieresis" xMin="35" yMin="0" xMax="1907" yMax="1864">
      <component glyphName="W" x="0" y="0" flags="0x1204"/>
      <component glyphName="period" x="956" y="1573" flags="0x1004"/>
      <component glyphName="period" x="491" y="1573" flags="0x1004"/>
    </TTGlyph>
    <TTGlyph name="Wgrave" xMin="35" yMin="0" xMax="1907" yMax="2005">
      <component glyphName="W" x="0" y="0" flags="0x1204"/>
      <component glyphName="grave.cap" x="619" y="20" flags="0x1004"/>
    </TTGlyph>
    <TTGlyph name="X" xMin="15" yMin="0" xMax="1250" yMax="1427">
      <contour>
        <pt x="486" y="734" on="1"/>
        <pt x="38" y="1427" on="1"/>
        <pt x="330" y="1427" on="1"/>
        <pt x="636" y="951" on="1"/>
        <pt x="930" y="1427" on="1"/>
        <pt x="1211" y="1427" on="1"/>
        <pt x="773" y="739" on="1"/>
        <pt x="1250" y="0" on="1"/>
        <pt x="961" y="0" on="1"/>
        <pt x="625" y="518" on="1"/>
        <pt x="296" y="0" on="1"/>
        <pt x="15" y="0" on="1"/>
      </contour>
    </TTGlyph>
    <TTGlyph name="Y" xMin="0" yMin="0" xMax="1221" yMax="1427">
      <contour>
        <pt x="492" y="551" on="1"/>
        <pt x="0" y="1427" on="1"/>
        <pt x="281" y="1427" on="1"/>
        <pt x="608" y="805" on="1"/>
        <pt x="612" y="805" on="1"/>
        <pt x="940" y="1427" on="1"/>
        <pt x="1221" y="1427" on="1"/>
        <pt x="729" y="551" on="1"/>
        <pt x="729" y="0" on="1"/>
        <pt x="492" y="0" on="1"/>
      </contour>
    </TTGlyph>
    <TTGlyph name="Yacute" xMin="0" yMin="0" xMax="1221" yMax="1945">
      <component glyphName="Y" x="0" y="0" flags="0x1204"/>
      <component glyphName="acute.cap" x="383" y="-60" flags="0x1004"/>
    </TTGlyph>
    <TTGlyph name="Ycircumflex" xMin="0" yMin="0" xMax="1221" yMax="1943">
      <component glyphName="Y" x="0" y="0" flags="0x1204"/>
      <component glyphName="circumflex.cap" x="219" y="-19" flags="0x1004"/>
    </TTGlyph>
    <TTGlyph name="Ydieresis" xMin="0" yMin="0" xMax="1221" yMax="1843">
      <component glyphName="Y" x="0" y="0" flags="0x1204"/>
      <component glyphName="period" x="595" y="1552" flags="0x1004"/>
      <component glyphName="period" x="130" y="1552" flags="0x1004"/>
    </TTGlyph>
    <TTGlyph name="Ygrave" xMin="0" yMin="0" xMax="1221" yMax="1925">
      <component glyphName="Y" x="0" y="0" flags="0x1204"/>
      <component glyphName="grave.cap" x="225" y="-60" flags="0x1004"/>
    </TTGlyph>
    <TTGlyph name="Z" xMin="90" yMin="0" xMax="1196" yMax="1427">
      <contour>
        <pt x="90" y="156" on="1"/>
        <pt x="834" y="1202" on="1"/>
        <pt x="834" y="1204" on="1"/>
        <pt x="131" y="1204" on="1"/>
        <pt x="131" y="1427" on="1"/>
        <pt x="1188" y="1427" on="1"/>
        <pt x="1188" y="1268" on="1"/>
        <pt x="446" y="225" on="1"/>
        <pt x="446" y="223" on="1"/>
        <pt x="1196" y="223" on="1"/>
        <pt x="1196" y="0" on="1"/>
        <pt x="90" y="0" on="1"/>
      </contour>
    </TTGlyph>
    <TTGlyph name="Zacute" xMin="90" yMin="0" xMax="1196" yMax="2005">
      <component glyphName="Z" x="0" y="0" flags="0x1204"/>
      <component glyphName="acute.cap" x="354" y="0" flags="0x1004"/>
    </TTGlyph>
    <TTGlyph name="Zcaron" xMin="90" yMin="0" xMax="1196" yMax="1966">
      <component glyphName="Z" x="0" y="0" flags="0x1204"/>
      <component glyphName="caron.cap" x="268" y="4" flags="0x1004"/>
    </TTGlyph>
    <TTGlyph name="Zdotaccent" xMin="90" yMin="0" xMax="1196" yMax="1837">
      <component glyphName="Z" x="0" y="0" flags="0x1204"/>
      <component glyphName="dotaccent" x="440" y="360" flags="0x1004"/>
    </TTGlyph>
    <TTGlyph name="a" xMin="127" yMin="-31" xMax="1022" yMax="1079">
      <contour>
        <pt x="127" y="299" on="1"/>
        <pt x="127" y="389" on="0"/>
        <pt x="180" y="513" on="0"/>
        <pt x="271" y="589" on="0"/>
        <pt x="394" y="623" on="0"/>
        <pt x="465" y="623" on="1"/>
        <pt x="537" y="623" on="0"/>
        <pt x="654" y="607" on="0"/>
        <pt x="697" y="597" on="1"/>
        <pt x="746" y="586" on="0"/>
        <pt x="786" y="572" on="1"/>
        <pt x="786" y="670" on="1"/>
        <pt x="786" y="707" on="0"/>
        <pt x="781" y="758" on="0"/>
        <pt x="769" y="796" on="0"/>
        <pt x="748" y="822" on="0"/>
        <pt x="733" y="834" on="1"/>
        <pt x="701" y="857" on="0"/>
        <pt x="589" y="877" on="0"/>
        <pt x="499" y="877" on="1"/>
        <pt x="442" y="877" on="0"/>
        <pt x="335" y="870" on="0"/>
        <pt x="293" y="865" on="1"/>
        <pt x="244" y="860" on="0"/>
        <pt x="200" y="854" on="1"/>
        <pt x="200" y="1020" on="1"/>
        <pt x="240" y="1036" on="0"/>
        <pt x="299" y="1049" on="1"/>
        <pt x="349" y="1060" on="0"/>
        <pt x="499" y="1079" on="0"/>
        <pt x="602" y="1079" on="1"/>
        <pt x="671" y="1079" on="0"/>
        <pt x="778" y="1068" on="0"/>
        <pt x="860" y="1042" on="0"/>
        <pt x="923" y="1000" on="0"/>
        <pt x="948" y="969" on="1"/>
        <pt x="969" y="943" on="0"/>
        <pt x="997" y="885" on="0"/>
        <pt x="1015" y="807" on="0"/>
        <pt x="1022" y="706" on="0"/>
        <pt x="1022" y="639" on="1"/>
        <pt x="1022" y="0" on="1"/>
        <pt x="821" y="0" on="1"/>
        <pt x="803" y="78" on="1"/>
        <pt x="759" y="47" on="0"/>
        <pt x="706" y="23" on="1"/>
        <pt x="660" y="3" on="0"/>
        <pt x="537" y="-31" on="0"/>
        <pt x="463" y="-31" on="1"/>
        <pt x="373" y="-31" on="0"/>
        <pt x="245" y="5" on="0"/>
        <pt x="164" y="83" on="0"/>
        <pt x="127" y="209" on="0"/>
      </contour>
      <contour>
        <pt x="370" y="299" on="1"/>
        <pt x="370" y="255" on="0"/>
        <pt x="392" y="203" on="0"/>
        <pt x="434" y="176" on="0"/>
        <pt x="495" y="168" on="0"/>
        <pt x="534" y="168" on="1"/>
        <pt x="585" y="168" on="0"/>
        <pt x="676" y="187" on="0"/>
        <pt x="711" y="198" on="1"/>
        <pt x="751" y="211" on="0"/>
        <pt x="786" y="228" on="1"/>
        <pt x="786" y="411" on="1"/>
        <pt x="754" y="417" on="0"/>
        <pt x="717" y="422" on="1"/>
        <pt x="685" y="427" on="0"/>
        <pt x="604" y="434" on="0"/>
        <pt x="559" y="434" on="1"/>
        <pt x="509" y="434" on="0"/>
        <pt x="438" y="425" on="0"/>
        <pt x="392" y="396" on="0"/>
        <pt x="370" y="343" on="0"/>
      </contour>
    </TTGlyph>
    <TTGlyph name="aacute" xMin="127" yMin="-31" xMax="1022" yMax="1661">
      <component glyphName="a" x="0" y="0" flags="0x1004"/>
      <component glyphName="acute" x="266" y="0" flags="0x1004"/>
    </TTGlyph>
    <TTGlyph name="abreve" xMin="127" yMin="-31" xMax="1022" yMax="1511">
      <component glyphName="a" x="0" y="0" flags="0x1004"/>
      <component glyphName="breve" x="180" y="-19" flags="0x1004"/>
    </TTGlyph>
    <TTGlyph name="acircumflex" xMin="127" yMin="-31" xMax="1022" yMax="1615">
      <component glyphName="a" x="0" y="0" flags="0x1004"/>
      <component glyphName="circumflex" x="156" y="20" flags="0x1004"/>
    </TTGlyph>
    <TTGlyph name="acute" xMin="61" yMin="1151" xMax="608" yMax="1661">
      <contour>
        <pt x="61" y="1278" on="1"/>
        <pt x="469" y="1661" on="1"/>
        <pt x="482" y="1654" on="0"/>
        <pt x="498" y="1642" on="1"/>
        <pt x="512" y="1631" on="0"/>
        <pt x="547" y="1597" on="0"/>
        <pt x="569" y="1571" on="1"/>
        <pt x="588" y="1548" on="0"/>
        <pt x="608" y="1510" on="0"/>
        <pt x="608" y="1493" on="1"/>
        <pt x="608" y="1468" on="0"/>
        <pt x="563" y="1417" on="0"/>
        <pt x="512" y="1380" on="1"/>
        <pt x="498" y="1370" on="0"/>
        <pt x="454" y="1340" on="0"/>
        <pt x="400" y="1304" on="0"/>
        <pt x="340" y="1265" on="0"/>
        <pt x="311" y="1246" on="1"/>
        <pt x="242" y="1201" on="0"/>
        <pt x="164" y="1151" on="1"/>
      </contour>
    </TTGlyph>
    <TTGlyph name="acute.cap" xMin="61" yMin="1536" xMax="618" yMax="2005">
      <contour>
        <pt x="61" y="1653" on="1"/>
        <pt x="485" y="2005" on="1"/>
        <pt x="497" y="1999" on="0"/>
        <pt x="512" y="1988" on="1"/>
        <pt x="525" y="1978" on="0"/>
        <pt x="558" y="1946" on="0"/>
        <pt x="578" y="1921" on="1"/>
        <pt x="598" y="1897" on="0"/>
        <pt x="618" y="1857" on="0"/>
        <pt x="618" y="1838" on="1"/>
        <pt x="618" y="1794" on="0"/>
        <pt x="551" y="1749" on="1"/>
        <pt x="530" y="1735" on="0"/>
        <pt x="473" y="1702" on="0"/>
        <pt x="408" y="1667" on="0"/>
        <pt x="340" y="1631" on="0"/>
        <pt x="308" y="1615" on="1"/>
        <pt x="232" y="1576" on="0"/>
        <pt x="150" y="1536" on="1"/>
      </contour>
    </TTGlyph>
    <TTGlyph name="adieresis" xMin="127" yMin="-31" xMax="1022" yMax="1469">
      <component glyphName="a" x="0" y="0" flags="0x1004"/>
      <component glyphName="period" x="97" y="1178" flags="0x1004"/>
      <component glyphName="period" x="566" y="1178" flags="0x1004"/>
    </TTGlyph>
    <TTGlyph name="ae" xMin="127" yMin="-31" xMax="1708" yMax="1085">
      <contour>
        <pt x="127" y="301" on="1"/>
        <pt x="127" y="468" on="0"/>
        <pt x="326" y="635" on="0"/>
        <pt x="524" y="635" on="1"/>
        <pt x="796" y="635" on="1"/>
        <pt x="796" y="670" on="1"/>
        <pt x="796" y="707" on="0"/>
        <pt x="791" y="759" on="0"/>
        <pt x="779" y="796" on="0"/>
        <pt x="758" y="822" on="0"/>
        <pt x="743" y="834" on="1"/>
        <pt x="711" y="857" on="0"/>
        <pt x="589" y="877" on="0"/>
        <pt x="499" y="877" on="1"/>
        <pt x="440" y="877" on="0"/>
        <pt x="337" y="870" on="0"/>
        <pt x="297" y="865" on="1"/>
        <pt x="250" y="860" on="0"/>
        <pt x="211" y="854" on="1"/>
        <pt x="211" y="1020" on="1"/>
        <pt x="264" y="1038" on="0"/>
        <pt x="324" y="1052" on="1"/>
        <pt x="375" y="1064" on="0"/>
        <pt x="507" y="1085" on="0"/>
        <pt x="579" y="1085" on="1"/>
        <pt x="710" y="1085" on="0"/>
        <pt x="889" y="1010" on="0"/>
        <pt x="931" y="938" on="1"/>
        <pt x="975" y="1007" on="0"/>
        <pt x="1156" y="1085" on="0"/>
        <pt x="1296" y="1085" on="1"/>
        <pt x="1417" y="1085" on="0"/>
        <pt x="1576" y="1021" on="0"/>
        <pt x="1670" y="904" on="0"/>
        <pt x="1708" y="740" on="0"/>
        <pt x="1708" y="640" on="1"/>
        <pt x="1708" y="593" on="0"/>
        <pt x="1701" y="494" on="0"/>
        <pt x="1695" y="440" on="1"/>
        <pt x="1034" y="444" on="1"/>
        <pt x="1036" y="375" on="0"/>
        <pt x="1061" y="276" on="0"/>
        <pt x="1125" y="212" on="0"/>
        <pt x="1237" y="182" on="0"/>
        <pt x="1327" y="182" on="1"/>
        <pt x="1396" y="182" on="0"/>
        <pt x="1517" y="189" on="0"/>
        <pt x="1563" y="194" on="1"/>
        <pt x="1616" y="199" on="0"/>
        <pt x="1661" y="207" on="1"/>
        <pt x="1661" y="37" on="1"/>
        <pt x="1610" y="18" on="0"/>
        <pt x="1550" y="3" on="1"/>
        <pt x="1499" y="-10" on="0"/>
        <pt x="1363" y="-31" on="0"/>
        <pt x="1286" y="-31" on="1"/>
        <pt x="1212" y="-31" on="0"/>
        <pt x="1095" y="-17" on="0"/>
        <pt x="999" y="18" on="0"/>
        <pt x="917" y="78" on="0"/>
        <pt x="877" y="125" on="1"/>
        <pt x="815" y="55" on="0"/>
        <pt x="631" y="-31" on="0"/>
        <pt x="510" y="-31" on="1"/>
        <pt x="402" y="-31" on="0"/>
        <pt x="255" y="16" on="0"/>
        <pt x="165" y="102" on="0"/>
        <pt x="127" y="225" on="0"/>
      </contour>
      <contour>
        <pt x="1489" y="635" on="1"/>
        <pt x="1489" y="667" on="1"/>
        <pt x="1489" y="721" on="0"/>
        <pt x="1474" y="803" on="0"/>
        <pt x="1428" y="858" on="0"/>
        <pt x="1343" y="885" on="0"/>
        <pt x="1273" y="885" on="1"/>
        <pt x="1194" y="885" on="0"/>
        <pt x="1100" y="847" on="0"/>
        <pt x="1050" y="780" on="0"/>
        <pt x="1034" y="689" on="0"/>
        <pt x="1034" y="635" on="1"/>
      </contour>
      <contour>
        <pt x="360" y="311" on="1"/>
        <pt x="360" y="264" on="0"/>
        <pt x="380" y="208" on="0"/>
        <pt x="421" y="178" on="0"/>
        <pt x="485" y="168" on="0"/>
        <pt x="530" y="168" on="1"/>
        <pt x="620" y="168" on="0"/>
        <pt x="764" y="225" on="0"/>
        <pt x="813" y="267" on="1"/>
        <pt x="806" y="296" on="0"/>
        <pt x="798" y="358" on="0"/>
        <pt x="796" y="393" on="1"/>
        <pt x="794" y="444" on="1"/>
        <pt x="567" y="444" on="1"/>
        <pt x="511" y="444" on="0"/>
        <pt x="432" y="428" on="0"/>
        <pt x="382" y="396" on="0"/>
        <pt x="360" y="345" on="0"/>
      </contour>
    </TTGlyph>
    <TTGlyph name="aeacute" xMin="127" yMin="-31" xMax="1708" yMax="1621">
      <component glyphName="ae" x="0" y="0" flags="0x1204"/>
      <component glyphName="acute" x="715" y="-40" flags="0x1004"/>
    </TTGlyph>
    <TTGlyph name="agrave" xMin="127" yMin="-31" xMax="1022" yMax="1642">
      <component glyphName="a" x="0" y="0" flags="0x1004"/>
      <component glyphName="grave" x="262" y="0" flags="0x1004"/>
    </TTGlyph>
    <TTGlyph name="amacron" xMin="127" yMin="-31" xMax="1022" yMax="1377">
      <component glyphName="a" x="0" y="0" flags="0x1004"/>
      <component glyphName="macron" x="156" y="103" scalex="1.0" scaley="0.900024414062" flags="0x1004"/>
    </TTGlyph>
    <TTGlyph name="ampersand" xMin="98" yMin="-29" xMax="1343" yMax="1456">
      <contour>
        <pt x="98" y="371" on="1"/>
        <pt x="98" y="425" on="0"/>
        <pt x="119" y="520" on="0"/>
        <pt x="176" y="611" on="0"/>
        <pt x="275" y="704" on="0"/>
        <pt x="353" y="758" on="1"/>
        <pt x="302" y="815" on="0"/>
        <pt x="235" y="907" on="0"/>
        <pt x="194" y="991" on="0"/>
        <pt x="178" y="1076" on="0"/>
        <pt x="178" y="1126" on="1"/>
        <pt x="178" y="1189" on="0"/>
        <pt x="204" y="1308" on="0"/>
        <pt x="284" y="1400" on="0"/>
        <pt x="433" y="1456" on="0"/>
        <pt x="557" y="1456" on="1"/>
        <pt x="678" y="1456" on="0"/>
        <pt x="831" y="1400" on="0"/>
        <pt x="919" y="1305" on="0"/>
        <pt x="952" y="1180" on="0"/>
        <pt x="952" y="1112" on="1"/>
        <pt x="952" y="1042" on="0"/>
        <pt x="933" y="947" on="0"/>
        <pt x="874" y="866" on="0"/>
        <pt x="767" y="784" on="0"/>
        <pt x="680" y="727" on="1"/>
        <pt x="918" y="464" on="1"/>
        <pt x="932" y="515" on="0"/>
        <pt x="947" y="606" on="0"/>
        <pt x="950" y="629" on="1"/>
        <pt x="1141" y="629" on="1"/>
        <pt x="1139" y="597" on="0"/>
        <pt x="1128" y="514" on="0"/>
        <pt x="1111" y="423" on="0"/>
        <pt x="1089" y="331" on="0"/>
        <pt x="1076" y="291" on="1"/>
        <pt x="1343" y="0" on="1"/>
        <pt x="1059" y="0" on="1"/>
        <pt x="955" y="111" on="1"/>
        <pt x="871" y="36" on="0"/>
        <pt x="675" y="-29" on="0"/>
        <pt x="569" y="-29" on="1"/>
        <pt x="443" y="-29" on="0"/>
        <pt x="264" y="12" on="0"/>
        <pt x="151" y="107" on="0"/>
        <pt x="98" y="260" on="0"/>
      </contour>
      <contour>
        <pt x="542" y="880" on="1"/>
        <pt x="603" y="920" on="0"/>
        <pt x="678" y="978" on="0"/>
        <pt x="718" y="1028" on="0"/>
        <pt x="731" y="1078" on="0"/>
        <pt x="731" y="1110" on="1"/>
        <pt x="731" y="1154" on="0"/>
        <pt x="716" y="1214" on="0"/>
        <pt x="678" y="1252" on="0"/>
        <pt x="613" y="1268" on="0"/>
        <pt x="563" y="1268" on="1"/>
        <pt x="514" y="1268" on="0"/>
        <pt x="450" y="1250" on="0"/>
        <pt x="413" y="1211" on="0"/>
        <pt x="399" y="1152" on="0"/>
        <pt x="399" y="1110" on="1"/>
        <pt x="399" y="1087" on="0"/>
        <pt x="421" y="1034" on="0"/>
        <pt x="460" y="976" on="0"/>
        <pt x="512" y="913" on="0"/>
      </contour>
      <contour>
        <pt x="336" y="365" on="1"/>
        <pt x="336" y="318" on="0"/>
        <pt x="357" y="249" on="0"/>
        <pt x="411" y="204" on="0"/>
        <pt x="504" y="182" on="0"/>
        <pt x="575" y="182" on="1"/>
        <pt x="602" y="182" on="0"/>
        <pt x="663" y="189" on="0"/>
        <pt x="726" y="207" on="0"/>
        <pt x="787" y="239" on="0"/>
        <pt x="814" y="263" on="1"/>
        <pt x="497" y="604" on="1"/>
        <pt x="442" y="563" on="0"/>
        <pt x="378" y="501" on="0"/>
        <pt x="345" y="447" on="0"/>
        <pt x="336" y="395" on="0"/>
      </contour>
    </TTGlyph>
    <TTGlyph name="aogonek" xMin="127" yMin="-500" xMax="1022" yMax="1079">
      <contour>
        <pt x="127" y="299" on="1"/>
        <pt x="127" y="389" on="0"/>
        <pt x="180" y="513" on="0"/>
        <pt x="271" y="589" on="0"/>
        <pt x="394" y="623" on="0"/>
        <pt x="465" y="623" on="1"/>
        <pt x="537" y="623" on="0"/>
        <pt x="654" y="607" on="0"/>
        <pt x="697" y="597" on="1"/>
        <pt x="746" y="586" on="0"/>
        <pt x="786" y="572" on="1"/>
        <pt x="786" y="670" on="1"/>
        <pt x="786" y="707" on="0"/>
        <pt x="781" y="758" on="0"/>
        <pt x="769" y="796" on="0"/>
        <pt x="748" y="822" on="0"/>
        <pt x="733" y="834" on="1"/>
        <pt x="701" y="857" on="0"/>
        <pt x="589" y="877" on="0"/>
        <pt x="499" y="877" on="1"/>
        <pt x="442" y="877" on="0"/>
        <pt x="335" y="870" on="0"/>
        <pt x="293" y="865" on="1"/>
        <pt x="244" y="860" on="0"/>
        <pt x="200" y="854" on="1"/>
        <pt x="200" y="1020" on="1"/>
        <pt x="240" y="1036" on="0"/>
        <pt x="299" y="1049" on="1"/>
        <pt x="349" y="1060" on="0"/>
        <pt x="499" y="1079" on="0"/>
        <pt x="602" y="1079" on="1"/>
        <pt x="671" y="1079" on="0"/>
        <pt x="778" y="1068" on="0"/>
        <pt x="860" y="1042" on="0"/>
        <pt x="923" y="1000" on="0"/>
        <pt x="948" y="969" on="1"/>
        <pt x="969" y="943" on="0"/>
        <pt x="997" y="885" on="0"/>
        <pt x="1015" y="807" on="0"/>
        <pt x="1022" y="706" on="0"/>
        <pt x="1022" y="639" on="1"/>
        <pt x="1022" y="0" on="1"/>
        <pt x="928" y="-60" on="0"/>
        <pt x="850" y="-174" on="0"/>
        <pt x="850" y="-225" on="1"/>
        <pt x="850" y="-267" on="0"/>
        <pt x="899" y="-317" on="0"/>
        <pt x="950" y="-317" on="1"/>
        <pt x="979" y="-317" on="0"/>
        <pt x="999" y="-314" on="1"/>
        <pt x="1010" y="-313" on="0"/>
        <pt x="1020" y="-311" on="1"/>
        <pt x="1020" y="-479" on="1"/>
        <pt x="1001" y="-486" on="0"/>
        <pt x="976" y="-490" on="1"/>
        <pt x="955" y="-494" on="0"/>
        <pt x="896" y="-500" on="0"/>
        <pt x="861" y="-500" on="1"/>
        <pt x="810" y="-500" on="0"/>
        <pt x="725" y="-473" on="0"/>
        <pt x="663" y="-419" on="0"/>
        <pt x="628" y="-340" on="0"/>
        <pt x="628" y="-289" on="1"/>
        <pt x="628" y="-237" on="0"/>
        <pt x="664" y="-147" on="0"/>
        <pt x="720" y="-71" on="0"/>
        <pt x="787" y="-11" on="0"/>
        <pt x="818" y="11" on="1"/>
        <pt x="803" y="78" on="1"/>
        <pt x="759" y="47" on="0"/>
        <pt x="706" y="23" on="1"/>
        <pt x="660" y="3" on="0"/>
        <pt x="537" y="-31" on="0"/>
        <pt x="463" y="-31" on="1"/>
        <pt x="373" y="-31" on="0"/>
        <pt x="245" y="5" on="0"/>
        <pt x="164" y="83" on="0"/>
        <pt x="127" y="209" on="0"/>
      </contour>
      <contour>
        <pt x="370" y="299" on="1"/>
        <pt x="370" y="255" on="0"/>
        <pt x="392" y="203" on="0"/>
        <pt x="434" y="176" on="0"/>
        <pt x="495" y="168" on="0"/>
        <pt x="534" y="168" on="1"/>
        <pt x="585" y="168" on="0"/>
        <pt x="676" y="187" on="0"/>
        <pt x="711" y="198" on="1"/>
        <pt x="751" y="211" on="0"/>
        <pt x="786" y="228" on="1"/>
        <pt x="786" y="411" on="1"/>
        <pt x="754" y="417" on="0"/>
        <pt x="717" y="422" on="1"/>
        <pt x="685" y="427" on="0"/>
        <pt x="604" y="434" on="0"/>
        <pt x="559" y="434" on="1"/>
        <pt x="509" y="434" on="0"/>
        <pt x="438" y="425" on="0"/>
        <pt x="392" y="396" on="0"/>
        <pt x="370" y="343" on="0"/>
      </contour>
    </TTGlyph>
    <TTGlyph name="approxequal" xMin="60" yMin="169" xMax="1322" yMax="1005">
      <component glyphName="asciitilde" x="0" y="286" scalex="1.0" scaley="0.950012207031" flags="0x1004"/>
      <component glyphName="asciitilde" x="0" y="-133" scalex="1.0" scaley="0.950012207031" flags="0x1004"/>
    </TTGlyph>
    <TTGlyph name="aring" xMin="127" yMin="-31" xMax="1022" yMax="1632">
      <component glyphName="a" x="0" y="0" flags="0x1004"/>
      <component glyphName="ring" x="276" y="-19" flags="0x1004"/>
    </TTGlyph>
    <TTGlyph name="asciicircum" xMin="20" yMin="647" xMax="950" yMax="1427">
      <contour>
        <pt x="315" y="1427" on="1"/>
        <pt x="655" y="1427" on="1"/>
        <pt x="950" y="647" on="1"/>
        <pt x="690" y="647" on="1"/>
        <pt x="489" y="1237" on="1"/>
        <pt x="477" y="1237" on="1"/>
        <pt x="281" y="647" on="1"/>
        <pt x="20" y="647" on="1"/>
      </contour>
    </TTGlyph>
    <TTGlyph name="asciitilde" xMin="60" yMin="318" xMax="1322" yMax="757">
      <contour>
        <pt x="60" y="403" on="1"/>
        <pt x="63" y="477" on="0"/>
        <pt x="109" y="602" on="0"/>
        <pt x="191" y="695" on="0"/>
        <pt x="309" y="750" on="0"/>
        <pt x="384" y="754" on="1"/>
        <pt x="431" y="757" on="0"/>
        <pt x="540" y="728" on="0"/>
        <pt x="654" y="681" on="0"/>
        <pt x="768" y="625" on="0"/>
        <pt x="872" y="577" on="0"/>
        <pt x="963" y="547" on="0"/>
        <pt x="996" y="549" on="1"/>
        <pt x="1029" y="550" on="0"/>
        <pt x="1080" y="570" on="0"/>
        <pt x="1123" y="609" on="0"/>
        <pt x="1161" y="667" on="0"/>
        <pt x="1181" y="707" on="1"/>
        <pt x="1322" y="666" on="1"/>
        <pt x="1319" y="592" on="0"/>
        <pt x="1274" y="469" on="0"/>
        <pt x="1191" y="379" on="0"/>
        <pt x="1073" y="326" on="0"/>
        <pt x="998" y="322" on="1"/>
        <pt x="937" y="318" on="0"/>
        <pt x="823" y="345" on="0"/>
        <pt x="716" y="391" on="0"/>
        <pt x="615" y="447" on="0"/>
        <pt x="520" y="494" on="0"/>
        <pt x="429" y="523" on="0"/>
        <pt x="386" y="520" on="1"/>
        <pt x="320" y="517" on="0"/>
        <pt x="230" y="441" on="0"/>
        <pt x="202" y="362" on="1"/>
        <pt x="60" y="403" on="1"/>
      </contour>
    </TTGlyph>
    <TTGlyph name="asterisk" xMin="6" yMin="739" xMax="860" yMax="1554">
      <contour>
        <pt x="102" y="862" on="1"/>
        <pt x="283" y="1094" on="1"/>
        <pt x="6" y="1174" on="1"/>
        <pt x="68" y="1366" on="1"/>
        <pt x="342" y="1268" on="1"/>
        <pt x="334" y="1554" on="1"/>
        <pt x="537" y="1554" on="1"/>
        <pt x="526" y="1260" on="1"/>
        <pt x="797" y="1362" on="1"/>
        <pt x="860" y="1165" on="1"/>
        <pt x="577" y="1085" on="1"/>
        <pt x="758" y="860" on="1"/>
        <pt x="592" y="739" on="1"/>
        <pt x="428" y="979" on="1"/>
        <pt x="268" y="741" on="1"/>
      </contour>
    </TTGlyph>
    <TTGlyph name="at" xMin="126" yMin="-31" xMax="1595" yMax="1554">
      <contour>
        <pt x="126" y="776" on="1"/>
        <pt x="126" y="990" on="0"/>
        <pt x="227" y="1287" on="0"/>
        <pt x="420" y="1472" on="0"/>
        <pt x="702" y="1554" on="0"/>
        <pt x="882" y="1554" on="1"/>
        <pt x="1023" y="1554" on="0"/>
        <pt x="1239" y="1519" on="0"/>
        <pt x="1397" y="1443" on="0"/>
        <pt x="1504" y="1322" on="0"/>
        <pt x="1568" y="1149" on="0"/>
        <pt x="1595" y="921" on="0"/>
        <pt x="1595" y="776" on="1"/>
        <pt x="1595" y="655" on="0"/>
        <pt x="1539" y="484" on="0"/>
        <pt x="1442" y="376" on="0"/>
        <pt x="1312" y="325" on="0"/>
        <pt x="1238" y="324" on="1"/>
        <pt x="1230" y="324" on="0"/>
        <pt x="1216" y="323" on="0"/>
        <pt x="1208" y="323" on="1"/>
        <pt x="1170" y="323" on="0"/>
        <pt x="1110" y="329" on="0"/>
        <pt x="1088" y="333" on="1"/>
        <pt x="1062" y="337" on="0"/>
        <pt x="1042" y="344" on="1"/>
        <pt x="1015" y="420" on="1"/>
        <pt x="990" y="405" on="0"/>
        <pt x="933" y="372" on="0"/>
        <pt x="868" y="343" on="0"/>
        <pt x="797" y="324" on="0"/>
        <pt x="759" y="324" on="1"/>
        <pt x="616" y="324" on="0"/>
        <pt x="472" y="535" on="0"/>
        <pt x="472" y="756" on="1"/>
        <pt x="472" y="977" on="0"/>
        <pt x="616" y="1188" on="0"/>
        <pt x="759" y="1188" on="1"/>
        <pt x="811" y="1188" on="0"/>
        <pt x="905" y="1164" on="0"/>
        <pt x="941" y="1150" on="1"/>
        <pt x="983" y="1133" on="0"/>
        <pt x="1019" y="1112" on="1"/>
        <pt x="1044" y="1174" on="1"/>
        <pt x="1210" y="1174" on="1"/>
        <pt x="1210" y="494" on="1"/>
        <pt x="1265" y="494" on="0"/>
        <pt x="1338" y="518" on="0"/>
        <pt x="1382" y="580" on="0"/>
        <pt x="1400" y="688" on="0"/>
        <pt x="1400" y="772" on="1"/>
        <pt x="1400" y="875" on="0"/>
        <pt x="1391" y="1042" on="0"/>
        <pt x="1356" y="1173" on="0"/>
        <pt x="1289" y="1270" on="0"/>
        <pt x="1174" y="1333" on="0"/>
        <pt x="1003" y="1364" on="0"/>
        <pt x="882" y="1364" on="1"/>
        <pt x="725" y="1364" on="0"/>
        <pt x="511" y="1295" on="0"/>
        <pt x="379" y="1150" on="0"/>
        <pt x="321" y="926" on="0"/>
        <pt x="321" y="772" on="1"/>
        <pt x="321" y="611" on="0"/>
        <pt x="376" y="380" on="0"/>
        <pt x="506" y="231" on="0"/>
        <pt x="721" y="160" on="0"/>
        <pt x="882" y="160" on="1"/>
        <pt x="1039" y="160" on="0"/>
        <pt x="1253" y="179" on="0"/>
        <pt x="1320" y="190" on="1"/>
        <pt x="1398" y="203" on="0"/>
        <pt x="1447" y="221" on="1"/>
        <pt x="1447" y="53" on="1"/>
        <pt x="1390" y="29" on="0"/>
        <pt x="1307" y="11" on="1"/>
        <pt x="1236" y="-5" on="0"/>
        <pt x="1025" y="-31" on="0"/>
        <pt x="882" y="-31" on="1"/>
        <pt x="691" y="-31" on="0"/>
        <pt x="408" y="54" on="0"/>
        <pt x="219" y="245" on="0"/>
        <pt x="126" y="553" on="0"/>
      </contour>
      <contour>
        <pt x="837" y="502" on="1"/>
        <pt x="868" y="502" on="0"/>
        <pt x="926" y="510" on="0"/>
        <pt x="949" y="515" on="1"/>
        <pt x="975" y="520" on="0"/>
        <pt x="999" y="528" on="1"/>
        <pt x="999" y="971" on="1"/>
        <pt x="974" y="980" on="0"/>
        <pt x="948" y="988" on="1"/>
        <pt x="925" y="995" on="0"/>
        <pt x="867" y="1006" on="0"/>
        <pt x="835" y="1006" on="1"/>
        <pt x="803" y="1006" on="0"/>
        <pt x="748" y="982" on="0"/>
        <pt x="707" y="924" on="0"/>
        <pt x="683" y="828" on="0"/>
        <pt x="683" y="756" on="1"/>
        <pt x="683" y="678" on="0"/>
        <pt x="706" y="579" on="0"/>
        <pt x="747" y="523" on="0"/>
        <pt x="803" y="502" on="0"/>
      </contour>
    </TTGlyph>
    <TTGlyph name="atilde" xMin="127" yMin="-31" xMax="1022" yMax="1480">
      <component glyphName="a" x="0" y="0" flags="0x1004"/>
      <component glyphName="tilde" x="121" y="0" flags="0x1004"/>
    </TTGlyph>
    <TTGlyph name="b" xMin="166" yMin="-31" xMax="1116" yMax="1554">
      <contour>
        <pt x="166" y="1554" on="1"/>
        <pt x="403" y="1554" on="1"/>
        <pt x="403" y="1010" on="1"/>
        <pt x="450" y="1030" on="0"/>
        <pt x="505" y="1047" on="1"/>
        <pt x="553" y="1061" on="0"/>
        <pt x="681" y="1085" on="0"/>
        <pt x="756" y="1085" on="1"/>
        <pt x="862" y="1085" on="0"/>
        <pt x="1001" y="1010" on="0"/>
        <pt x="1083" y="867" on="0"/>
        <pt x="1116" y="662" on="0"/>
        <pt x="1116" y="532" on="1"/>
        <pt x="1116" y="376" on="0"/>
        <pt x="1066" y="162" on="0"/>
        <pt x="972" y="28" on="0"/>
        <pt x="833" y="-31" on="0"/>
        <pt x="745" y="-31" on="1"/>
        <pt x="669" y="-31" on="0"/>
        <pt x="538" y="4" on="0"/>
        <pt x="489" y="26" on="1"/>
        <pt x="432" y="52" on="0"/>
        <pt x="385" y="84" on="1"/>
        <pt x="371" y="0" on="1"/>
        <pt x="166" y="0" on="1"/>
      </contour>
      <contour>
        <pt x="403" y="238" on="1"/>
        <pt x="435" y="222" on="0"/>
        <pt x="476" y="210" on="1"/>
        <pt x="511" y="199" on="0"/>
        <pt x="609" y="182" on="0"/>
        <pt x="670" y="182" on="1"/>
        <pt x="730" y="182" on="0"/>
        <pt x="806" y="217" on="0"/>
        <pt x="849" y="296" on="0"/>
        <pt x="866" y="425" on="0"/>
        <pt x="866" y="520" on="1"/>
        <pt x="866" y="626" on="0"/>
        <pt x="852" y="763" on="0"/>
        <pt x="807" y="843" on="0"/>
        <pt x="720" y="874" on="0"/>
        <pt x="647" y="874" on="1"/>
        <pt x="601" y="874" on="0"/>
        <pt x="515" y="862" on="0"/>
        <pt x="480" y="855" on="1"/>
        <pt x="440" y="846" on="0"/>
        <pt x="403" y="836" on="1"/>
      </contour>
    </TTGlyph>
    <TTGlyph name="backslash" xMin="30" yMin="0" xMax="915" yMax="1554">
      <contour>
        <pt x="30" y="1554" on="1"/>
        <pt x="272" y="1554" on="1"/>
        <pt x="915" y="0" on="1"/>
        <pt x="673" y="0" on="1"/>
      </contour>
    </TTGlyph>
    <TTGlyph name="bar" xMin="227" yMin="-487" xMax="456" yMax="1589">
      <contour>
        <pt x="227" y="1589" on="1"/>
        <pt x="456" y="1589" on="1"/>
        <pt x="456" y="-487" on="1"/>
        <pt x="227" y="-487" on="1"/>
      </contour>
    </TTGlyph>
    <TTGlyph name="braceleft" xMin="82" yMin="-297" xMax="756" yMax="1907">
      <contour>
        <pt x="256" y="444" on="1"/>
        <pt x="256" y="519" on="0"/>
        <pt x="235" y="611" on="0"/>
        <pt x="191" y="665" on="0"/>
        <pt x="126" y="691" on="0"/>
        <pt x="82" y="700" on="1"/>
        <pt x="82" y="911" on="1"/>
        <pt x="126" y="920" on="0"/>
        <pt x="191" y="946" on="0"/>
        <pt x="235" y="999" on="0"/>
        <pt x="256" y="1090" on="0"/>
        <pt x="256" y="1165" on="1"/>
        <pt x="256" y="1599" on="1"/>
        <pt x="256" y="1676" on="0"/>
        <pt x="282" y="1791" on="0"/>
        <pt x="340" y="1868" on="0"/>
        <pt x="436" y="1907" on="0"/>
        <pt x="506" y="1907" on="1"/>
        <pt x="566" y="1907" on="0"/>
        <pt x="658" y="1899" on="0"/>
        <pt x="690" y="1894" on="1"/>
        <pt x="728" y="1889" on="0"/>
        <pt x="756" y="1882" on="1"/>
        <pt x="756" y="1712" on="1"/>
        <pt x="664" y="1712" on="0"/>
        <pt x="556" y="1701" on="0"/>
        <pt x="500" y="1663" on="0"/>
        <pt x="485" y="1590" on="0"/>
        <pt x="485" y="1528" on="1"/>
        <pt x="485" y="1030" on="1"/>
        <pt x="485" y="968" on="0"/>
        <pt x="439" y="885" on="0"/>
        <pt x="381" y="833" on="0"/>
        <pt x="325" y="808" on="0"/>
        <pt x="315" y="805" on="1"/>
        <pt x="324" y="803" on="0"/>
        <pt x="380" y="779" on="0"/>
        <pt x="439" y="728" on="0"/>
        <pt x="485" y="644" on="0"/>
        <pt x="485" y="582" on="1"/>
        <pt x="485" y="84" on="1"/>
        <pt x="485" y="21" on="0"/>
        <pt x="500" y="-52" on="0"/>
        <pt x="556" y="-90" on="0"/>
        <pt x="664" y="-100" on="0"/>
        <pt x="756" y="-100" on="1"/>
        <pt x="756" y="-270" on="1"/>
        <pt x="728" y="-278" on="0"/>
        <pt x="690" y="-284" on="1"/>
        <pt x="658" y="-289" on="0"/>
        <pt x="566" y="-297" on="0"/>
        <pt x="506" y="-297" on="1"/>
        <pt x="436" y="-297" on="0"/>
        <pt x="340" y="-258" on="0"/>
        <pt x="282" y="-181" on="0"/>
        <pt x="256" y="-65" on="0"/>
        <pt x="256" y="12" on="1"/>
      </contour>
    </TTGlyph>
    <TTGlyph name="braceright" xMin="16" yMin="-297" xMax="690" yMax="1907">
      <contour>
        <pt x="16" y="-100" on="1"/>
        <pt x="108" y="-100" on="0"/>
        <pt x="216" y="-90" on="0"/>
        <pt x="271" y="-52" on="0"/>
        <pt x="286" y="21" on="0"/>
        <pt x="286" y="84" on="1"/>
        <pt x="286" y="582" on="1"/>
        <pt x="286" y="644" on="0"/>
        <pt x="332" y="728" on="0"/>
        <pt x="392" y="779" on="0"/>
        <pt x="447" y="803" on="0"/>
        <pt x="456" y="805" on="1"/>
        <pt x="446" y="808" on="0"/>
        <pt x="391" y="833" on="0"/>
        <pt x="332" y="885" on="0"/>
        <pt x="286" y="968" on="0"/>
        <pt x="286" y="1030" on="1"/>
        <pt x="286" y="1528" on="1"/>
        <pt x="286" y="1590" on="0"/>
        <pt x="271" y="1663" on="0"/>
        <pt x="216" y="1701" on="0"/>
        <pt x="108" y="1712" on="0"/>
        <pt x="16" y="1712" on="1"/>
        <pt x="16" y="1882" on="1"/>
        <pt x="44" y="1889" on="0"/>
        <pt x="82" y="1894" on="1"/>
        <pt x="114" y="1899" on="0"/>
        <pt x="206" y="1907" on="0"/>
        <pt x="266" y="1907" on="1"/>
        <pt x="336" y="1907" on="0"/>
        <pt x="431" y="1868" on="0"/>
        <pt x="490" y="1791" on="0"/>
        <pt x="516" y="1676" on="0"/>
        <pt x="516" y="1599" on="1"/>
        <pt x="516" y="1165" on="1"/>
        <pt x="516" y="1090" on="0"/>
        <pt x="537" y="999" on="0"/>
        <pt x="581" y="946" on="0"/>
        <pt x="646" y="920" on="0"/>
        <pt x="690" y="911" on="1"/>
        <pt x="690" y="700" on="1"/>
        <pt x="646" y="691" on="0"/>
        <pt x="581" y="665" on="0"/>
        <pt x="537" y="611" on="0"/>
        <pt x="516" y="519" on="0"/>
        <pt x="516" y="444" on="1"/>
        <pt x="516" y="12" on="1"/>
        <pt x="516" y="-65" on="0"/>
        <pt x="490" y="-181" on="0"/>
        <pt x="431" y="-258" on="0"/>
        <pt x="336" y="-297" on="0"/>
        <pt x="266" y="-297" on="1"/>
        <pt x="206" y="-297" on="0"/>
        <pt x="114" y="-289" on="0"/>
        <pt x="82" y="-284" on="1"/>
        <pt x="44" y="-278" on="0"/>
        <pt x="16" y="-270" on="1"/>
      </contour>
    </TTGlyph>
    <TTGlyph name="bracketleft" xMin="182" yMin="-330" xMax="680" yMax="1944">
      <contour>
        <pt x="182" y="1944" on="1"/>
        <pt x="680" y="1944" on="1"/>
        <pt x="680" y="1718" on="1"/>
        <pt x="416" y="1718" on="1"/>
        <pt x="416" y="-104" on="1"/>
        <pt x="680" y="-104" on="1"/>
        <pt x="680" y="-330" on="1"/>
        <pt x="182" y="-330" on="1"/>
      </contour>
    </TTGlyph>
    <TTGlyph name="bracketright" xMin="0" yMin="-330" xMax="498" yMax="1944">
      <contour>
        <pt x="262" y="-104" on="1"/>
        <pt x="262" y="1718" on="1"/>
        <pt x="0" y="1718" on="1"/>
        <pt x="0" y="1944" on="1"/>
        <pt x="498" y="1944" on="1"/>
        <pt x="498" y="-330" on="1"/>
        <pt x="0" y="-330" on="1"/>
        <pt x="0" y="-104" on="1"/>
      </contour>
    </TTGlyph>
    <TTGlyph name="breve" xMin="61" yMin="1176" xMax="748" yMax="1530">
      <contour>
        <pt x="406" y="1176" on="1"/>
        <pt x="318" y="1176" on="0"/>
        <pt x="188" y="1220" on="0"/>
        <pt x="103" y="1301" on="0"/>
        <pt x="61" y="1416" on="0"/>
        <pt x="61" y="1486" on="1"/>
        <pt x="61" y="1497" on="0"/>
        <pt x="62" y="1519" on="0"/>
        <pt x="63" y="1530" on="1"/>
        <pt x="184" y="1530" on="1"/>
        <pt x="198" y="1476" on="0"/>
        <pt x="236" y="1408" on="0"/>
        <pt x="289" y="1370" on="0"/>
        <pt x="360" y="1356" on="0"/>
        <pt x="406" y="1356" on="1"/>
        <pt x="452" y="1356" on="0"/>
        <pt x="521" y="1369" on="0"/>
        <pt x="574" y="1407" on="0"/>
        <pt x="612" y="1475" on="0"/>
        <pt x="627" y="1530" on="1"/>
        <pt x="745" y="1530" on="1"/>
        <pt x="748" y="1504" on="0"/>
        <pt x="748" y="1480" on="1"/>
        <pt x="748" y="1411" on="0"/>
        <pt x="706" y="1299" on="0"/>
        <pt x="621" y="1219" on="0"/>
        <pt x="493" y="1176" on="0"/>
      </contour>
    </TTGlyph>
    <TTGlyph name="breve.cap" xMin="-42" yMin="1549" xMax="645" yMax="1903">
      <contour>
        <pt x="303" y="1549" on="1"/>
        <pt x="215" y="1549" on="0"/>
        <pt x="85" y="1593" on="0"/>
        <pt x="0" y="1674" on="0"/>
        <pt x="-42" y="1789" on="0"/>
        <pt x="-42" y="1859" on="1"/>
        <pt x="-42" y="1870" on="0"/>
        <pt x="-41" y="1892" on="0"/>
        <pt x="-40" y="1903" on="1"/>
        <pt x="81" y="1903" on="1"/>
        <pt x="95" y="1849" on="0"/>
        <pt x="133" y="1781" on="0"/>
        <pt x="186" y="1743" on="0"/>
        <pt x="257" y="1729" on="0"/>
        <pt x="303" y="1729" on="1"/>
        <pt x="349" y="1729" on="0"/>
        <pt x="418" y="1742" on="0"/>
        <pt x="471" y="1780" on="0"/>
        <pt x="509" y="1848" on="0"/>
        <pt x="524" y="1903" on="1"/>
        <pt x="642" y="1903" on="1"/>
        <pt x="645" y="1877" on="0"/>
        <pt x="645" y="1853" on="1"/>
        <pt x="645" y="1784" on="0"/>
        <pt x="603" y="1672" on="0"/>
        <pt x="518" y="1592" on="0"/>
        <pt x="390" y="1549" on="0"/>
      </contour>
    </TTGlyph>
    <TTGlyph name="brokenbar" xMin="227" yMin="-487" xMax="456" yMax="1427">
      <contour>
        <pt x="227" y="1427" on="1"/>
        <pt x="456" y="1427" on="1"/>
        <pt x="456" y="594" on="1"/>
        <pt x="227" y="594" on="1"/>
      </contour>
      <contour>
        <pt x="456" y="348" on="1"/>
        <pt x="456" y="-487" on="1"/>
        <pt x="227" y="-487" on="1"/>
        <pt x="227" y="348" on="1"/>
      </contour>
    </TTGlyph>
    <TTGlyph name="bullet" xMin="102" yMin="344" xMax="553" yMax="795">
      <contour>
        <pt x="326" y="344" on="1"/>
        <pt x="261" y="344" on="0"/>
        <pt x="174" y="364" on="0"/>
        <pt x="123" y="415" on="0"/>
        <pt x="102" y="502" on="0"/>
        <pt x="102" y="569" on="1"/>
        <pt x="102" y="637" on="0"/>
        <pt x="123" y="724" on="0"/>
        <pt x="174" y="775" on="0"/>
        <pt x="261" y="795" on="0"/>
        <pt x="326" y="795" on="1"/>
        <pt x="393" y="795" on="0"/>
        <pt x="481" y="775" on="0"/>
        <pt x="533" y="724" on="0"/>
        <pt x="553" y="637" on="0"/>
        <pt x="553" y="569" on="1"/>
        <pt x="553" y="502" on="0"/>
        <pt x="533" y="415" on="0"/>
        <pt x="481" y="364" on="0"/>
        <pt x="393" y="344" on="0"/>
      </contour>
    </TTGlyph>
    <TTGlyph name="c" xMin="94" yMin="-27" xMax="877" yMax="1079">
      <contour>
        <pt x="94" y="528" on="1"/>
        <pt x="94" y="678" on="0"/>
        <pt x="167" y="888" on="0"/>
        <pt x="292" y="1019" on="0"/>
        <pt x="460" y="1079" on="0"/>
        <pt x="555" y="1079" on="1"/>
        <pt x="628" y="1079" on="0"/>
        <pt x="744" y="1060" on="0"/>
        <pt x="785" y="1049" on="1"/>
        <pt x="833" y="1036" on="0"/>
        <pt x="868" y="1020" on="1"/>
        <pt x="868" y="856" on="1"/>
        <pt x="834" y="859" on="0"/>
        <pt x="794" y="863" on="1"/>
        <pt x="760" y="865" on="0"/>
        <pt x="674" y="870" on="0"/>
        <pt x="627" y="870" on="1"/>
        <pt x="552" y="870" on="0"/>
        <pt x="444" y="844" on="0"/>
        <pt x="376" y="771" on="0"/>
        <pt x="344" y="638" on="0"/>
        <pt x="344" y="530" on="1"/>
        <pt x="344" y="420" on="0"/>
        <pt x="381" y="284" on="0"/>
        <pt x="457" y="209" on="0"/>
        <pt x="571" y="184" on="0"/>
        <pt x="649" y="184" on="1"/>
        <pt x="698" y="184" on="0"/>
        <pt x="781" y="189" on="0"/>
        <pt x="812" y="193" on="1"/>
        <pt x="848" y="197" on="0"/>
        <pt x="877" y="203" on="1"/>
        <pt x="877" y="37" on="1"/>
        <pt x="845" y="19" on="0"/>
        <pt x="799" y="5" on="1"/>
        <pt x="760" y="-7" on="0"/>
        <pt x="642" y="-27" on="0"/>
        <pt x="563" y="-27" on="1"/>
        <pt x="466" y="-27" on="0"/>
        <pt x="295" y="26" on="0"/>
        <pt x="168" y="154" on="0"/>
        <pt x="94" y="367" on="0"/>
      </contour>
    </TTGlyph>
    <TTGlyph name="cacute" xMin="94" yMin="-27" xMax="877" yMax="1661">
      <component glyphName="c" x="0" y="0" flags="0x1204"/>
      <component glyphName="acute" x="215" y="0" flags="0x1004"/>
    </TTGlyph>
    <TTGlyph name="caron" xMin="51" yMin="1174" xMax="817" yMax="1659">
      <contour>
        <pt x="434" y="1174" on="1"/>
        <pt x="390" y="1174" on="0"/>
        <pt x="324" y="1186" on="0"/>
        <pt x="271" y="1217" on="0"/>
        <pt x="227" y="1269" on="0"/>
        <pt x="205" y="1309" on="1"/>
        <pt x="51" y="1585" on="1"/>
        <pt x="164" y="1659" on="1"/>
        <pt x="434" y="1331" on="1"/>
        <pt x="704" y="1659" on="1"/>
        <pt x="817" y="1585" on="1"/>
        <pt x="664" y="1309" on="1"/>
        <pt x="642" y="1269" on="0"/>
        <pt x="597" y="1217" on="0"/>
        <pt x="544" y="1186" on="0"/>
        <pt x="478" y="1174" on="0"/>
      </contour>
    </TTGlyph>
    <TTGlyph name="caron.cap" xMin="61" yMin="1518" xMax="721" yMax="1962">
      <contour>
        <pt x="391" y="1518" on="1"/>
        <pt x="347" y="1518" on="0"/>
        <pt x="277" y="1528" on="0"/>
        <pt x="222" y="1558" on="0"/>
        <pt x="179" y="1611" on="0"/>
        <pt x="162" y="1653" on="1"/>
        <pt x="61" y="1905" on="1"/>
        <pt x="178" y="1962" on="1"/>
        <pt x="391" y="1653" on="1"/>
        <pt x="604" y="1962" on="1"/>
        <pt x="721" y="1905" on="1"/>
        <pt x="621" y="1653" on="1"/>
        <pt x="604" y="1611" on="0"/>
        <pt x="560" y="1558" on="0"/>
        <pt x="505" y="1528" on="0"/>
        <pt x="435" y="1518" on="0"/>
      </contour>
    </TTGlyph>
    <TTGlyph name="ccaron" xMin="94" yMin="-27" xMax="952" yMax="1640">
      <component glyphName="c" x="0" y="0" flags="0x1004"/>
      <component glyphName="caron" x="135" y="-19" flags="0x1004"/>
    </TTGlyph>
    <TTGlyph name="ccedilla" xMin="94" yMin="-485" xMax="877" yMax="1079">
      <component glyphName="c" x="0" y="0" flags="0x1204"/>
      <component glyphName="cedilla" x="283" y="0" flags="0x1004"/>
    </TTGlyph>
    <TTGlyph name="ccircumflex" xMin="94" yMin="-27" xMax="923" yMax="1595">
      <component glyphName="c" x="0" y="0" flags="0x1004"/>
      <component glyphName="circumflex" x="106" y="0" flags="0x1004"/>
    </TTGlyph>
    <TTGlyph name="cdotaccent" xMin="94" yMin="-27" xMax="877" yMax="1477">
      <component glyphName="c" x="0" y="0" flags="0x1204"/>
      <component glyphName="dotaccent" x="346" y="0" flags="0x1004"/>
    </TTGlyph>
    <TTGlyph name="cedilla" xMin="61" yMin="-485" xMax="550" yMax="0">
      <contour>
        <pt x="406" y="0" on="1"/>
        <pt x="379" y="-92" on="1"/>
        <pt x="415" y="-89" on="0"/>
        <pt x="477" y="-106" on="0"/>
        <pt x="523" y="-144" on="0"/>
        <pt x="550" y="-204" on="0"/>
        <pt x="550" y="-244" on="1"/>
        <pt x="550" y="-255" on="0"/>
        <pt x="547" y="-279" on="0"/>
        <pt x="545" y="-293" on="1"/>
        <pt x="534" y="-346" on="0"/>
        <pt x="493" y="-419" on="0"/>
        <pt x="425" y="-465" on="0"/>
        <pt x="327" y="-485" on="0"/>
        <pt x="260" y="-485" on="1"/>
        <pt x="223" y="-485" on="0"/>
        <pt x="152" y="-474" on="0"/>
        <pt x="124" y="-466" on="1"/>
        <pt x="91" y="-457" on="0"/>
        <pt x="61" y="-446" on="1"/>
        <pt x="96" y="-313" on="1"/>
        <pt x="112" y="-317" on="0"/>
        <pt x="135" y="-321" on="1"/>
        <pt x="154" y="-324" on="0"/>
        <pt x="209" y="-328" on="0"/>
        <pt x="244" y="-328" on="1"/>
        <pt x="295" y="-328" on="0"/>
        <pt x="348" y="-304" on="0"/>
        <pt x="356" y="-266" on="1"/>
        <pt x="365" y="-195" on="0"/>
        <pt x="256" y="-195" on="1"/>
        <pt x="239" y="-195" on="0"/>
        <pt x="202" y="-198" on="0"/>
        <pt x="185" y="-200" on="1"/>
        <pt x="166" y="-203" on="0"/>
        <pt x="147" y="-205" on="1"/>
        <pt x="201" y="0" on="1"/>
      </contour>
    </TTGlyph>
    <TTGlyph name="cent" xMin="94" yMin="-205" xMax="877" yMax="1270">
      <contour>
        <pt x="450" y="-18" on="1"/>
        <pt x="373" y="-5" on="0"/>
        <pt x="243" y="67" on="0"/>
        <pt x="148" y="197" on="0"/>
        <pt x="94" y="391" on="0"/>
        <pt x="94" y="528" on="1"/>
        <pt x="94" y="657" on="0"/>
        <pt x="148" y="847" on="0"/>
        <pt x="243" y="979" on="0"/>
        <pt x="373" y="1055" on="0"/>
        <pt x="450" y="1069" on="1"/>
        <pt x="450" y="1270" on="1"/>
        <pt x="686" y="1270" on="1"/>
        <pt x="686" y="1070" on="1"/>
        <pt x="729" y="1063" on="0"/>
        <pt x="797" y="1047" on="0"/>
        <pt x="820" y="1039" on="1"/>
        <pt x="847" y="1030" on="0"/>
        <pt x="868" y="1020" on="1"/>
        <pt x="868" y="856" on="1"/>
        <pt x="834" y="859" on="0"/>
        <pt x="794" y="863" on="1"/>
        <pt x="760" y="865" on="0"/>
        <pt x="674" y="870" on="0"/>
        <pt x="627" y="870" on="1"/>
        <pt x="552" y="870" on="0"/>
        <pt x="444" y="844" on="0"/>
        <pt x="376" y="771" on="0"/>
        <pt x="344" y="638" on="0"/>
        <pt x="344" y="530" on="1"/>
        <pt x="344" y="420" on="0"/>
        <pt x="381" y="284" on="0"/>
        <pt x="457" y="209" on="0"/>
        <pt x="571" y="184" on="0"/>
        <pt x="649" y="184" on="1"/>
        <pt x="698" y="184" on="0"/>
        <pt x="781" y="189" on="0"/>
        <pt x="812" y="193" on="1"/>
        <pt x="848" y="197" on="0"/>
        <pt x="877" y="203" on="1"/>
        <pt x="877" y="37" on="1"/>
        <pt x="857" y="27" on="0"/>
        <pt x="829" y="16" on="1"/>
        <pt x="805" y="7" on="0"/>
        <pt x="734" y="-12" on="0"/>
        <pt x="686" y="-19" on="1"/>
        <pt x="686" y="-205" on="1"/>
        <pt x="450" y="-205" on="1"/>
        <pt x="450" y="-18" on="1"/>
      </contour>
    </TTGlyph>
    <TTGlyph name="circumflex" xMin="51" yMin="1110" xMax="817" yMax="1595">
      <contour>
        <pt x="51" y="1184" on="1"/>
        <pt x="205" y="1460" on="1"/>
        <pt x="227" y="1500" on="0"/>
        <pt x="271" y="1552" on="0"/>
        <pt x="324" y="1583" on="0"/>
        <pt x="390" y="1595" on="0"/>
        <pt x="434" y="1595" on="1"/>
        <pt x="478" y="1595" on="0"/>
        <pt x="544" y="1583" on="0"/>
        <pt x="597" y="1552" on="0"/>
        <pt x="642" y="1500" on="0"/>
        <pt x="664" y="1460" on="1"/>
        <pt x="817" y="1184" on="1"/>
        <pt x="704" y="1110" on="1"/>
        <pt x="434" y="1437" on="1"/>
        <pt x="164" y="1110" on="1"/>
      </contour>
    </TTGlyph>
    <TTGlyph name="circumflex.cap" xMin="61" yMin="1518" xMax="721" yMax="1962">
      <contour>
        <pt x="178" y="1518" on="1"/>
        <pt x="61" y="1575" on="1"/>
        <pt x="162" y="1827" on="1"/>
        <pt x="179" y="1869" on="0"/>
        <pt x="222" y="1922" on="0"/>
        <pt x="277" y="1951" on="0"/>
        <pt x="347" y="1962" on="0"/>
        <pt x="391" y="1962" on="1"/>
        <pt x="435" y="1962" on="0"/>
        <pt x="505" y="1951" on="0"/>
        <pt x="560" y="1922" on="0"/>
        <pt x="604" y="1869" on="0"/>
        <pt x="621" y="1827" on="1"/>
        <pt x="721" y="1575" on="1"/>
        <pt x="604" y="1518" on="1"/>
        <pt x="391" y="1827" on="1"/>
      </contour>
    </TTGlyph>
    <TTGlyph name="colon" xMin="103" yMin="-14" xMax="409" yMax="971">
      <component glyphName="period" x="0" y="0" flags="0x1204"/>
      <component glyphName="period" x="0" y="680" flags="0x1004"/>
    </TTGlyph>
    <TTGlyph name="comma" xMin="103" yMin="-399" xMax="411" yMax="281">
      <contour>
        <pt x="105" y="127" on="1"/>
        <pt x="105" y="172" on="0"/>
        <pt x="119" y="232" on="0"/>
        <pt x="154" y="267" on="0"/>
        <pt x="212" y="281" on="0"/>
        <pt x="257" y="281" on="1"/>
        <pt x="308" y="281" on="0"/>
        <pt x="369" y="252" on="0"/>
        <pt x="401" y="198" on="0"/>
        <pt x="411" y="120" on="0"/>
        <pt x="411" y="70" on="1"/>
        <pt x="411" y="-5" on="0"/>
        <pt x="365" y="-156" on="0"/>
        <pt x="298" y="-285" on="0"/>
        <pt x="222" y="-381" on="0"/>
        <pt x="193" y="-399" on="1"/>
        <pt x="103" y="-334" on="1"/>
        <pt x="125" y="-304" on="0"/>
        <pt x="165" y="-228" on="0"/>
        <pt x="197" y="-144" on="0"/>
        <pt x="217" y="-58" on="0"/>
        <pt x="218" y="-19" on="1"/>
        <pt x="158" y="-11" on="0"/>
        <pt x="105" y="54" on="0"/>
      </contour>
    </TTGlyph>
    <TTGlyph name="commaaccent" xMin="93" yMin="-500" xMax="370" yMax="-91">
      <contour>
        <pt x="190" y="-91" on="1"/>
        <pt x="204" y="-91" on="0"/>
        <pt x="221" y="-93" on="1"/>
        <pt x="235" y="-95" on="0"/>
        <pt x="273" y="-102" on="0"/>
        <pt x="295" y="-109" on="1"/>
        <pt x="334" y="-122" on="0"/>
        <pt x="370" y="-153" on="0"/>
        <pt x="370" y="-179" on="1"/>
        <pt x="370" y="-197" on="0"/>
        <pt x="354" y="-246" on="0"/>
        <pt x="339" y="-279" on="1"/>
        <pt x="322" y="-315" on="0"/>
        <pt x="279" y="-394" on="0"/>
        <pt x="260" y="-426" on="1"/>
        <pt x="237" y="-464" on="0"/>
        <pt x="215" y="-500" on="1"/>
        <pt x="93" y="-445" on="1"/>
        <pt x="190" y="-91" on="1"/>
      </contour>
    </TTGlyph>
    <TTGlyph name="copyright" xMin="35" yMin="211" xMax="1415" yMax="1591">
      <contour>
        <pt x="725" y="211" on="1"/>
        <pt x="582" y="211" on="0"/>
        <pt x="331" y="319" on="0"/>
        <pt x="143" y="507" on="0"/>
        <pt x="35" y="758" on="0"/>
        <pt x="35" y="901" on="1"/>
        <pt x="35" y="1045" on="0"/>
        <pt x="143" y="1296" on="0"/>
        <pt x="331" y="1483" on="0"/>
        <pt x="582" y="1591" on="0"/>
        <pt x="725" y="1591" on="1"/>
        <pt x="868" y="1591" on="0"/>
        <pt x="1119" y="1483" on="0"/>
        <pt x="1307" y="1296" on="0"/>
        <pt x="1415" y="1045" on="0"/>
        <pt x="1415" y="901" on="1"/>
        <pt x="1415" y="758" on="0"/>
        <pt x="1307" y="507" on="0"/>
        <pt x="1119" y="319" on="0"/>
        <pt x="868" y="211" on="0"/>
      </contour>
      <contour>
        <pt x="725" y="393" on="1"/>
        <pt x="830" y="393" on="0"/>
        <pt x="1016" y="474" on="0"/>
        <pt x="1155" y="612" on="0"/>
        <pt x="1235" y="797" on="0"/>
        <pt x="1235" y="901" on="1"/>
        <pt x="1235" y="1006" on="0"/>
        <pt x="1155" y="1192" on="0"/>
        <pt x="1016" y="1331" on="0"/>
        <pt x="830" y="1411" on="0"/>
        <pt x="725" y="1411" on="1"/>
        <pt x="620" y="1411" on="0"/>
        <pt x="435" y="1331" on="0"/>
        <pt x="297" y="1192" on="0"/>
        <pt x="217" y="1006" on="0"/>
        <pt x="217" y="901" on="1"/>
        <pt x="217" y="797" on="0"/>
        <pt x="297" y="612" on="0"/>
        <pt x="435" y="474" on="0"/>
        <pt x="620" y="393" on="0"/>
      </contour>
      <contour>
        <pt x="735" y="530" on="1"/>
        <pt x="667" y="530" on="0"/>
        <pt x="551" y="566" on="0"/>
        <pt x="466" y="652" on="0"/>
        <pt x="418" y="795" on="0"/>
        <pt x="418" y="901" on="1"/>
        <pt x="418" y="1009" on="0"/>
        <pt x="466" y="1153" on="0"/>
        <pt x="551" y="1239" on="0"/>
        <pt x="667" y="1274" on="0"/>
        <pt x="735" y="1274" on="1"/>
        <pt x="789" y="1274" on="0"/>
        <pt x="869" y="1259" on="0"/>
        <pt x="895" y="1251" on="1"/>
        <pt x="926" y="1241" on="0"/>
        <pt x="948" y="1229" on="1"/>
        <pt x="948" y="1098" on="1"/>
        <pt x="932" y="1103" on="0"/>
        <pt x="906" y="1107" on="1"/>
        <pt x="884" y="1110" on="0"/>
        <pt x="819" y="1116" on="0"/>
        <pt x="774" y="1116" on="1"/>
        <pt x="726" y="1116" on="0"/>
        <pt x="659" y="1096" on="0"/>
        <pt x="617" y="1047" on="0"/>
        <pt x="598" y="966" on="0"/>
        <pt x="598" y="905" on="1"/>
        <pt x="598" y="843" on="0"/>
        <pt x="617" y="759" on="0"/>
        <pt x="659" y="709" on="0"/>
        <pt x="726" y="688" on="0"/>
        <pt x="774" y="688" on="1"/>
        <pt x="819" y="688" on="0"/>
        <pt x="887" y="693" on="0"/>
        <pt x="910" y="697" on="1"/>
        <pt x="937" y="701" on="0"/>
        <pt x="956" y="707" on="1"/>
        <pt x="956" y="575" on="1"/>
        <pt x="932" y="562" on="0"/>
        <pt x="899" y="552" on="1"/>
        <pt x="871" y="544" on="0"/>
        <pt x="789" y="530" on="0"/>
      </contour>
    </TTGlyph>
    <TTGlyph name="currency" xMin="45" yMin="-113" xMax="1286" yMax="1128">
      <contour>
        <pt x="239" y="257" on="1"/>
        <pt x="196" y="361" on="0"/>
        <pt x="196" y="510" on="1"/>
        <pt x="196" y="582" on="0"/>
        <pt x="217" y="707" on="0"/>
        <pt x="239" y="759" on="1"/>
        <pt x="45" y="952" on="1"/>
        <pt x="221" y="1128" on="1"/>
        <pt x="408" y="942" on="1"/>
        <pt x="459" y="967" on="0"/>
        <pt x="585" y="993" on="0"/>
        <pt x="663" y="993" on="1"/>
        <pt x="818" y="993" on="0"/>
        <pt x="922" y="941" on="1"/>
        <pt x="1110" y="1128" on="1"/>
        <pt x="1286" y="952" on="1"/>
        <pt x="1091" y="758" on="1"/>
        <pt x="1134" y="656" on="0"/>
        <pt x="1134" y="510" on="1"/>
        <pt x="1134" y="361" on="0"/>
        <pt x="1091" y="257" on="1"/>
        <pt x="1286" y="63" on="1"/>
        <pt x="1110" y="-113" on="1"/>
        <pt x="923" y="73" on="1"/>
        <pt x="819" y="20" on="0"/>
        <pt x="663" y="20" on="1"/>
        <pt x="509" y="20" on="0"/>
        <pt x="406" y="73" on="1"/>
        <pt x="221" y="-113" on="1"/>
        <pt x="45" y="63" on="1"/>
      </contour>
      <contour>
        <pt x="442" y="510" on="1"/>
        <pt x="442" y="441" on="0"/>
        <pt x="459" y="334" on="0"/>
        <pt x="508" y="261" on="0"/>
        <pt x="594" y="223" on="0"/>
        <pt x="663" y="223" on="1"/>
        <pt x="732" y="223" on="0"/>
        <pt x="819" y="261" on="0"/>
        <pt x="867" y="334" on="0"/>
        <pt x="884" y="441" on="0"/>
        <pt x="884" y="510" on="1"/>
        <pt x="884" y="577" on="0"/>
        <pt x="867" y="683" on="0"/>
        <pt x="819" y="755" on="0"/>
        <pt x="732" y="793" on="0"/>
        <pt x="663" y="793" on="1"/>
        <pt x="594" y="793" on="0"/>
        <pt x="508" y="755" on="0"/>
        <pt x="459" y="683" on="0"/>
        <pt x="442" y="577" on="0"/>
      </contour>
    </TTGlyph>
    <TTGlyph name="d" xMin="102" yMin="-31" xMax="1052" yMax="1554">
      <contour>
        <pt x="466" y="-31" on="1"/>
        <pt x="377" y="-31" on="0"/>
        <pt x="242" y="27" on="0"/>
        <pt x="152" y="158" on="0"/>
        <pt x="105" y="370" on="0"/>
        <pt x="104" y="523" on="1"/>
        <pt x="102" y="675" on="0"/>
        <pt x="151" y="889" on="0"/>
        <pt x="244" y="1024" on="0"/>
        <pt x="379" y="1085" on="0"/>
        <pt x="464" y="1085" on="1"/>
        <pt x="542" y="1085" on="0"/>
        <pt x="670" y="1061" on="0"/>
        <pt x="717" y="1047" on="1"/>
        <pt x="772" y="1030" on="0"/>
        <pt x="814" y="1010" on="1"/>
        <pt x="814" y="1554" on="1"/>
        <pt x="1052" y="1554" on="1"/>
        <pt x="1052" y="0" on="1"/>
        <pt x="847" y="0" on="1"/>
        <pt x="833" y="84" on="1"/>
        <pt x="788" y="52" on="0"/>
        <pt x="731" y="26" on="1"/>
        <pt x="682" y="4" on="0"/>
        <pt x="547" y="-31" on="0"/>
      </contour>
      <contour>
        <pt x="550" y="182" on="1"/>
        <pt x="602" y="182" on="0"/>
        <pt x="697" y="197" on="0"/>
        <pt x="734" y="207" on="1"/>
        <pt x="777" y="218" on="0"/>
        <pt x="814" y="233" on="1"/>
        <pt x="814" y="836" on="1"/>
        <pt x="773" y="846" on="0"/>
        <pt x="727" y="855" on="1"/>
        <pt x="688" y="862" on="0"/>
        <pt x="587" y="874" on="0"/>
        <pt x="534" y="874" on="1"/>
        <pt x="479" y="874" on="0"/>
        <pt x="409" y="837" on="0"/>
        <pt x="369" y="751" on="0"/>
        <pt x="354" y="611" on="0"/>
        <pt x="354" y="508" on="1"/>
        <pt x="354" y="419" on="0"/>
        <pt x="368" y="295" on="0"/>
        <pt x="410" y="217" on="0"/>
        <pt x="487" y="182" on="0"/>
      </contour>
    </TTGlyph>
    <TTGlyph name="dagger" xMin="50" yMin="-162" xMax="968" yMax="1430">
      <contour>
        <pt x="390" y="817" on="1"/>
        <pt x="50" y="817" on="1"/>
        <pt x="50" y="1014" on="1"/>
        <pt x="390" y="1014" on="1"/>
        <pt x="390" y="1427" on="1"/>
        <pt x="628" y="1430" on="1"/>
        <pt x="628" y="1014" on="1"/>
        <pt x="968" y="1014" on="1"/>
        <pt x="968" y="817" on="1"/>
        <pt x="628" y="817" on="1"/>
        <pt x="628" y="-162" on="1"/>
        <pt x="390" y="-160" on="1"/>
      </contour>
    </TTGlyph>
    <TTGlyph name="daggerdbl" xMin="61" yMin="-162" xMax="979" yMax="1430">
      <contour>
        <pt x="61" y="453" on="1"/>
        <pt x="401" y="453" on="1"/>
        <pt x="401" y="815" on="1"/>
        <pt x="61" y="815" on="1"/>
        <pt x="61" y="1012" on="1"/>
        <pt x="401" y="1012" on="1"/>
        <pt x="401" y="1427" on="1"/>
        <pt x="639" y="1430" on="1"/>
        <pt x="639" y="1012" on="1"/>
        <pt x="979" y="1012" on="1"/>
        <pt x="979" y="815" on="1"/>
        <pt x="639" y="815" on="1"/>
        <pt x="639" y="453" on="1"/>
        <pt x="979" y="453" on="1"/>
        <pt x="979" y="256" on="1"/>
        <pt x="639" y="256" on="1"/>
        <pt x="639" y="-162" on="1"/>
        <pt x="401" y="-160" on="1"/>
        <pt x="401" y="256" on="1"/>
        <pt x="61" y="256" on="1"/>
      </contour>
    </TTGlyph>
    <TTGlyph name="dcaron" xMin="102" yMin="-31" xMax="1412" yMax="1559">
      <contour>
        <pt x="1205" y="1559" on="1"/>
        <pt x="1225" y="1557" on="0"/>
        <pt x="1247" y="1554" on="1"/>
        <pt x="1266" y="1551" on="0"/>
        <pt x="1310" y="1543" on="0"/>
        <pt x="1332" y="1536" on="1"/>
        <pt x="1372" y="1522" on="0"/>
        <pt x="1412" y="1490" on="0"/>
        <pt x="1412" y="1460" on="1"/>
        <pt x="1412" y="1421" on="0"/>
        <pt x="1377" y="1348" on="1"/>
        <pt x="1371" y="1333" on="0"/>
        <pt x="1351" y="1291" on="0"/>
        <pt x="1328" y="1242" on="0"/>
        <pt x="1302" y="1188" on="0"/>
        <pt x="1290" y="1163" on="1"/>
        <pt x="1261" y="1103" on="0"/>
        <pt x="1228" y="1036" on="1"/>
        <pt x="1080" y="1085" on="1"/>
      </contour>
      <contour>
        <pt x="466" y="-31" on="1"/>
        <pt x="377" y="-31" on="0"/>
        <pt x="242" y="27" on="0"/>
        <pt x="152" y="158" on="0"/>
        <pt x="105" y="370" on="0"/>
        <pt x="104" y="523" on="1"/>
        <pt x="102" y="675" on="0"/>
        <pt x="151" y="889" on="0"/>
        <pt x="244" y="1024" on="0"/>
        <pt x="379" y="1085" on="0"/>
        <pt x="464" y="1085" on="1"/>
        <pt x="542" y="1085" on="0"/>
        <pt x="670" y="1061" on="0"/>
        <pt x="717" y="1047" on="1"/>
        <pt x="772" y="1030" on="0"/>
        <pt x="814" y="1010" on="1"/>
        <pt x="814" y="1554" on="1"/>
        <pt x="1052" y="1554" on="1"/>
        <pt x="1052" y="0" on="1"/>
        <pt x="847" y="0" on="1"/>
        <pt x="833" y="84" on="1"/>
        <pt x="788" y="52" on="0"/>
        <pt x="731" y="26" on="1"/>
        <pt x="682" y="4" on="0"/>
        <pt x="547" y="-31" on="0"/>
      </contour>
      <contour>
        <pt x="550" y="182" on="1"/>
        <pt x="602" y="182" on="0"/>
        <pt x="697" y="197" on="0"/>
        <pt x="734" y="207" on="1"/>
        <pt x="777" y="218" on="0"/>
        <pt x="814" y="233" on="1"/>
        <pt x="814" y="836" on="1"/>
        <pt x="773" y="846" on="0"/>
        <pt x="727" y="855" on="1"/>
        <pt x="688" y="862" on="0"/>
        <pt x="587" y="874" on="0"/>
        <pt x="534" y="874" on="1"/>
        <pt x="479" y="874" on="0"/>
        <pt x="409" y="837" on="0"/>
        <pt x="369" y="751" on="0"/>
        <pt x="354" y="611" on="0"/>
        <pt x="354" y="508" on="1"/>
        <pt x="354" y="419" on="0"/>
        <pt x="368" y="295" on="0"/>
        <pt x="410" y="217" on="0"/>
        <pt x="487" y="182" on="0"/>
      </contour>
    </TTGlyph>
    <TTGlyph name="dcroat" xMin="102" yMin="-31" xMax="1197" yMax="1554">
      <contour>
        <pt x="466" y="-31" on="1"/>
        <pt x="377" y="-31" on="0"/>
        <pt x="242" y="27" on="0"/>
        <pt x="152" y="158" on="0"/>
        <pt x="105" y="370" on="0"/>
        <pt x="104" y="523" on="1"/>
        <pt x="102" y="675" on="0"/>
        <pt x="151" y="889" on="0"/>
        <pt x="244" y="1024" on="0"/>
        <pt x="379" y="1085" on="0"/>
        <pt x="464" y="1085" on="1"/>
        <pt x="542" y="1085" on="0"/>
        <pt x="670" y="1061" on="0"/>
        <pt x="717" y="1047" on="1"/>
        <pt x="772" y="1030" on="0"/>
        <pt x="814" y="1010" on="1"/>
        <pt x="814" y="1204" on="1"/>
        <pt x="529" y="1204" on="1"/>
        <pt x="529" y="1384" on="1"/>
        <pt x="814" y="1384" on="1"/>
        <pt x="814" y="1554" on="1"/>
        <pt x="1052" y="1554" on="1"/>
        <pt x="1052" y="1384" on="1"/>
        <pt x="1197" y="1384" on="1"/>
        <pt x="1197" y="1204" on="1"/>
        <pt x="1052" y="1204" on="1"/>
        <pt x="1052" y="0" on="1"/>
        <pt x="847" y="0" on="1"/>
        <pt x="833" y="84" on="1"/>
        <pt x="788" y="52" on="0"/>
        <pt x="731" y="26" on="1"/>
        <pt x="682" y="4" on="0"/>
        <pt x="547" y="-31" on="0"/>
      </contour>
      <contour>
        <pt x="550" y="182" on="1"/>
        <pt x="602" y="182" on="0"/>
        <pt x="697" y="197" on="0"/>
        <pt x="734" y="207" on="1"/>
        <pt x="777" y="218" on="0"/>
        <pt x="814" y="233" on="1"/>
        <pt x="814" y="836" on="1"/>
        <pt x="773" y="846" on="0"/>
        <pt x="727" y="855" on="1"/>
        <pt x="688" y="862" on="0"/>
        <pt x="587" y="874" on="0"/>
        <pt x="534" y="874" on="1"/>
        <pt x="479" y="874" on="0"/>
        <pt x="409" y="837" on="0"/>
        <pt x="369" y="751" on="0"/>
        <pt x="354" y="611" on="0"/>
        <pt x="354" y="508" on="1"/>
        <pt x="354" y="419" on="0"/>
        <pt x="368" y="295" on="0"/>
        <pt x="410" y="217" on="0"/>
        <pt x="487" y="182" on="0"/>
      </contour>
    </TTGlyph>
    <TTGlyph name="degree" xMin="212" yMin="852" xMax="813" yMax="1529">
      <contour>
        <pt x="518" y="852" on="1"/>
        <pt x="451" y="852" on="0"/>
        <pt x="338" y="886" on="0"/>
        <pt x="257" y="965" on="0"/>
        <pt x="212" y="1092" on="0"/>
        <pt x="212" y="1185" on="1"/>
        <pt x="212" y="1285" on="0"/>
        <pt x="257" y="1418" on="0"/>
        <pt x="338" y="1497" on="0"/>
        <pt x="451" y="1529" on="0"/>
        <pt x="518" y="1529" on="1"/>
        <pt x="584" y="1529" on="0"/>
        <pt x="692" y="1497" on="0"/>
        <pt x="770" y="1418" on="0"/>
        <pt x="813" y="1285" on="0"/>
        <pt x="813" y="1185" on="1"/>
        <pt x="813" y="1092" on="0"/>
        <pt x="770" y="965" on="0"/>
        <pt x="692" y="886" on="0"/>
        <pt x="584" y="852" on="0"/>
      </contour>
      <contour>
        <pt x="518" y="1020" on="1"/>
        <pt x="545" y="1020" on="0"/>
        <pt x="590" y="1034" on="0"/>
        <pt x="621" y="1072" on="0"/>
        <pt x="639" y="1135" on="0"/>
        <pt x="639" y="1185" on="1"/>
        <pt x="639" y="1237" on="0"/>
        <pt x="621" y="1306" on="0"/>
        <pt x="590" y="1347" on="0"/>
        <pt x="545" y="1363" on="0"/>
        <pt x="518" y="1363" on="1"/>
        <pt x="489" y="1363" on="0"/>
        <pt x="440" y="1347" on="0"/>
        <pt x="406" y="1306" on="0"/>
        <pt x="387" y="1237" on="0"/>
        <pt x="387" y="1185" on="1"/>
        <pt x="387" y="1135" on="0"/>
        <pt x="406" y="1072" on="0"/>
        <pt x="440" y="1034" on="0"/>
        <pt x="489" y="1020" on="0"/>
      </contour>
    </TTGlyph>
    <TTGlyph name="dieresis" xMin="63" yMin="1080" xMax="761" yMax="1355">
      <component glyphName="period" x="-30" y="1093" scale="0.900024414062" flags="0x1004"/>
      <component glyphName="period" x="393" y="1093" scale="0.900024414062" flags="0x1004"/>
    </TTGlyph>
    <TTGlyph name="dieresis.cap" xMin="63" yMin="1394" xMax="756" yMax="1669">
      <component glyphName="period" x="-30" y="1407" scale="0.900024414062" flags="0x1004"/>
      <component glyphName="period" x="388" y="1407" scale="0.900024414062" flags="0x1004"/>
    </TTGlyph>
    <TTGlyph name="divide" xMin="60" yMin="125" xMax="1064" yMax="1147">
      <contour>
        <pt x="562" y="850" on="1"/>
        <pt x="517" y="850" on="0"/>
        <pt x="460" y="863" on="0"/>
        <pt x="426" y="897" on="0"/>
        <pt x="413" y="955" on="0"/>
        <pt x="413" y="999" on="1"/>
        <pt x="413" y="1043" on="0"/>
        <pt x="426" y="1100" on="0"/>
        <pt x="460" y="1134" on="0"/>
        <pt x="517" y="1147" on="0"/>
        <pt x="562" y="1147" on="1"/>
        <pt x="606" y="1147" on="0"/>
        <pt x="663" y="1134" on="0"/>
        <pt x="697" y="1100" on="0"/>
        <pt x="710" y="1043" on="0"/>
        <pt x="710" y="999" on="1"/>
        <pt x="710" y="955" on="0"/>
        <pt x="697" y="897" on="0"/>
        <pt x="663" y="863" on="0"/>
        <pt x="606" y="850" on="0"/>
      </contour>
      <contour>
        <pt x="60" y="733" on="1"/>
        <pt x="1064" y="733" on="1"/>
        <pt x="1064" y="539" on="1"/>
        <pt x="60" y="539" on="1"/>
      </contour>
      <contour>
        <pt x="413" y="272" on="1"/>
        <pt x="413" y="317" on="0"/>
        <pt x="426" y="375" on="0"/>
        <pt x="460" y="409" on="0"/>
        <pt x="517" y="422" on="0"/>
        <pt x="562" y="422" on="1"/>
        <pt x="606" y="422" on="0"/>
        <pt x="663" y="409" on="0"/>
        <pt x="697" y="375" on="0"/>
        <pt x="710" y="317" on="0"/>
        <pt x="710" y="272" on="1"/>
        <pt x="710" y="228" on="0"/>
        <pt x="697" y="172" on="0"/>
        <pt x="663" y="138" on="0"/>
        <pt x="606" y="125" on="0"/>
        <pt x="562" y="125" on="1"/>
        <pt x="517" y="125" on="0"/>
        <pt x="460" y="138" on="0"/>
        <pt x="426" y="172" on="0"/>
        <pt x="413" y="228" on="0"/>
      </contour>
    </TTGlyph>
    <TTGlyph name="dollar" xMin="108" yMin="-205" xMax="1010" yMax="1632">
      <contour>
        <pt x="120" y="213" on="1"/>
        <pt x="171" y="206" on="0"/>
        <pt x="230" y="201" on="1"/>
        <pt x="281" y="196" on="0"/>
        <pt x="412" y="190" on="0"/>
        <pt x="485" y="190" on="1"/>
        <pt x="582" y="190" on="0"/>
        <pt x="696" y="215" on="0"/>
        <pt x="756" y="264" on="0"/>
        <pt x="773" y="336" on="0"/>
        <pt x="773" y="383" on="1"/>
        <pt x="773" y="420" on="0"/>
        <pt x="766" y="481" on="0"/>
        <pt x="740" y="529" on="0"/>
        <pt x="692" y="564" on="0"/>
        <pt x="650" y="575" on="1"/>
        <pt x="359" y="651" on="1"/>
        <pt x="290" y="669" on="0"/>
        <pt x="194" y="730" on="0"/>
        <pt x="135" y="824" on="0"/>
        <pt x="108" y="957" on="0"/>
        <pt x="108" y="1047" on="1"/>
        <pt x="108" y="1139" on="0"/>
        <pt x="156" y="1279" on="0"/>
        <pt x="245" y="1378" on="0"/>
        <pt x="372" y="1438" on="0"/>
        <pt x="451" y="1449" on="1"/>
        <pt x="451" y="1632" on="1"/>
        <pt x="686" y="1632" on="1"/>
        <pt x="686" y="1449" on="1"/>
        <pt x="744" y="1443" on="0"/>
        <pt x="839" y="1425" on="0"/>
        <pt x="873" y="1417" on="1"/>
        <pt x="913" y="1407" on="0"/>
        <pt x="943" y="1397" on="1"/>
        <pt x="943" y="1212" on="1"/>
        <pt x="898" y="1218" on="0"/>
        <pt x="848" y="1223" on="1"/>
        <pt x="805" y="1228" on="0"/>
        <pt x="698" y="1235" on="0"/>
        <pt x="641" y="1235" on="1"/>
        <pt x="552" y="1235" on="0"/>
        <pt x="438" y="1223" on="0"/>
        <pt x="372" y="1185" on="0"/>
        <pt x="346" y="1115" on="0"/>
        <pt x="346" y="1057" on="1"/>
        <pt x="346" y="1025" on="0"/>
        <pt x="353" y="975" on="0"/>
        <pt x="378" y="937" on="0"/>
        <pt x="425" y="909" on="0"/>
        <pt x="465" y="897" on="1"/>
        <pt x="736" y="819" on="1"/>
        <pt x="788" y="804" on="0"/>
        <pt x="869" y="771" on="0"/>
        <pt x="929" y="726" on="0"/>
        <pt x="972" y="666" on="0"/>
        <pt x="998" y="583" on="0"/>
        <pt x="1010" y="471" on="0"/>
        <pt x="1010" y="398" on="1"/>
        <pt x="1010" y="301" on="0"/>
        <pt x="982" y="155" on="0"/>
        <pt x="910" y="52" on="0"/>
        <pt x="784" y="-10" on="0"/>
        <pt x="686" y="-22" on="1"/>
        <pt x="686" y="-205" on="1"/>
        <pt x="451" y="-205" on="1"/>
        <pt x="451" y="-29" on="1"/>
        <pt x="357" y="-26" on="0"/>
        <pt x="230" y="-4" on="0"/>
        <pt x="192" y="7" on="1"/>
        <pt x="146" y="20" on="0"/>
        <pt x="120" y="37" on="1"/>
      </contour>
    </TTGlyph>
    <TTGlyph name="dotaccent" xMin="61" yMin="1204" xMax="334" yMax="1477">
      <contour>
        <pt x="199" y="1204" on="1"/>
        <pt x="158" y="1204" on="0"/>
        <pt x="105" y="1216" on="0"/>
        <pt x="73" y="1246" on="0"/>
        <pt x="61" y="1298" on="0"/>
        <pt x="61" y="1339" on="1"/>
        <pt x="61" y="1380" on="0"/>
        <pt x="73" y="1433" on="0"/>
        <pt x="105" y="1465" on="0"/>
        <pt x="158" y="1477" on="0"/>
        <pt x="199" y="1477" on="1"/>
        <pt x="239" y="1477" on="0"/>
        <pt x="291" y="1465" on="0"/>
        <pt x="322" y="1433" on="0"/>
        <pt x="334" y="1380" on="0"/>
        <pt x="334" y="1339" on="1"/>
        <pt x="334" y="1298" on="0"/>
        <pt x="322" y="1246" on="0"/>
        <pt x="291" y="1216" on="0"/>
        <pt x="239" y="1204" on="0"/>
      </contour>
    </TTGlyph>
    <TTGlyph name="dotaccent.cap" xMin="63" yMin="1371" xMax="338" yMax="1646">
      <component glyphName="period" x="-30" y="1384" scale="0.900024414062" flags="0x1004"/>
    </TTGlyph>
    <TTGlyph name="dotlessi" xMin="163" yMin="0" xMax="401" yMax="1055">
      <contour>
        <pt x="163" y="1055" on="1"/>
        <pt x="401" y="1055" on="1"/>
        <pt x="401" y="0" on="1"/>
        <pt x="163" y="0" on="1"/>
      </contour>
    </TTGlyph>
    <TTGlyph name="dotlessj" xMin="-40" yMin="-498" xMax="447" yMax="1055">
      <contour>
        <pt x="-40" y="-283" on="1"/>
        <pt x="-20" y="-285" on="0"/>
        <pt x="3" y="-286" on="1"/>
        <pt x="23" y="-288" on="0"/>
        <pt x="75" y="-289" on="0"/>
        <pt x="105" y="-289" on="1"/>
        <pt x="128" y="-289" on="0"/>
        <pt x="167" y="-283" on="0"/>
        <pt x="195" y="-264" on="0"/>
        <pt x="210" y="-230" on="0"/>
        <pt x="210" y="-203" on="1"/>
        <pt x="210" y="1055" on="1"/>
        <pt x="447" y="1055" on="1"/>
        <pt x="447" y="-256" on="1"/>
        <pt x="447" y="-327" on="0"/>
        <pt x="407" y="-421" on="0"/>
        <pt x="341" y="-476" on="0"/>
        <pt x="255" y="-498" on="0"/>
        <pt x="210" y="-498" on="1"/>
        <pt x="151" y="-498" on="0"/>
        <pt x="58" y="-487" on="0"/>
        <pt x="26" y="-479" on="1"/>
        <pt x="-12" y="-470" on="0"/>
        <pt x="-40" y="-459" on="1"/>
        <pt x="-40" y="-283" on="1"/>
      </contour>
    </TTGlyph>
    <TTGlyph name="e" xMin="94" yMin="-31" xMax="1012" yMax="1085">
      <contour>
        <pt x="94" y="539" on="1"/>
        <pt x="94" y="704" on="0"/>
        <pt x="180" y="916" on="0"/>
        <pt x="322" y="1038" on="0"/>
        <pt x="504" y="1085" on="0"/>
        <pt x="600" y="1085" on="1"/>
        <pt x="721" y="1085" on="0"/>
        <pt x="880" y="1019" on="0"/>
        <pt x="974" y="900" on="0"/>
        <pt x="1012" y="734" on="0"/>
        <pt x="1012" y="634" on="1"/>
        <pt x="1012" y="587" on="0"/>
        <pt x="1005" y="487" on="0"/>
        <pt x="999" y="434" on="1"/>
        <pt x="338" y="434" on="1"/>
        <pt x="339" y="363" on="0"/>
        <pt x="368" y="266" on="0"/>
        <pt x="435" y="205" on="0"/>
        <pt x="546" y="178" on="0"/>
        <pt x="629" y="178" on="1"/>
        <pt x="699" y="178" on="0"/>
        <pt x="821" y="185" on="0"/>
        <pt x="867" y="190" on="1"/>
        <pt x="921" y="195" on="0"/>
        <pt x="965" y="203" on="1"/>
        <pt x="965" y="37" on="1"/>
        <pt x="914" y="18" on="0"/>
        <pt x="854" y="3" on="1"/>
        <pt x="803" y="-10" on="0"/>
        <pt x="667" y="-31" on="0"/>
        <pt x="590" y="-31" on="1"/>
        <pt x="472" y="-31" on="0"/>
        <pt x="288" y="28" on="0"/>
        <pt x="161" y="163" on="0"/>
        <pt x="94" y="381" on="0"/>
      </contour>
      <contour>
        <pt x="793" y="612" on="1"/>
        <pt x="793" y="650" on="1"/>
        <pt x="793" y="710" on="0"/>
        <pt x="778" y="799" on="0"/>
        <pt x="732" y="857" on="0"/>
        <pt x="648" y="885" on="0"/>
        <pt x="578" y="885" on="1"/>
        <pt x="503" y="885" on="0"/>
        <pt x="408" y="850" on="0"/>
        <pt x="355" y="781" on="0"/>
        <pt x="336" y="679" on="0"/>
        <pt x="336" y="612" on="1"/>
      </contour>
    </TTGlyph>
    <TTGlyph name="eacute" xMin="94" yMin="-31" xMax="1012" yMax="1661">
      <component glyphName="e" x="0" y="0" flags="0x1204"/>
      <component glyphName="acute" x="270" y="0" flags="0x1004"/>
    </TTGlyph>
    <TTGlyph name="ebreve" xMin="94" yMin="-31" xMax="1012" yMax="1511">
      <component glyphName="e" x="0" y="0" flags="0x1204"/>
      <component glyphName="breve" x="178" y="-19" flags="0x1004"/>
    </TTGlyph>
    <TTGlyph name="ecaron" xMin="94" yMin="-31" xMax="1012" yMax="1640">
      <component glyphName="e" x="0" y="0" flags="0x1204"/>
      <component glyphName="caron" x="139" y="-19" flags="0x1004"/>
    </TTGlyph>
    <TTGlyph name="ecircumflex" xMin="94" yMin="-31" xMax="1012" yMax="1592">
      <component glyphName="e" x="0" y="0" flags="0x1204"/>
      <component glyphName="circumflex" x="158" y="-3" flags="0x1004"/>
    </TTGlyph>
    <TTGlyph name="edieresis" xMin="94" yMin="-31" xMax="1012" yMax="1311">
      <component glyphName="e" x="0" y="0" flags="0x1204"/>
      <component glyphName="period" x="95" y="1049" scale="0.900024414062" flags="0x1004"/>
      <component glyphName="period" x="519" y="1049" scale="0.900024414062" flags="0x1004"/>
    </TTGlyph>
    <TTGlyph name="edotaccent" xMin="94" yMin="-31" xMax="1012" yMax="1455">
      <component glyphName="e" x="0" y="0" flags="0x1204"/>
      <component glyphName="dotaccent" x="385" y="-22" flags="0x1004"/>
    </TTGlyph>
    <TTGlyph name="egrave" xMin="94" yMin="-31" xMax="1012" yMax="1642">
      <component glyphName="e" x="0" y="0" flags="0x1204"/>
      <component glyphName="grave" x="227" y="0" flags="0x1004"/>
    </TTGlyph>
    <TTGlyph name="eight" xMin="149" yMin="-29" xMax="1105" yMax="1456">
      <contour>
        <pt x="149" y="406" on="1"/>
        <pt x="149" y="470" on="0"/>
        <pt x="174" y="569" on="0"/>
        <pt x="214" y="643" on="0"/>
        <pt x="262" y="693" on="0"/>
        <pt x="309" y="725" on="0"/>
        <pt x="348" y="739" on="0"/>
        <pt x="358" y="741" on="1"/>
        <pt x="358" y="743" on="1"/>
        <pt x="339" y="747" on="0"/>
        <pt x="280" y="779" on="0"/>
        <pt x="224" y="846" on="0"/>
        <pt x="184" y="956" on="0"/>
        <pt x="184" y="1038" on="1"/>
        <pt x="184" y="1129" on="0"/>
        <pt x="225" y="1283" on="0"/>
        <pt x="327" y="1394" on="0"/>
        <pt x="499" y="1456" on="0"/>
        <pt x="630" y="1456" on="1"/>
        <pt x="760" y="1456" on="0"/>
        <pt x="932" y="1394" on="0"/>
        <pt x="1032" y="1283" on="0"/>
        <pt x="1073" y="1129" on="0"/>
        <pt x="1073" y="1038" on="1"/>
        <pt x="1073" y="956" on="0"/>
        <pt x="1034" y="847" on="0"/>
        <pt x="978" y="781" on="0"/>
        <pt x="919" y="749" on="0"/>
        <pt x="899" y="743" on="1"/>
        <pt x="899" y="741" on="1"/>
        <pt x="909" y="739" on="0"/>
        <pt x="948" y="725" on="0"/>
        <pt x="994" y="693" on="0"/>
        <pt x="1041" y="643" on="0"/>
        <pt x="1080" y="569" on="0"/>
        <pt x="1105" y="470" on="0"/>
        <pt x="1105" y="406" on="1"/>
        <pt x="1105" y="272" on="0"/>
        <pt x="1034" y="103" on="0"/>
        <pt x="907" y="7" on="0"/>
        <pt x="731" y="-29" on="0"/>
        <pt x="626" y="-29" on="1"/>
        <pt x="521" y="-29" on="0"/>
        <pt x="346" y="7" on="0"/>
        <pt x="219" y="103" on="0"/>
        <pt x="149" y="272" on="0"/>
      </contour>
      <contour>
        <pt x="628" y="827" on="1"/>
        <pt x="686" y="827" on="0"/>
        <pt x="767" y="850" on="0"/>
        <pt x="817" y="900" on="0"/>
        <pt x="839" y="981" on="0"/>
        <pt x="839" y="1038" on="1"/>
        <pt x="839" y="1095" on="0"/>
        <pt x="817" y="1173" on="0"/>
        <pt x="767" y="1222" on="0"/>
        <pt x="686" y="1243" on="0"/>
        <pt x="628" y="1243" on="1"/>
        <pt x="570" y="1243" on="0"/>
        <pt x="489" y="1222" on="0"/>
        <pt x="438" y="1173" on="0"/>
        <pt x="415" y="1095" on="0"/>
        <pt x="415" y="1038" on="1"/>
        <pt x="415" y="981" on="0"/>
        <pt x="438" y="900" on="0"/>
        <pt x="489" y="850" on="0"/>
        <pt x="570" y="827" on="0"/>
      </contour>
      <contour>
        <pt x="393" y="406" on="1"/>
        <pt x="393" y="334" on="0"/>
        <pt x="422" y="248" on="0"/>
        <pt x="481" y="202" on="0"/>
        <pt x="569" y="188" on="0"/>
        <pt x="628" y="188" on="1"/>
        <pt x="687" y="188" on="0"/>
        <pt x="776" y="202" on="0"/>
        <pt x="835" y="248" on="0"/>
        <pt x="864" y="334" on="0"/>
        <pt x="864" y="406" on="1"/>
        <pt x="864" y="477" on="0"/>
        <pt x="835" y="568" on="0"/>
        <pt x="776" y="621" on="0"/>
        <pt x="687" y="641" on="0"/>
        <pt x="628" y="641" on="1"/>
        <pt x="569" y="641" on="0"/>
        <pt x="481" y="621" on="0"/>
        <pt x="422" y="568" on="0"/>
        <pt x="393" y="477" on="0"/>
      </contour>
    </TTGlyph>
    <TTGlyph name="ellipsis" xMin="102" yMin="-16" xMax="1310" yMax="252">
      <contour>
        <pt x="1042" y="119" on="1"/>
        <pt x="1042" y="159" on="0"/>
        <pt x="1054" y="210" on="0"/>
        <pt x="1085" y="240" on="0"/>
        <pt x="1136" y="252" on="0"/>
        <pt x="1175" y="252" on="1"/>
        <pt x="1215" y="252" on="0"/>
        <pt x="1267" y="240" on="0"/>
        <pt x="1298" y="210" on="0"/>
        <pt x="1310" y="159" on="0"/>
        <pt x="1310" y="119" on="1"/>
        <pt x="1310" y="79" on="0"/>
        <pt x="1298" y="27" on="0"/>
        <pt x="1267" y="-4" on="0"/>
        <pt x="1215" y="-16" on="0"/>
        <pt x="1175" y="-16" on="1"/>
        <pt x="1136" y="-16" on="0"/>
        <pt x="1085" y="-4" on="0"/>
        <pt x="1054" y="27" on="0"/>
        <pt x="1042" y="79" on="0"/>
      </contour>
      <contour>
        <pt x="575" y="119" on="1"/>
        <pt x="575" y="159" on="0"/>
        <pt x="587" y="210" on="0"/>
        <pt x="618" y="240" on="0"/>
        <pt x="669" y="252" on="0"/>
        <pt x="708" y="252" on="1"/>
        <pt x="748" y="252" on="0"/>
        <pt x="800" y="240" on="0"/>
        <pt x="831" y="210" on="0"/>
        <pt x="843" y="159" on="0"/>
        <pt x="843" y="119" on="1"/>
        <pt x="843" y="79" on="0"/>
        <pt x="831" y="27" on="0"/>
        <pt x="800" y="-4" on="0"/>
        <pt x="748" y="-16" on="0"/>
        <pt x="708" y="-16" on="1"/>
        <pt x="669" y="-16" on="0"/>
        <pt x="618" y="-4" on="0"/>
        <pt x="587" y="27" on="0"/>
        <pt x="575" y="79" on="0"/>
      </contour>
      <contour>
        <pt x="102" y="119" on="1"/>
        <pt x="102" y="159" on="0"/>
        <pt x="114" y="210" on="0"/>
        <pt x="145" y="240" on="0"/>
        <pt x="196" y="252" on="0"/>
        <pt x="235" y="252" on="1"/>
        <pt x="275" y="252" on="0"/>
        <pt x="327" y="240" on="0"/>
        <pt x="358" y="210" on="0"/>
        <pt x="370" y="159" on="0"/>
        <pt x="370" y="119" on="1"/>
        <pt x="370" y="79" on="0"/>
        <pt x="358" y="27" on="0"/>
        <pt x="327" y="-4" on="0"/>
        <pt x="275" y="-16" on="0"/>
        <pt x="235" y="-16" on="1"/>
        <pt x="196" y="-16" on="0"/>
        <pt x="145" y="-4" on="0"/>
        <pt x="114" y="27" on="0"/>
        <pt x="102" y="79" on="0"/>
      </contour>
    </TTGlyph>
    <TTGlyph name="emacron" xMin="94" yMin="-31" xMax="1012" yMax="1396">
      <component glyphName="e" x="0" y="0" flags="0x1204"/>
      <component glyphName="macron" x="178" y="-19" flags="0x1004"/>
    </TTGlyph>
    <TTGlyph name="emdash" xMin="60" yMin="475" xMax="2106" yMax="702">
      <contour>
        <pt x="60" y="702" on="1"/>
        <pt x="2106" y="702" on="1"/>
        <pt x="2106" y="475" on="1"/>
        <pt x="60" y="475" on="1"/>
      </contour>
    </TTGlyph>
    <TTGlyph name="endash" xMin="60" yMin="475" xMax="1080" yMax="702">
      <contour>
        <pt x="60" y="702" on="1"/>
        <pt x="1080" y="702" on="1"/>
        <pt x="1080" y="475" on="1"/>
        <pt x="60" y="475" on="1"/>
      </contour>
    </TTGlyph>
    <TTGlyph name="eng" xMin="166" yMin="-498" xMax="1079" yMax="1085">
      <contour>
        <pt x="166" y="1055" on="1"/>
        <pt x="340" y="1055" on="1"/>
        <pt x="369" y="977" on="1"/>
        <pt x="424" y="1007" on="0"/>
        <pt x="489" y="1031" on="1"/>
        <pt x="545" y="1051" on="0"/>
        <pt x="691" y="1085" on="0"/>
        <pt x="774" y="1085" on="1"/>
        <pt x="930" y="1085" on="0"/>
        <pt x="1079" y="922" on="0"/>
        <pt x="1079" y="748" on="1"/>
        <pt x="1079" y="-256" on="1"/>
        <pt x="1079" y="-327" on="0"/>
        <pt x="1039" y="-421" on="0"/>
        <pt x="973" y="-476" on="0"/>
        <pt x="887" y="-498" on="0"/>
        <pt x="842" y="-498" on="1"/>
        <pt x="783" y="-498" on="0"/>
        <pt x="690" y="-487" on="0"/>
        <pt x="658" y="-479" on="1"/>
        <pt x="620" y="-470" on="0"/>
        <pt x="592" y="-459" on="1"/>
        <pt x="592" y="-283" on="1"/>
        <pt x="612" y="-285" on="0"/>
        <pt x="635" y="-286" on="1"/>
        <pt x="655" y="-288" on="0"/>
        <pt x="707" y="-289" on="0"/>
        <pt x="737" y="-289" on="1"/>
        <pt x="760" y="-289" on="0"/>
        <pt x="799" y="-283" on="0"/>
        <pt x="827" y="-264" on="0"/>
        <pt x="842" y="-230" on="0"/>
        <pt x="842" y="-203" on="1"/>
        <pt x="842" y="719" on="1"/>
        <pt x="842" y="760" on="0"/>
        <pt x="831" y="819" on="0"/>
        <pt x="795" y="856" on="0"/>
        <pt x="727" y="874" on="0"/>
        <pt x="670" y="874" on="1"/>
        <pt x="610" y="874" on="0"/>
        <pt x="512" y="859" on="0"/>
        <pt x="477" y="851" on="1"/>
        <pt x="436" y="841" on="0"/>
        <pt x="403" y="829" on="1"/>
        <pt x="403" y="0" on="1"/>
        <pt x="166" y="0" on="1"/>
      </contour>
    </TTGlyph>
    <TTGlyph name="eogonek" xMin="94" yMin="-500" xMax="1012" yMax="1085">
      <contour>
        <pt x="94" y="539" on="1"/>
        <pt x="94" y="704" on="0"/>
        <pt x="180" y="916" on="0"/>
        <pt x="322" y="1038" on="0"/>
        <pt x="504" y="1085" on="0"/>
        <pt x="600" y="1085" on="1"/>
        <pt x="721" y="1085" on="0"/>
        <pt x="880" y="1019" on="0"/>
        <pt x="974" y="900" on="0"/>
        <pt x="1012" y="734" on="0"/>
        <pt x="1012" y="634" on="1"/>
        <pt x="1012" y="587" on="0"/>
        <pt x="1005" y="487" on="0"/>
        <pt x="999" y="434" on="1"/>
        <pt x="338" y="434" on="1"/>
        <pt x="339" y="363" on="0"/>
        <pt x="368" y="266" on="0"/>
        <pt x="435" y="205" on="0"/>
        <pt x="546" y="178" on="0"/>
        <pt x="629" y="178" on="1"/>
        <pt x="699" y="178" on="0"/>
        <pt x="821" y="185" on="0"/>
        <pt x="867" y="190" on="1"/>
        <pt x="921" y="195" on="0"/>
        <pt x="965" y="203" on="1"/>
        <pt x="965" y="37" on="1"/>
        <pt x="890" y="4" on="0"/>
        <pt x="790" y="-65" on="0"/>
        <pt x="728" y="-133" on="0"/>
        <pt x="702" y="-197" on="0"/>
        <pt x="702" y="-225" on="1"/>
        <pt x="702" y="-267" on="0"/>
        <pt x="752" y="-317" on="0"/>
        <pt x="803" y="-317" on="1"/>
        <pt x="831" y="-317" on="0"/>
        <pt x="851" y="-314" on="1"/>
        <pt x="862" y="-313" on="0"/>
        <pt x="872" y="-311" on="1"/>
        <pt x="872" y="-479" on="1"/>
        <pt x="853" y="-486" on="0"/>
        <pt x="831" y="-490" on="1"/>
        <pt x="812" y="-494" on="0"/>
        <pt x="762" y="-500" on="0"/>
        <pt x="733" y="-500" on="1"/>
        <pt x="680" y="-500" on="0"/>
        <pt x="588" y="-472" on="0"/>
        <pt x="520" y="-417" on="0"/>
        <pt x="481" y="-334" on="0"/>
        <pt x="481" y="-279" on="1"/>
        <pt x="481" y="-240" on="0"/>
        <pt x="500" y="-169" on="0"/>
        <pt x="532" y="-107" on="0"/>
        <pt x="573" y="-53" on="0"/>
        <pt x="594" y="-31" on="1"/>
        <pt x="590" y="-31" on="1"/>
        <pt x="472" y="-31" on="0"/>
        <pt x="288" y="28" on="0"/>
        <pt x="161" y="163" on="0"/>
        <pt x="94" y="381" on="0"/>
      </contour>
      <contour>
        <pt x="793" y="612" on="1"/>
        <pt x="793" y="650" on="1"/>
        <pt x="793" y="710" on="0"/>
        <pt x="778" y="799" on="0"/>
        <pt x="732" y="857" on="0"/>
        <pt x="648" y="885" on="0"/>
        <pt x="578" y="885" on="1"/>
        <pt x="503" y="885" on="0"/>
        <pt x="408" y="850" on="0"/>
        <pt x="355" y="781" on="0"/>
        <pt x="336" y="679" on="0"/>
        <pt x="336" y="612" on="1"/>
      </contour>
    </TTGlyph>
    <TTGlyph name="equal" xMin="60" yMin="307" xMax="971" yMax="934">
      <contour>
        <pt x="60" y="934" on="1"/>
        <pt x="971" y="934" on="1"/>
        <pt x="971" y="729" on="1"/>
        <pt x="60" y="729" on="1"/>
      </contour>
      <contour>
        <pt x="60" y="514" on="1"/>
        <pt x="971" y="514" on="1"/>
        <pt x="971" y="307" on="1"/>
        <pt x="60" y="307" on="1"/>
      </contour>
    </TTGlyph>
    <TTGlyph name="eth" xMin="111" yMin="-31" xMax="1038" yMax="1622">
      <contour>
        <pt x="111" y="476" on="1"/>
        <pt x="111" y="610" on="0"/>
        <pt x="161" y="784" on="0"/>
        <pt x="251" y="885" on="0"/>
        <pt x="378" y="925" on="0"/>
        <pt x="455" y="925" on="1"/>
        <pt x="493" y="925" on="0"/>
        <pt x="580" y="915" on="0"/>
        <pt x="670" y="895" on="0"/>
        <pt x="759" y="865" on="0"/>
        <pt x="801" y="845" on="1"/>
        <pt x="801" y="951" on="0"/>
        <pt x="721" y="1128" on="0"/>
        <pt x="655" y="1197" on="1"/>
        <pt x="457" y="1023" on="1"/>
        <pt x="358" y="1168" on="1"/>
        <pt x="516" y="1306" on="1"/>
        <pt x="452" y="1344" on="0"/>
        <pt x="316" y="1386" on="0"/>
        <pt x="250" y="1391" on="1"/>
        <pt x="274" y="1564" on="1"/>
        <pt x="399" y="1557" on="0"/>
        <pt x="600" y="1499" on="0"/>
        <pt x="681" y="1451" on="1"/>
        <pt x="877" y="1622" on="1"/>
        <pt x="974" y="1479" on="1"/>
        <pt x="821" y="1344" on="1"/>
        <pt x="878" y="1286" on="0"/>
        <pt x="960" y="1150" on="0"/>
        <pt x="1013" y="1002" on="0"/>
        <pt x="1038" y="844" on="0"/>
        <pt x="1038" y="764" on="1"/>
        <pt x="1038" y="414" on="1"/>
        <pt x="1038" y="293" on="0"/>
        <pt x="974" y="124" on="0"/>
        <pt x="855" y="17" on="0"/>
        <pt x="687" y="-31" on="0"/>
        <pt x="584" y="-31" on="1"/>
        <pt x="459" y="-31" on="0"/>
        <pt x="280" y="29" on="0"/>
        <pt x="165" y="153" on="0"/>
        <pt x="111" y="345" on="0"/>
      </contour>
      <contour>
        <pt x="358" y="485" on="1"/>
        <pt x="358" y="413" on="0"/>
        <pt x="379" y="305" on="0"/>
        <pt x="430" y="232" on="0"/>
        <pt x="517" y="195" on="0"/>
        <pt x="584" y="195" on="1"/>
        <pt x="652" y="195" on="0"/>
        <pt x="737" y="225" on="0"/>
        <pt x="784" y="288" on="0"/>
        <pt x="801" y="385" on="0"/>
        <pt x="801" y="453" on="1"/>
        <pt x="801" y="671" on="1"/>
        <pt x="802" y="671" on="0"/>
        <pt x="766" y="683" on="0"/>
        <pt x="705" y="698" on="0"/>
        <pt x="626" y="710" on="0"/>
        <pt x="584" y="710" on="1"/>
        <pt x="522" y="710" on="0"/>
        <pt x="436" y="698" on="0"/>
        <pt x="382" y="652" on="0"/>
        <pt x="358" y="563" on="0"/>
      </contour>
    </TTGlyph>
    <TTGlyph name="exclam" xMin="139" yMin="-14" xMax="445" yMax="1427">
      <contour>
        <pt x="172" y="1427" on="1"/>
        <pt x="412" y="1427" on="1"/>
        <pt x="412" y="436" on="1"/>
        <pt x="172" y="436" on="1"/>
      </contour>
      <contour>
        <pt x="139" y="139" on="1"/>
        <pt x="139" y="186" on="0"/>
        <pt x="152" y="245" on="0"/>
        <pt x="187" y="279" on="0"/>
        <pt x="246" y="291" on="0"/>
        <pt x="291" y="291" on="1"/>
        <pt x="337" y="291" on="0"/>
        <pt x="397" y="279" on="0"/>
        <pt x="431" y="245" on="0"/>
        <pt x="445" y="186" on="0"/>
        <pt x="445" y="139" on="1"/>
        <pt x="445" y="93" on="0"/>
        <pt x="431" y="34" on="0"/>
        <pt x="397" y="-1" on="0"/>
        <pt x="337" y="-14" on="0"/>
        <pt x="291" y="-14" on="1"/>
        <pt x="246" y="-14" on="0"/>
        <pt x="187" y="-1" on="0"/>
        <pt x="152" y="34" on="0"/>
        <pt x="139" y="93" on="0"/>
      </contour>
    </TTGlyph>
    <TTGlyph name="exclamdown" xMin="139" yMin="-3" xMax="445" yMax="1438">
      <component glyphName="exclam" x="584" y="1424" scale="-0.999938964844" flags="0x1004"/>
    </TTGlyph>
    <TTGlyph name="f" xMin="90" yMin="0" xMax="809" yMax="1569">
      <contour>
        <pt x="238" y="858" on="1"/>
        <pt x="90" y="858" on="1"/>
        <pt x="90" y="1055" on="1"/>
        <pt x="238" y="1055" on="1"/>
        <pt x="238" y="1231" on="1"/>
        <pt x="238" y="1312" on="0"/>
        <pt x="269" y="1438" on="0"/>
        <pt x="339" y="1524" on="0"/>
        <pt x="454" y="1569" on="0"/>
        <pt x="537" y="1569" on="1"/>
        <pt x="599" y="1569" on="0"/>
        <pt x="700" y="1557" on="0"/>
        <pt x="735" y="1549" on="1"/>
        <pt x="776" y="1540" on="0"/>
        <pt x="809" y="1530" on="1"/>
        <pt x="809" y="1354" on="1"/>
        <pt x="782" y="1356" on="0"/>
        <pt x="751" y="1358" on="1"/>
        <pt x="725" y="1360" on="0"/>
        <pt x="657" y="1362" on="0"/>
        <pt x="621" y="1362" on="1"/>
        <pt x="577" y="1362" on="0"/>
        <pt x="521" y="1349" on="0"/>
        <pt x="488" y="1320" on="0"/>
        <pt x="475" y="1274" on="0"/>
        <pt x="475" y="1241" on="1"/>
        <pt x="475" y="1055" on="1"/>
        <pt x="745" y="1055" on="1"/>
        <pt x="745" y="858" on="1"/>
        <pt x="475" y="858" on="1"/>
        <pt x="475" y="0" on="1"/>
        <pt x="238" y="0" on="1"/>
      </contour>
    </TTGlyph>
    <TTGlyph name="ff" xMin="90" yMin="0" xMax="1511" yMax="1569">
      <contour>
        <pt x="237" y="860" on="1"/>
        <pt x="90" y="860" on="1"/>
        <pt x="90" y="1055" on="1"/>
        <pt x="237" y="1055" on="1"/>
        <pt x="237" y="1178" on="1"/>
        <pt x="237" y="1273" on="0"/>
        <pt x="302" y="1400" on="0"/>
        <pt x="414" y="1476" on="0"/>
        <pt x="566" y="1507" on="0"/>
        <pt x="653" y="1507" on="1"/>
        <pt x="746" y="1507" on="0"/>
        <pt x="881" y="1489" on="0"/>
        <pt x="920" y="1480" on="1"/>
        <pt x="943" y="1507" on="0"/>
        <pt x="1003" y="1542" on="0"/>
        <pt x="1074" y="1561" on="0"/>
        <pt x="1155" y="1569" on="0"/>
        <pt x="1198" y="1569" on="1"/>
        <pt x="1267" y="1569" on="0"/>
        <pt x="1381" y="1552" on="0"/>
        <pt x="1423" y="1542" on="1"/>
        <pt x="1471" y="1531" on="0"/>
        <pt x="1511" y="1516" on="1"/>
        <pt x="1511" y="1343" on="1"/>
        <pt x="1467" y="1348" on="0"/>
        <pt x="1425" y="1352" on="1"/>
        <pt x="1389" y="1356" on="0"/>
        <pt x="1310" y="1362" on="0"/>
        <pt x="1282" y="1362" on="1"/>
        <pt x="1216" y="1362" on="0"/>
        <pt x="1142" y="1343" on="0"/>
        <pt x="1105" y="1308" on="0"/>
        <pt x="1097" y="1260" on="0"/>
        <pt x="1097" y="1231" on="1"/>
        <pt x="1097" y="1055" on="1"/>
        <pt x="1362" y="1055" on="1"/>
        <pt x="1362" y="860" on="1"/>
        <pt x="1097" y="860" on="1"/>
        <pt x="1097" y="0" on="1"/>
        <pt x="858" y="0" on="1"/>
        <pt x="858" y="860" on="1"/>
        <pt x="475" y="860" on="1"/>
        <pt x="475" y="0" on="1"/>
        <pt x="237" y="0" on="1"/>
      </contour>
      <contour>
        <pt x="858" y="1055" on="1"/>
        <pt x="858" y="1272" on="1"/>
        <pt x="858" y="1286" on="1"/>
        <pt x="824" y="1288" on="0"/>
        <pt x="745" y="1292" on="0"/>
        <pt x="702" y="1292" on="1"/>
        <pt x="634" y="1292" on="0"/>
        <pt x="546" y="1270" on="0"/>
        <pt x="495" y="1229" on="0"/>
        <pt x="475" y="1174" on="0"/>
        <pt x="475" y="1141" on="1"/>
        <pt x="475" y="1055" on="1"/>
      </contour>
    </TTGlyph>
    <TTGlyph name="fi" xMin="90" yMin="0" xMax="1153" yMax="1591">
      <contour>
        <pt x="264" y="860" on="1"/>
        <pt x="90" y="860" on="1"/>
        <pt x="90" y="1055" on="1"/>
        <pt x="264" y="1055" on="1"/>
        <pt x="264" y="1235" on="1"/>
        <pt x="264" y="1343" on="0"/>
        <pt x="326" y="1482" on="0"/>
        <pt x="439" y="1561" on="0"/>
        <pt x="598" y="1591" on="0"/>
        <pt x="696" y="1591" on="1"/>
        <pt x="763" y="1591" on="0"/>
        <pt x="887" y="1576" on="0"/>
        <pt x="935" y="1568" on="1"/>
        <pt x="991" y="1558" on="0"/>
        <pt x="1040" y="1546" on="1"/>
        <pt x="1040" y="1358" on="1"/>
        <pt x="989" y="1363" on="0"/>
        <pt x="936" y="1367" on="1"/>
        <pt x="891" y="1370" on="0"/>
        <pt x="782" y="1376" on="0"/>
        <pt x="733" y="1376" on="1"/>
        <pt x="671" y="1376" on="0"/>
        <pt x="583" y="1361" on="0"/>
        <pt x="528" y="1323" on="0"/>
        <pt x="503" y="1261" on="0"/>
        <pt x="503" y="1215" on="1"/>
        <pt x="503" y="1055" on="1"/>
        <pt x="1153" y="1055" on="1"/>
        <pt x="1153" y="0" on="1"/>
        <pt x="915" y="0" on="1"/>
        <pt x="915" y="860" on="1"/>
        <pt x="503" y="860" on="1"/>
        <pt x="503" y="0" on="1"/>
        <pt x="264" y="0" on="1"/>
      </contour>
    </TTGlyph>
    <TTGlyph name="five" xMin="145" yMin="-31" xMax="995" yMax="1430">
      <contour>
        <pt x="145" y="211" on="1"/>
        <pt x="192" y="204" on="0"/>
        <pt x="242" y="200" on="1"/>
        <pt x="285" y="196" on="0"/>
        <pt x="389" y="190" on="0"/>
        <pt x="440" y="190" on="1"/>
        <pt x="524" y="190" on="0"/>
        <pt x="641" y="219" on="0"/>
        <pt x="715" y="280" on="0"/>
        <pt x="749" y="375" on="0"/>
        <pt x="749" y="442" on="1"/>
        <pt x="749" y="508" on="0"/>
        <pt x="729" y="598" on="0"/>
        <pt x="678" y="654" on="0"/>
        <pt x="590" y="678" on="0"/>
        <pt x="522" y="678" on="1"/>
        <pt x="457" y="678" on="0"/>
        <pt x="337" y="668" on="0"/>
        <pt x="290" y="663" on="1"/>
        <pt x="235" y="657" on="0"/>
        <pt x="188" y="649" on="1"/>
        <pt x="188" y="1430" on="1"/>
        <pt x="948" y="1430" on="1"/>
        <pt x="948" y="1204" on="1"/>
        <pt x="425" y="1204" on="1"/>
        <pt x="425" y="883" on="1"/>
        <pt x="449" y="886" on="0"/>
        <pt x="476" y="889" on="1"/>
        <pt x="499" y="891" on="0"/>
        <pt x="559" y="895" on="0"/>
        <pt x="591" y="895" on="1"/>
        <pt x="693" y="895" on="0"/>
        <pt x="844" y="854" on="0"/>
        <pt x="945" y="748" on="0"/>
        <pt x="995" y="565" on="0"/>
        <pt x="995" y="424" on="1"/>
        <pt x="995" y="288" on="0"/>
        <pt x="922" y="112" on="0"/>
        <pt x="795" y="9" on="0"/>
        <pt x="620" y="-31" on="0"/>
        <pt x="518" y="-31" on="1"/>
        <pt x="435" y="-31" on="0"/>
        <pt x="299" y="-11" on="0"/>
        <pt x="249" y="2" on="1"/>
        <pt x="191" y="16" on="0"/>
        <pt x="145" y="35" on="1"/>
      </contour>
    </TTGlyph>
    <TTGlyph name="fl" xMin="90" yMin="0" xMax="1136" yMax="1587">
      <contour>
        <pt x="237" y="858" on="1"/>
        <pt x="90" y="858" on="1"/>
        <pt x="90" y="1055" on="1"/>
        <pt x="237" y="1055" on="1"/>
        <pt x="237" y="1272" on="1"/>
        <pt x="237" y="1366" on="0"/>
        <pt x="308" y="1489" on="0"/>
        <pt x="435" y="1559" on="0"/>
        <pt x="609" y="1587" on="0"/>
        <pt x="712" y="1587" on="1"/>
        <pt x="802" y="1587" on="0"/>
        <pt x="956" y="1565" on="0"/>
        <pt x="1013" y="1551" on="1"/>
        <pt x="1080" y="1535" on="0"/>
        <pt x="1136" y="1516" on="1"/>
        <pt x="1136" y="0" on="1"/>
        <pt x="899" y="0" on="1"/>
        <pt x="899" y="858" on="1"/>
        <pt x="475" y="858" on="1"/>
        <pt x="475" y="0" on="1"/>
        <pt x="237" y="0" on="1"/>
      </contour>
      <contour>
        <pt x="899" y="1055" on="1"/>
        <pt x="899" y="1365" on="1"/>
        <pt x="857" y="1369" on="0"/>
        <pt x="754" y="1376" on="0"/>
        <pt x="704" y="1376" on="1"/>
        <pt x="642" y="1376" on="0"/>
        <pt x="555" y="1361" on="0"/>
        <pt x="500" y="1327" on="0"/>
        <pt x="475" y="1271" on="0"/>
        <pt x="475" y="1231" on="1"/>
        <pt x="475" y="1055" on="1"/>
      </contour>
    </TTGlyph>
    <TTGlyph name="florin" xMin="81" yMin="-340" xMax="850" yMax="1568">
      <contour>
        <pt x="229" y="858" on="1"/>
        <pt x="81" y="860" on="1"/>
        <pt x="95" y="1057" on="1"/>
        <pt x="243" y="1055" on="1"/>
        <pt x="257" y="1231" on="1"/>
        <pt x="263" y="1312" on="0"/>
        <pt x="303" y="1438" on="0"/>
        <pt x="380" y="1524" on="0"/>
        <pt x="498" y="1568" on="0"/>
        <pt x="581" y="1567" on="1"/>
        <pt x="643" y="1566" on="0"/>
        <pt x="742" y="1553" on="0"/>
        <pt x="777" y="1545" on="1"/>
        <pt x="818" y="1536" on="0"/>
        <pt x="850" y="1525" on="1"/>
        <pt x="837" y="1349" on="1"/>
        <pt x="810" y="1352" on="0"/>
        <pt x="779" y="1354" on="1"/>
        <pt x="753" y="1356" on="0"/>
        <pt x="685" y="1358" on="0"/>
        <pt x="649" y="1359" on="1"/>
        <pt x="605" y="1359" on="0"/>
        <pt x="548" y="1347" on="0"/>
        <pt x="513" y="1318" on="0"/>
        <pt x="497" y="1272" on="0"/>
        <pt x="494" y="1239" on="1"/>
        <pt x="480" y="1053" on="1"/>
        <pt x="750" y="1051" on="1"/>
        <pt x="736" y="854" on="1"/>
        <pt x="466" y="856" on="1"/>
        <pt x="369" y="-340" on="1"/>
        <pt x="132" y="-339" on="1"/>
      </contour>
    </TTGlyph>
    <TTGlyph name="four" xMin="65" yMin="0" xMax="1124" yMax="1427">
      <contour>
        <pt x="65" y="450" on="1"/>
        <pt x="612" y="1427" on="1"/>
        <pt x="971" y="1427" on="1"/>
        <pt x="971" y="505" on="1"/>
        <pt x="1124" y="505" on="1"/>
        <pt x="1124" y="292" on="1"/>
        <pt x="971" y="292" on="1"/>
        <pt x="971" y="0" on="1"/>
        <pt x="733" y="0" on="1"/>
        <pt x="733" y="292" on="1"/>
        <pt x="65" y="292" on="1"/>
      </contour>
      <contour>
        <pt x="733" y="505" on="1"/>
        <pt x="735" y="1237" on="1"/>
        <pt x="729" y="1237" on="1"/>
        <pt x="330" y="505" on="1"/>
      </contour>
    </TTGlyph>
    <TTGlyph name="fraction" xMin="10" yMin="0" xMax="894" yMax="1554">
      <contour>
        <pt x="653" y="1554" on="1"/>
        <pt x="894" y="1554" on="1"/>
        <pt x="251" y="0" on="1"/>
        <pt x="10" y="0" on="1"/>
      </contour>
    </TTGlyph>
    <TTGlyph name="g" xMin="114" yMin="-500" xMax="1062" yMax="1079">
      <contour>
        <pt x="249" y="-264" on="1"/>
        <pt x="285" y="-272" on="0"/>
        <pt x="332" y="-277" on="1"/>
        <pt x="372" y="-282" on="0"/>
        <pt x="485" y="-289" on="0"/>
        <pt x="554" y="-289" on="1"/>
        <pt x="638" y="-289" on="0"/>
        <pt x="743" y="-276" on="0"/>
        <pt x="802" y="-243" on="0"/>
        <pt x="824" y="-186" on="0"/>
        <pt x="824" y="-143" on="1"/>
        <pt x="824" y="41" on="1"/>
        <pt x="779" y="22" on="0"/>
        <pt x="729" y="7" on="1"/>
        <pt x="685" y="-6" on="0"/>
        <pt x="574" y="-27" on="0"/>
        <pt x="513" y="-27" on="1"/>
        <pt x="408" y="-27" on="0"/>
        <pt x="257" y="30" on="0"/>
        <pt x="160" y="162" on="0"/>
        <pt x="114" y="376" on="0"/>
        <pt x="114" y="532" on="1"/>
        <pt x="114" y="660" on="0"/>
        <pt x="164" y="863" on="0"/>
        <pt x="261" y="1004" on="0"/>
        <pt x="404" y="1079" on="0"/>
        <pt x="497" y="1079" on="1"/>
        <pt x="576" y="1079" on="0"/>
        <pt x="707" y="1047" on="0"/>
        <pt x="755" y="1028" on="1"/>
        <pt x="810" y="1005" on="0"/>
        <pt x="855" y="977" on="1"/>
        <pt x="882" y="1055" on="1"/>
        <pt x="1062" y="1055" on="1"/>
        <pt x="1062" y="-158" on="1"/>
        <pt x="1062" y="-253" on="0"/>
        <pt x="1007" y="-384" on="0"/>
        <pt x="896" y="-465" on="0"/>
        <pt x="730" y="-500" on="0"/>
        <pt x="620" y="-500" on="1"/>
        <pt x="550" y="-500" on="0"/>
        <pt x="418" y="-481" on="0"/>
        <pt x="365" y="-469" on="1"/>
        <pt x="303" y="-456" on="0"/>
        <pt x="249" y="-438" on="1"/>
      </contour>
      <contour>
        <pt x="597" y="186" on="1"/>
        <pt x="639" y="186" on="0"/>
        <pt x="720" y="193" on="0"/>
        <pt x="752" y="198" on="1"/>
        <pt x="790" y="203" on="0"/>
        <pt x="824" y="211" on="1"/>
        <pt x="824" y="815" on="1"/>
        <pt x="785" y="829" on="0"/>
        <pt x="740" y="840" on="1"/>
        <pt x="702" y="850" on="0"/>
        <pt x="604" y="866" on="0"/>
        <pt x="552" y="866" on="1"/>
        <pt x="499" y="866" on="0"/>
        <pt x="427" y="832" on="0"/>
        <pt x="383" y="752" on="0"/>
        <pt x="364" y="620" on="0"/>
        <pt x="364" y="522" on="1"/>
        <pt x="364" y="432" on="0"/>
        <pt x="376" y="304" on="0"/>
        <pt x="422" y="223" on="0"/>
        <pt x="516" y="186" on="0"/>
      </contour>
    </TTGlyph>
    <TTGlyph name="gbreve" xMin="114" yMin="-500" xMax="1062" yMax="1530">
      <component glyphName="g" x="0" y="0" flags="0x1204"/>
      <component glyphName="breve" x="245" y="0" flags="0x1004"/>
    </TTGlyph>
    <TTGlyph name="gcircumflex" xMin="114" yMin="-500" xMax="1062" yMax="1636">
      <component glyphName="g" x="0" y="0" flags="0x1204"/>
      <component glyphName="circumflex" x="212" y="41" flags="0x1004"/>
    </TTGlyph>
    <TTGlyph name="gcommaaccent" xMin="114" yMin="-500" xMax="1062" yMax="1846">
      <component glyphName="g" x="0" y="0" flags="0x1204"/>
      <component glyphName="commaaccent" x="1053" y="1271" scale="-1.14996337891" flags="0x1004"/>
    </TTGlyph>
    <TTGlyph name="gdotaccent" xMin="114" yMin="-500" xMax="1062" yMax="1477">
      <component glyphName="g" x="0" y="0" flags="0x1204"/>
      <component glyphName="dotaccent" x="437" y="0" flags="0x1004"/>
    </TTGlyph>
    <TTGlyph name="germandbls" xMin="175" yMin="-21" xMax="1125" yMax="1456">
      <contour>
        <pt x="175" y="1040" on="1"/>
        <pt x="175" y="1131" on="0"/>
        <pt x="219" y="1284" on="0"/>
        <pt x="325" y="1395" on="0"/>
        <pt x="499" y="1456" on="0"/>
        <pt x="630" y="1456" on="1"/>
        <pt x="757" y="1456" on="0"/>
        <pt x="927" y="1396" on="0"/>
        <pt x="1029" y="1297" on="0"/>
        <pt x="1072" y="1168" on="0"/>
        <pt x="1072" y="1098" on="1"/>
        <pt x="1072" y="1014" on="0"/>
        <pt x="1025" y="895" on="0"/>
        <pt x="962" y="818" on="0"/>
        <pt x="901" y="778" on="0"/>
        <pt x="886" y="774" on="1"/>
        <pt x="881" y="772" on="0"/>
        <pt x="881" y="760" on="0"/>
        <pt x="886" y="758" on="1"/>
        <pt x="899" y="754" on="0"/>
        <pt x="945" y="734" on="0"/>
        <pt x="998" y="696" on="0"/>
        <pt x="1053" y="636" on="0"/>
        <pt x="1097" y="549" on="0"/>
        <pt x="1125" y="433" on="0"/>
        <pt x="1125" y="358" on="1"/>
        <pt x="1125" y="262" on="0"/>
        <pt x="1066" y="120" on="0"/>
        <pt x="964" y="25" on="0"/>
        <pt x="828" y="-21" on="0"/>
        <pt x="751" y="-21" on="1"/>
        <pt x="696" y="-21" on="0"/>
        <pt x="607" y="-9" on="0"/>
        <pt x="575" y="-1" on="1"/>
        <pt x="538" y="8" on="0"/>
        <pt x="509" y="20" on="1"/>
        <pt x="513" y="196" on="1"/>
        <pt x="538" y="192" on="0"/>
        <pt x="568" y="188" on="1"/>
        <pt x="594" y="185" on="0"/>
        <pt x="661" y="181" on="0"/>
        <pt x="699" y="181" on="1"/>
        <pt x="739" y="181" on="0"/>
        <pt x="807" y="203" on="0"/>
        <pt x="856" y="249" on="0"/>
        <pt x="884" y="323" on="0"/>
        <pt x="884" y="375" on="1"/>
        <pt x="884" y="446" on="0"/>
        <pt x="845" y="535" on="0"/>
        <pt x="785" y="590" on="0"/>
        <pt x="713" y="624" on="0"/>
        <pt x="679" y="641" on="1"/>
        <pt x="668" y="646" on="0"/>
        <pt x="656" y="703" on="0"/>
        <pt x="656" y="735" on="1"/>
        <pt x="656" y="767" on="0"/>
        <pt x="668" y="820" on="0"/>
        <pt x="679" y="827" on="1"/>
        <pt x="702" y="841" on="0"/>
        <pt x="758" y="879" on="0"/>
        <pt x="806" y="934" on="0"/>
        <pt x="839" y="1008" on="0"/>
        <pt x="839" y="1059" on="1"/>
        <pt x="839" y="1116" on="0"/>
        <pt x="820" y="1187" on="0"/>
        <pt x="773" y="1228" on="0"/>
        <pt x="691" y="1243" on="0"/>
        <pt x="628" y="1243" on="1"/>
        <pt x="569" y="1243" on="0"/>
        <pt x="488" y="1222" on="0"/>
        <pt x="438" y="1173" on="0"/>
        <pt x="415" y="1095" on="0"/>
        <pt x="415" y="1038" on="1"/>
        <pt x="415" y="0" on="1"/>
        <pt x="175" y="0" on="1"/>
      </contour>
    </TTGlyph>
    <TTGlyph name="grave" xMin="62" yMin="1151" xMax="592" yMax="1642">
      <contour>
        <pt x="492" y="1151" on="1"/>
        <pt x="416" y="1197" on="0"/>
        <pt x="350" y="1238" on="1"/>
        <pt x="322" y="1256" on="0"/>
        <pt x="264" y="1292" on="0"/>
        <pt x="211" y="1325" on="0"/>
        <pt x="169" y="1354" on="0"/>
        <pt x="156" y="1364" on="1"/>
        <pt x="107" y="1401" on="0"/>
        <pt x="62" y="1453" on="0"/>
        <pt x="62" y="1478" on="1"/>
        <pt x="62" y="1495" on="0"/>
        <pt x="81" y="1531" on="0"/>
        <pt x="100" y="1554" on="1"/>
        <pt x="117" y="1576" on="0"/>
        <pt x="153" y="1609" on="0"/>
        <pt x="167" y="1620" on="1"/>
        <pt x="184" y="1633" on="0"/>
        <pt x="199" y="1642" on="1"/>
        <pt x="592" y="1274" on="1"/>
        <pt x="492" y="1151" on="1"/>
      </contour>
    </TTGlyph>
    <TTGlyph name="grave.cap" xMin="62" yMin="1516" xMax="618" yMax="1985">
      <contour>
        <pt x="530" y="1516" on="1"/>
        <pt x="448" y="1556" on="0"/>
        <pt x="372" y="1595" on="1"/>
        <pt x="340" y="1611" on="0"/>
        <pt x="271" y="1647" on="0"/>
        <pt x="207" y="1682" on="0"/>
        <pt x="150" y="1715" on="0"/>
        <pt x="129" y="1729" on="1"/>
        <pt x="62" y="1774" on="0"/>
        <pt x="62" y="1818" on="1"/>
        <pt x="62" y="1837" on="0"/>
        <pt x="82" y="1877" on="0"/>
        <pt x="102" y="1901" on="1"/>
        <pt x="122" y="1925" on="0"/>
        <pt x="155" y="1957" on="0"/>
        <pt x="168" y="1967" on="1"/>
        <pt x="183" y="1978" on="0"/>
        <pt x="195" y="1985" on="1"/>
        <pt x="618" y="1632" on="1"/>
      </contour>
    </TTGlyph>
    <TTGlyph name="greater" xMin="82" yMin="68" xMax="897" yMax="1126">
      <contour>
        <pt x="82" y="68" on="1"/>
        <pt x="82" y="338" on="1"/>
        <pt x="702" y="590" on="1"/>
        <pt x="702" y="606" on="1"/>
        <pt x="82" y="858" on="1"/>
        <pt x="82" y="1126" on="1"/>
        <pt x="897" y="762" on="1"/>
        <pt x="897" y="426" on="1"/>
      </contour>
    </TTGlyph>
    <TTGlyph name="greaterequal" xMin="100" yMin="0" xMax="915" yMax="1282">
      <contour>
        <pt x="100" y="225" on="1"/>
        <pt x="100" y="479" on="1"/>
        <pt x="717" y="750" on="1"/>
        <pt x="717" y="758" on="1"/>
        <pt x="100" y="1014" on="1"/>
        <pt x="100" y="1282" on="1"/>
        <pt x="915" y="903" on="1"/>
        <pt x="915" y="596" on="1"/>
      </contour>
      <contour>
        <pt x="100" y="0" on="1"/>
        <pt x="100" y="221" on="1"/>
        <pt x="903" y="221" on="1"/>
        <pt x="903" y="0" on="1"/>
      </contour>
    </TTGlyph>
    <TTGlyph name="guillemotleft" xMin="78" yMin="86" xMax="1112" yMax="1004">
      <component glyphName="guilsinglleft" x="-35" y="0" flags="0x1004"/>
      <component glyphName="guilsinglleft" x="542" y="0" flags="0x1004"/>
    </TTGlyph>
    <TTGlyph name="guillemotright" xMin="85" yMin="86" xMax="1120" yMax="1004">
      <component glyphName="guilsinglleft" x="655" y="0" scalex="-0.999938964844" scaley="1.0" flags="0x1004"/>
      <component glyphName="guilsinglleft" x="1233" y="0" scalex="-0.999938964844" scaley="1.0" flags="0x1004"/>
    </TTGlyph>
    <TTGlyph name="guilsinglleft" xMin="113" yMin="86" xMax="570" yMax="1004">
      <contour>
        <pt x="113" y="688" on="1"/>
        <pt x="570" y="1004" on="1"/>
        <pt x="570" y="731" on="1"/>
        <pt x="297" y="557" on="1"/>
        <pt x="297" y="532" on="1"/>
        <pt x="570" y="358" on="1"/>
        <pt x="570" y="86" on="1"/>
        <pt x="113" y="401" on="1"/>
      </contour>
    </TTGlyph>
    <TTGlyph name="guilsinglright" xMin="113" yMin="86" xMax="570" yMax="1004">
      <contour>
        <pt x="113" y="86" on="1"/>
        <pt x="113" y="358" on="1"/>
        <pt x="386" y="532" on="1"/>
        <pt x="386" y="557" on="1"/>
        <pt x="113" y="731" on="1"/>
        <pt x="113" y="1004" on="1"/>
        <pt x="570" y="688" on="1"/>
        <pt x="570" y="401" on="1"/>
      </contour>
    </TTGlyph>
    <TTGlyph name="h" xMin="166" yMin="0" xMax="1090" yMax="1554">
      <contour>
        <pt x="166" y="1554" on="1"/>
        <pt x="403" y="1554" on="1"/>
        <pt x="403" y="1004" on="1"/>
        <pt x="456" y="1024" on="0"/>
        <pt x="517" y="1041" on="1"/>
        <pt x="569" y="1055" on="0"/>
        <pt x="704" y="1079" on="0"/>
        <pt x="776" y="1079" on="1"/>
        <pt x="848" y="1079" on="0"/>
        <pt x="965" y="1048" on="0"/>
        <pt x="1046" y="969" on="0"/>
        <pt x="1090" y="834" on="0"/>
        <pt x="1090" y="729" on="1"/>
        <pt x="1090" y="0" on="1"/>
        <pt x="852" y="0" on="1"/>
        <pt x="852" y="700" on="1"/>
        <pt x="852" y="742" on="0"/>
        <pt x="840" y="805" on="0"/>
        <pt x="801" y="846" on="0"/>
        <pt x="728" y="866" on="0"/>
        <pt x="668" y="866" on="1"/>
        <pt x="620" y="866" on="0"/>
        <pt x="527" y="854" on="0"/>
        <pt x="489" y="847" on="1"/>
        <pt x="444" y="839" on="0"/>
        <pt x="403" y="829" on="1"/>
        <pt x="403" y="0" on="1"/>
        <pt x="166" y="0" on="1"/>
      </contour>
    </TTGlyph>
    <TTGlyph name="hbar" xMin="60" yMin="0" xMax="1118" yMax="1554">
      <contour>
        <pt x="194" y="1219" on="1"/>
        <pt x="60" y="1219" on="1"/>
        <pt x="60" y="1376" on="1"/>
        <pt x="194" y="1376" on="1"/>
        <pt x="194" y="1554" on="1"/>
        <pt x="431" y="1554" on="1"/>
        <pt x="431" y="1376" on="1"/>
        <pt x="712" y="1376" on="1"/>
        <pt x="712" y="1219" on="1"/>
        <pt x="431" y="1219" on="1"/>
        <pt x="431" y="1004" on="1"/>
        <pt x="484" y="1024" on="0"/>
        <pt x="545" y="1041" on="1"/>
        <pt x="597" y="1055" on="0"/>
        <pt x="732" y="1079" on="0"/>
        <pt x="804" y="1079" on="1"/>
        <pt x="876" y="1079" on="0"/>
        <pt x="993" y="1048" on="0"/>
        <pt x="1074" y="969" on="0"/>
        <pt x="1118" y="834" on="0"/>
        <pt x="1118" y="729" on="1"/>
        <pt x="1118" y="0" on="1"/>
        <pt x="880" y="0" on="1"/>
        <pt x="880" y="700" on="1"/>
        <pt x="880" y="742" on="0"/>
        <pt x="868" y="805" on="0"/>
        <pt x="829" y="846" on="0"/>
        <pt x="756" y="866" on="0"/>
        <pt x="696" y="866" on="1"/>
        <pt x="648" y="866" on="0"/>
        <pt x="555" y="854" on="0"/>
        <pt x="517" y="847" on="1"/>
        <pt x="472" y="839" on="0"/>
        <pt x="431" y="829" on="1"/>
        <pt x="431" y="0" on="1"/>
        <pt x="194" y="0" on="1"/>
      </contour>
    </TTGlyph>
    <TTGlyph name="hcircumflex" xMin="-69" yMin="0" xMax="1119" yMax="2005">
      <component glyphName="h" x="29" y="0" flags="0x1004"/>
      <component glyphName="circumflex" x="-120" y="410" flags="0x1004"/>
    </TTGlyph>
    <TTGlyph name="hungarumlaut" xMin="61" yMin="1145" xMax="978" yMax="1708">
      <contour>
        <pt x="61" y="1237" on="1"/>
        <pt x="326" y="1708" on="1"/>
        <pt x="343" y="1705" on="0"/>
        <pt x="363" y="1698" on="1"/>
        <pt x="380" y="1692" on="0"/>
        <pt x="428" y="1669" on="0"/>
        <pt x="457" y="1651" on="1"/>
        <pt x="489" y="1631" on="0"/>
        <pt x="522" y="1592" on="0"/>
        <pt x="522" y="1569" on="1"/>
        <pt x="522" y="1547" on="0"/>
        <pt x="491" y="1492" on="0"/>
        <pt x="459" y="1454" on="1"/>
        <pt x="449" y="1441" on="0"/>
        <pt x="418" y="1401" on="0"/>
        <pt x="379" y="1353" on="0"/>
        <pt x="335" y="1300" on="0"/>
        <pt x="314" y="1274" on="1"/>
        <pt x="264" y="1213" on="0"/>
        <pt x="207" y="1145" on="1"/>
      </contour>
      <contour>
        <pt x="543" y="1239" on="1"/>
        <pt x="782" y="1663" on="1"/>
        <pt x="799" y="1660" on="0"/>
        <pt x="819" y="1653" on="1"/>
        <pt x="836" y="1647" on="0"/>
        <pt x="884" y="1624" on="0"/>
        <pt x="913" y="1606" on="1"/>
        <pt x="945" y="1586" on="0"/>
        <pt x="978" y="1548" on="0"/>
        <pt x="978" y="1525" on="1"/>
        <pt x="978" y="1504" on="0"/>
        <pt x="948" y="1448" on="0"/>
        <pt x="915" y="1409" on="1"/>
        <pt x="905" y="1396" on="0"/>
        <pt x="875" y="1360" on="0"/>
        <pt x="840" y="1318" on="0"/>
        <pt x="801" y="1273" on="0"/>
        <pt x="782" y="1252" on="1"/>
        <pt x="738" y="1202" on="0"/>
        <pt x="688" y="1147" on="1"/>
      </contour>
    </TTGlyph>
    <TTGlyph name="hungarumlaut.cap" xMin="61" yMin="1513" xMax="964" yMax="2054">
      <contour>
        <pt x="61" y="1606" on="1"/>
        <pt x="379" y="2054" on="1"/>
        <pt x="392" y="2051" on="0"/>
        <pt x="409" y="2044" on="1"/>
        <pt x="423" y="2038" on="0"/>
        <pt x="463" y="2015" on="0"/>
        <pt x="489" y="1997" on="1"/>
        <pt x="521" y="1975" on="0"/>
        <pt x="552" y="1933" on="0"/>
        <pt x="552" y="1910" on="1"/>
        <pt x="552" y="1874" on="0"/>
        <pt x="510" y="1825" on="1"/>
        <pt x="493" y="1806" on="0"/>
        <pt x="445" y="1759" on="0"/>
        <pt x="391" y="1708" on="0"/>
        <pt x="334" y="1655" on="0"/>
        <pt x="307" y="1631" on="1"/>
        <pt x="243" y="1574" on="0"/>
        <pt x="174" y="1513" on="1"/>
      </contour>
      <contour>
        <pt x="516" y="1602" on="1"/>
        <pt x="795" y="2011" on="1"/>
        <pt x="808" y="2008" on="0"/>
        <pt x="825" y="2001" on="1"/>
        <pt x="839" y="1995" on="0"/>
        <pt x="879" y="1972" on="0"/>
        <pt x="905" y="1954" on="1"/>
        <pt x="964" y="1913" on="0"/>
        <pt x="964" y="1875" on="1"/>
        <pt x="964" y="1856" on="0"/>
        <pt x="941" y="1814" on="0"/>
        <pt x="918" y="1788" on="1"/>
        <pt x="900" y="1769" on="0"/>
        <pt x="856" y="1726" on="0"/>
        <pt x="808" y="1680" on="0"/>
        <pt x="759" y="1635" on="0"/>
        <pt x="735" y="1614" on="1"/>
        <pt x="680" y="1565" on="0"/>
        <pt x="621" y="1516" on="1"/>
      </contour>
    </TTGlyph>
    <TTGlyph name="hyphen" xMin="60" yMin="475" xMax="734" yMax="702">
      <contour>
        <pt x="60" y="702" on="1"/>
        <pt x="734" y="702" on="1"/>
        <pt x="734" y="475" on="1"/>
        <pt x="60" y="475" on="1"/>
      </contour>
    </TTGlyph>
    <TTGlyph name="i" xMin="163" yMin="0" xMax="441" yMax="1507">
      <contour>
        <pt x="303" y="1234" on="1"/>
        <pt x="262" y="1234" on="0"/>
        <pt x="209" y="1246" on="0"/>
        <pt x="176" y="1276" on="0"/>
        <pt x="163" y="1328" on="0"/>
        <pt x="163" y="1369" on="1"/>
        <pt x="163" y="1410" on="0"/>
        <pt x="176" y="1463" on="0"/>
        <pt x="209" y="1495" on="0"/>
        <pt x="262" y="1507" on="0"/>
        <pt x="303" y="1507" on="1"/>
        <pt x="344" y="1507" on="0"/>
        <pt x="397" y="1495" on="0"/>
        <pt x="429" y="1463" on="0"/>
        <pt x="441" y="1410" on="0"/>
        <pt x="441" y="1369" on="1"/>
        <pt x="441" y="1328" on="0"/>
        <pt x="429" y="1276" on="0"/>
        <pt x="397" y="1246" on="0"/>
        <pt x="344" y="1234" on="0"/>
      </contour>
      <contour>
        <pt x="184" y="1055" on="1"/>
        <pt x="422" y="1055" on="1"/>
        <pt x="422" y="0" on="1"/>
        <pt x="184" y="0" on="1"/>
      </contour>
    </TTGlyph>
    <TTGlyph name="iacute" xMin="85" yMin="0" xMax="632" yMax="1647">
      <contour>
        <pt x="194" y="1055" on="1"/>
        <pt x="432" y="1055" on="1"/>
        <pt x="432" y="0" on="1"/>
        <pt x="194" y="0" on="1"/>
      </contour>
      <contour>
        <pt x="85" y="1264" on="1"/>
        <pt x="493" y="1647" on="1"/>
        <pt x="506" y="1640" on="0"/>
        <pt x="522" y="1628" on="1"/>
        <pt x="536" y="1617" on="0"/>
        <pt x="571" y="1583" on="0"/>
        <pt x="593" y="1557" on="1"/>
        <pt x="612" y="1534" on="0"/>
        <pt x="632" y="1496" on="0"/>
        <pt x="632" y="1479" on="1"/>
        <pt x="632" y="1454" on="0"/>
        <pt x="587" y="1403" on="0"/>
        <pt x="536" y="1366" on="1"/>
        <pt x="522" y="1356" on="0"/>
        <pt x="478" y="1326" on="0"/>
        <pt x="424" y="1290" on="0"/>
        <pt x="364" y="1251" on="0"/>
        <pt x="335" y="1232" on="1"/>
        <pt x="266" y="1187" on="0"/>
        <pt x="188" y="1137" on="1"/>
      </contour>
    </TTGlyph>
    <TTGlyph name="ibreve" xMin="-19" yMin="0" xMax="612" yMax="1510">
      <contour>
        <pt x="298" y="1156" on="1"/>
        <pt x="220" y="1156" on="0"/>
        <pt x="101" y="1197" on="0"/>
        <pt x="22" y="1274" on="0"/>
        <pt x="-19" y="1381" on="0"/>
        <pt x="-19" y="1447" on="1"/>
        <pt x="-19" y="1462" on="0"/>
        <pt x="-17" y="1493" on="0"/>
        <pt x="-15" y="1510" on="1"/>
        <pt x="106" y="1510" on="1"/>
        <pt x="112" y="1456" on="0"/>
        <pt x="145" y="1388" on="0"/>
        <pt x="194" y="1350" on="0"/>
        <pt x="259" y="1336" on="0"/>
        <pt x="298" y="1336" on="1"/>
        <pt x="336" y="1336" on="0"/>
        <pt x="400" y="1349" on="0"/>
        <pt x="449" y="1387" on="0"/>
        <pt x="482" y="1455" on="0"/>
        <pt x="489" y="1510" on="1"/>
        <pt x="607" y="1510" on="1"/>
        <pt x="609" y="1492" on="0"/>
        <pt x="612" y="1459" on="0"/>
        <pt x="612" y="1442" on="1"/>
        <pt x="612" y="1377" on="0"/>
        <pt x="572" y="1272" on="0"/>
        <pt x="492" y="1197" on="0"/>
        <pt x="375" y="1156" on="0"/>
      </contour>
      <contour>
        <pt x="178" y="1055" on="1"/>
        <pt x="416" y="1055" on="1"/>
        <pt x="416" y="0" on="1"/>
        <pt x="178" y="0" on="1"/>
      </contour>
    </TTGlyph>
    <TTGlyph name="icircumflex" xMin="-25" yMin="0" xMax="635" yMax="1551">
      <contour>
        <pt x="92" y="1107" on="1"/>
        <pt x="-25" y="1164" on="1"/>
        <pt x="76" y="1416" on="1"/>
        <pt x="93" y="1458" on="0"/>
        <pt x="136" y="1511" on="0"/>
        <pt x="191" y="1540" on="0"/>
        <pt x="261" y="1551" on="0"/>
        <pt x="305" y="1551" on="1"/>
        <pt x="349" y="1551" on="0"/>
        <pt x="419" y="1540" on="0"/>
        <pt x="474" y="1511" on="0"/>
        <pt x="518" y="1458" on="0"/>
        <pt x="535" y="1416" on="1"/>
        <pt x="635" y="1164" on="1"/>
        <pt x="518" y="1107" on="1"/>
        <pt x="305" y="1416" on="1"/>
      </contour>
      <contour>
        <pt x="186" y="1055" on="1"/>
        <pt x="424" y="1055" on="1"/>
        <pt x="424" y="0" on="1"/>
        <pt x="186" y="0" on="1"/>
      </contour>
    </TTGlyph>
</ttFont>
